<svg id="Layer_1" data-name="Layer 1" xmlns="http://www.w3.org/2000/svg" viewBox="0 0 805.72 281.3"><defs><style>.cls-1{fill:#319940;}.cls-1,.cls-2{stroke:#75c967;stroke-miterlimit:10;stroke-width:5.77px;}.cls-2{fill:none;opacity:0.5;}.cls-3{fill:#fff;}</style></defs><path class="cls-1" d="M799.37,83c-49.47,76.48-88.06,95.52-114.71,98.12-38.79,3.77-55.23-27-92.07-8.36-39.46,20-38.14,64.2-73.91,84.43-50.62,28.62-70.57-50.13-136.55-33.11-47.16,12.16-52.79,56.49-89.76,54.26-47.52-2.88-45.57-76.55-99.89-96.95-46.3-17.38-68.71,28.26-115.79,10.19-35.88-13.77-58.31-53.87-71.27-83.92,30.33,12.09,69.87,18.28,112.84-4.35,50.62-26.67,62.85-70.62,103-74.25C269.37,24.71,273,86.49,321.54,81.11c45.49-5,55.13-60.76,100-58.42,33,1.72,40.15,32.52,73.43,24.33,27-6.64,30.95-29.52,55.35-40.1C593.23-11.7,618.33,38.59,669,68,696.09,83.7,738.12,97.83,799.37,83Z"/><path class="cls-2" d="M5.42,107.66c15.68,20,41.19,45.09,75.4,45.53,48.9.63,67.27-49.77,113.47-44.82,39.21,4.2,34.69,41.44,88.81,53.89,12.79,2.94,41.78,9.12,77.6-6.5,30.58-13.34,30-26.81,50.24-31.14,43.13-9.23,54.37,50,90.72,39.75,29.64-8.38,30.43-50.11,64.19-68.5C603.26,75.5,624.22,114.78,670,125.68c27.09,6.44,69.29,4.49,129.34-42.68"/><path class="cls-3" d="M181.13,110.28c0,.59,0,1.55-.16,2.88l-2.32,7.28v40.08h-11.2V120.76l3.39-7.28h-6.32V103.16H176Q181.3,103.16,181.13,110.28Z"/><path class="cls-3" d="M206.65,149.32h-11.2V115.56c0-1.39-.8-2.08-2.4-2.08h-2.72V103.16h12.08c2.83,0,4.24,1.74,4.24,5.2Z"/><path class="cls-3" d="M254.89,149.32H215.05V120.76l3.18-7.28h-3.18V103.16h11.12q5.21,0,5.2,4.32v6h-2.8l-2.32,7.6V139h17.44V123.24q0-5.76-3.28-7.12l-1.84,4.56h-6.64l6.9-17.92q6.58,0,11.32,5.64a18.69,18.69,0,0,1,4.74,12.28Z"/><path class="cls-3" d="M295.77,149.32h-11.2V116.84q0-3.36-3-3.36H261.37V103.16H286.5a8.68,8.68,0,0,1,6.61,2.84,9.58,9.58,0,0,1,2.66,6.76Z"/><path class="cls-3" d="M343.61,130a19.07,19.07,0,0,1-5.8,14.08,19.88,19.88,0,0,1-34-14.08v-9.68l3.79-6.8h-3.79V103.16h34.86q3.28,0,4.34,2.32a16.35,16.35,0,0,1,.56,5.28Zm-11.2.11V115.63c0-1.43-.75-2.15-2.24-2.15H315v16.43a8.47,8.47,0,0,0,2.48,6.18,8.32,8.32,0,0,0,6.16,2.51,8.67,8.67,0,0,0,6.16-2.51A8,8,0,0,0,332.41,130.07Z"/><path class="cls-3" d="M386.25,130.07a18.87,18.87,0,0,1-5.14,13.54,18.4,18.4,0,0,1-13.33,5.63l-3.13.08v-11.2h3.68a6.17,6.17,0,0,0,5.12-2.32,9.07,9.07,0,0,0,1.6-5.52V115.64a1.94,1.94,0,0,0-2.23-2.16H350.09V96.2h10.56v7h21.59a3.67,3.67,0,0,1,2.88,1.28,4.54,4.54,0,0,1,1.13,3.11Z"/><path class="cls-3" d="M460,149.32h-11.2V116c0-1.12-.23-1.83-.68-2.12a5.1,5.1,0,0,0-2.52-.44H419V103.16h35.28q5.76,0,5.76,6.16Zm-29.6,0H419.05V122.84h11.36Z"/><path class="cls-3" d="M501.45,149.32h-11.2V116.84c0-2.24-1-3.36-3-3.36H467.05V103.16h25.13a8.7,8.7,0,0,1,6.61,2.84,9.58,9.58,0,0,1,2.66,6.76Z"/><path class="cls-3" d="M532.33,113.48h-4q-1.92,7.36-1.92,7.68v28.16h-11.2V121.16c.88-2.77,1.7-5.33,2.48-7.68h-6.4V103.16h16.4a5,5,0,0,1,3.24,1.16,3.72,3.72,0,0,1,1.4,3Z"/><path class="cls-3" d="M580.49,149.32h-11.2v-33q0-2.88-3.12-2.88H550.89v35.84h-11.2v-27l4.52-8.8h-4.52V103.16h35.13q5.67,0,5.67,6.24Z"/><path class="cls-3" d="M623.85,149.32H587.77V139h21V115.64a1.91,1.91,0,0,0-2.16-2.16H587.77V103.16h27.36a4.26,4.26,0,0,1,3.52,1.76,6.29,6.29,0,0,1,1.36,3.92V139h3.84Z"/></svg>