<svg id="Layer_1" data-name="Layer 1" xmlns="http://www.w3.org/2000/svg" viewBox="0 0 487.76 761.85"><defs><style>.cls-1{fill:#4b9ddb;}.cls-2{fill:#2d5ea6;}.cls-3{fill:#2b5a92;}</style></defs><path class="cls-1" d="M407.82,3.58,5.09,17.65q9.12,370.28,18.25,740.53l460.33-1.24Q445.75,380.26,407.82,3.58Z"/><path class="cls-2" d="M71.41,18.06H65.35C65.45,18.15,67,18.18,71.41,18.06Z"/><path class="cls-2" d="M454.1,491.15l-.2-1.43C454,490.73,454.07,491.05,454.1,491.15Z"/><path class="cls-2" d="M4.66,187.11v-.32l-.09-1.57Z"/><path class="cls-2" d="M144.77,8.76c-31.74,1-54.36,1.58-75.22,2.1l-30.88.81-16.18.46L0,12.86C.2,21,.42,29.8.66,39.35c.21,7.77.45,16.18.71,25.32.9,40.12,2.19,82.91,3.28,122.12,1.25,18.59,1.28,51.49,2.49,73.49l-.24,8.55c.41,7.59.78,16.49.73,24.12l-.14-.47c.62,11.33.73,24.12,1,29.74l-.14-.47.39,13.78-.24-2.37c.85,19.76,1.37,40.14,1.65,58.09l.51-1.5c.34,38.4,1.81,52.41,1.94,87.08l-.14-.47c2.51,43.75.73,69.25,3.2,114.35-.31-5.62-.22,2.42-.36,2,.67,20.78,1.29,43,2.37,43.28.36,15.16,0,12.35-.39,14.33.23,0,.47,3.22.7,8s.44,11,.6,16.91l-.32-5.44,1,33.89L20,697c.19,18-1,4.59-.32,21.8l.72-.24c.15,7.84.18,14.65.15,21.07,0,3.21-.06,6.32-.08,9.4l-.06,4.82q0,3.66,0,7.37l8.46.18,5.75.19,12.5.31c100.05,0,207.53-2.11,300.62-1.07l4.11.54c1.79.79,25.67-1.26,29.23-.53l10.82-.39c3,.13,9.46.27,4.07.47,10,0,10.25-.13,17.46-.39l10.75.47c10.39.07,20.38,0,30.21,0l33.35-.31c-1.08-10.07-2.18-20.23-3.3-30.69-1-9.08-1.93-18.43-2.87-28.24-4-49.78-14.34-143.21-20.3-197-8.82-75.62-14.51-164-23.68-241.44-.08-1.27-.34-3.53-.59-5.46l-.36-2.5a6.91,6.91,0,0,0-.19-1l-7-71s-34.34-344.14-14.62-82.05l-.35-1.73c3.49,38.88,5.86,63.35,9.43,90-.65,4.34,3.1,31.92,3.67,41.05l-.17-.85c3.21,23.61,4.22,48.87,7.26,71.64a34.37,34.37,0,0,1-1.06-6.59c1.81,16.63,4.34,39.36,3.84,40.66,4.16,39.73,9.46,95.24,13,120.61l-.35-1.73c2.14,14.44,2,18.77,4,35,0,.9.08,2.05,0,1.87,2.25,15.74,4.75,46.13,6.32,58.88l-.33.87,3.26,31.47-1.09-11.77c1.55,4,1.68,23.88,4.72,46.64,2,21.38,6.73,43.1,8.4,65.34,1.6,10.53-1.8-9.23.2,6.55-.54.58-1.12-7.35-1.18-3.23,1.85,15.5,2,25.53,4.29,44.65l-.38.83q.9,6.75,1.59,13.22.33,3.24.65,6.39c.11,1.15.21,2.29.31,3.41l-2.69,0-5.09-.06-9.92-.1c-6.39,0-12.3,0-17.63.28-25.91.45-17.38-1.34-44.35-.36l-10.49-.6c-11.54-.07-8.26.8-21.06.53.78-.4-16.18-.28-8.68-.67-29-.54-58.8,1-96.95.09-8.29.79-27.49.39-33.67,1-1-.33-38.49,0-16.92-.74a32.86,32.86,0,0,1,4.9.07l2.58-.46c-21.76-.81-39.54.58-61.07.5,6.38.14,14.88.08,9.2.4H149l4.16-.4-29.8-.14,4.11.46c-14.59-.2-19.72-1-36.16-.28-7.44.4,13.81.6-1.58.79l-31.19-.41L27.5,753.9c0-.2,0-.4,0-.6v-.64l0-1.75c-.48,2.34-.63-4.36-.91-11.24l.45-.81c-1.3-26.39.78-9.7-.38-35.89l.38,2.3-1.14-6.9c-1.5-23.62.65-12.77-1.25-39,.33,10.38-.91,4.92-1-7.87l.53,3.23c-.27-7.08-.52-9.44-.54-14.15.34,4.21.71,2.21.37-8.19l.74,7L23.4,619.7c.1-15.2-1.09-39.25-.61-45.5,0,0-.5-32.66-1.38-40.13.59,6.55.32-11.46.95-6.34-.7-8.45-1.71-33.43-1.44-43.44l.1,1.89c-.38-37-2.28-63.25-2.46-96.46-.5,1.52-.64-16-1.22-11.67-1.53-34.33-.14-62.66-2.58-75-.5-15.63,0-18.54,0-26.61l.21,3.72c-.9-29.28-1.13-37.77-1.61-59.52-.48-10.85-1.51-12.54-1.75-32,.55,6.28.28-1.67.1-8.94.18,4.64.35,6.08.38-3.48-.15-1.34-.28-3.42-.39-5.36,0-.08,0-.47.09-.27-.44-12.14-.51-10-.42-4.39-.07-.28-.13.2-.2,1.94.2-12.61-.9-35.13-.26-36.67C9.8,95,8.46,68.87,7.45,38.49c.26-3.43.75,3.67,1.1,12.49L7.89,29.42c.5.17.59,12.38.86,19,0-5,0-10.09-.15-15.23-.07-2.57-.14-5.15-.21-7.76l-.07-2-.05-1.3-.09-1.62,1.25-.09.64,0,1.35-.07,6.3-.32,12.85-.61c8.67-.38,17.58-.68,26.76-.78l6.23-.61h1.79c-.1-.2,6.64-.72,11.1-.95,4.27.29-.26,1,14.64.47,11.79,0,33.46-1.38,48.87-2.15-8.31.21-5.64-.12-2.07-.4,7.45-.27,11.76,0,17.5-.38l.74.57c-2.95-.46,19.44-1.28,22.18-1.62,4.26.29-11.54.78-13.39,1.17l44.79-1.64c15.92-1-2.91-.46,4.69-1.24,14.07-.61,27.78-1.5,43.94-1.71l-5.13-.34C279.63,8.5,295.45,8,313.27,7.91,510-3.22,354.56.65,354.56.65,277,2.21,237,5.13,144.77,8.76Z"/><path class="cls-2" d="M153.89,58l2.06.11C155.91,58,155.39,57.93,153.89,58Z"/><path class="cls-2" d="M45.84,230.4l-.06-.48A3.23,3.23,0,0,0,45.84,230.4Z"/><path class="cls-2" d="M187.33,108v-.11l-.11-.52Z"/><path class="cls-2" d="M129.12,64.5c12.5-.35,20.84-.41,28.91-.51,4-.05,8-.11,12.4-.21l7-.2,3.83-.13h.32l0,.09c.14,1,.29,2.1.44,3.22,1.6,13.52,3.58,27.92,5.31,41.11,1.43,6.19,2.15,17.35,3.62,24.7l0,2.92a58.16,58.16,0,0,1,1.12,8.11l-.13-.15c.75,3.79,1.12,8.12,1.49,10l-.13-.15.62,4.63-.25-.77c1.12,6.62,2,13.48,2.6,19.54l.39-.55c1.09,13,2.61,17.6,3.45,29.35l-.13-.15c3,14.61,2.07,23.42,5.08,38.49-.19-.94-.22-.73-.22-.3v.69c0,.09,0,.1-.07.1l.12.57-.45.34-1.62,1.12c-1.18.82-2.27,1.59-3.18,2.28-1.84,1.37-3,2.39-2.8,2.74-4.32,2.8-3.66,2.05-4.41,2.13.24.31-3.42,2.89-6.77,5.09l1.47-1.13-9.57,6.39,2.3-.62c-5.23,3.15-1.79.09-6.59,3.43l.39.47c-7.13,4.51-11.79,6.43-18.88,10.5-28.6,18.3-58.31,39.51-85.37,55.84l-1.42.37c-.88-.23-6.76,5.59-8.11,5.72l-.73.57-.36.28-.12.12-.5.51c-.36.09-.84.25-.35-.25a4.78,4.78,0,0,0-1,.74,1.76,1.76,0,0,1-.22-.4,11.09,11.09,0,0,1,.35-1.43V339l0-.61c0-.83-.06-1.64-.1-2.45-.08-1.62-.17-3.22-.25-4.81-.19-3.16-.41-6.28-.64-9.41-.46-6.28-.94-12.64-1.22-19.68,0-17-2.4-48.78-3.78-67.11-2.31-25.75-1.16-55.89-3.64-82.24a13.84,13.84,0,0,0-.35-3.06l-1.13-24.17S40.15,8.27,39.1,97.59L38.92,97c.31,13.24.66,21.58,1.86,30.66-.83,1.49.45,10.87.32,14l-.09-.29c1.1,8,.26,16.65,1.28,24.4a5,5,0,0,1-.45-2.24c.4,5.66,1,13.4.49,13.85.82,13.53,1.54,32.44,2.82,41.07l-.18-.59c.82,4.92.41,6.4,1,11.91-.06.3-.07.7-.11.63.84,5.36.89,15.71,1.35,20.06l-.34.3.63,10.71-.13-4c1,1.34-.19,8.14.82,15.89.25,7.28,2.74,14.66,2.66,22.24.63,3.58-.89-3.14-.28,2.23-.49.2-.44-2.5-.77-1.09.51,5.28-.07,8.7.6,15.21l-.38.29c1.15,8.47.3,16.08,1.27,21.72a42,42,0,0,1,.21,4.48c0,1.41-.08,2.4-.12,3.35,0,1.15-.1,2.29-.08,3.83s.12,3.5.35,6.09l2.81-2,4.86-2.54c.71-.44,1.3-.83,1.81-1.18s1-.67,1.1-.78c.4-.33.67-.59.95-.85a13.3,13.3,0,0,1,3-2.15c0,.42,4.75-2.77,2.79-1.12,8.52-4.93,16.32-11.5,27.65-17.83,2-2.07,7.67-5.31,9.16-6.86.45.05,11-7.08,5.18-2.58-.5.39-1.44,1-1.44.85l-.52.8c6.58-3.42,11-7.65,17.21-11.54-1.89,1.07-4.28,2.67-2.81,1.4l5.71-3.66-1,1,8.57-5.36-1.38.43c4.26-2.53,6.09-2.91,10.45-6.43,1.95-1.64-4.22,2.11.09-.85,5.7-3.38,14.22-8.44,21.37-12.95-.91.06,1-1.17,2.91-2.52l.44.18c7.22-5.34,3.22-1.07,10.44-6.29l-.51.66,1.53-2c6.3-5,4.07-1.69,11-7.44-2.91,2-1.86.19,1.87-2l-.71.92c2-1.38,2.55-1.95,3.93-2.75-1.08.95-.33.87,2.59-1.11L199,256.87l5.21-4.22c.89-.48,1.85-1.05,2.83-1.66l2-1.3,2.58-1.67c-.19-1.59-.39-3.15-.58-4.64-.1-.87-.2-1.7-.29-2.46a18.47,18.47,0,0,1-.16-3.38s-1.1-11-2-13.48c.63,2.16,0-3.92.65-2.24a85.37,85.37,0,0,1-2.11-14.6l.13.63c-1.1-12.52-3.24-21.24-4.08-32.49-.39.57-.87-5.37-1.27-3.84-2-11.5-1.43-21.24-3.73-25.2-.74-5.25-.35-6.29-.59-9l.24,1.24c-1.36-9.84-1.73-12.71-2.59-20-.63-3.63-1.52-4.11-2.13-10.68.59,2.08.2-.59-.11-3,.25,1.56.43,2,.25-1.21a14,14,0,0,1-.44-1.78s0-.16.07-.1c-.62-4.08-.63-3.35-.44-1.45-.07-.09-.11.08-.13.68-.1-4.3-1.49-11.84-1-12.42-.78-5.8-1.56-10.81-2.33-15.55-.38-2.38-.76-4.69-1.13-7l-.57-3.61c-.23-1.6-.47-3.21-.7-4.84l-2.32.12c-1-.16.24-.39,2.74-.61.18,1,.39,2.29.61,3.71l-.52-3.83-6.73.31c0-.08.17-.15.45-.2l.23,0,.33,0,1-.07c1.42-.08,3.26-.14,5-.21.13,1,.25,1.87.35,2.64-.08-.92-.16-1.85-.23-2.77-1.6,0-3.26,0-4.94.09l-2.07.07-1.58.08c-2.12.12-4.27.28-6.46.44a135.67,135.67,0,0,1-13.73.5l-2.1.41-.61,0a14.65,14.65,0,0,1-3.76.6c-1.46-.31.07-.84-5-.64-4-.21-11.35.58-16.58,1,2.82,0,1.92.19.71.36-2.53.11-4-.21-5.94,0l-.26-.49c1,.43-6.59.74-7.51,1-1.45-.32,3.91-.46,4.53-.76l-15.2.62c-5.39.56,1,.43-1.57,1-4.77.27-9.42.78-14.91.68l1.75.37a171.92,171.92,0,0,1-20.38.58C5.16,68.26,58,67.68,58,67.68,84.28,67.72,97.82,66,129.12,64.5Z"/><path class="cls-2" d="M151.66,71.41l1.76.12C153.39,71.45,153,71.39,151.66,71.41Z"/><path class="cls-2" d="M59.17,218.91l-.06-.42A2.79,2.79,0,0,0,59.17,218.91Z"/><path class="cls-2" d="M175,119.93v-.09l-.1-.45Z"/><path class="cls-2" d="M130.5,77.76c9.69-.23,16.45-.26,22.77-.29l9.46-.08,5.07-.09,1.34,0h.43c.28,2.12.6,4.58,1,7.4,1.33,11.57,3,23.88,4.47,35.16,1.3,5.28,1.79,14.83,3.11,21.11l-.08,2.5a41.67,41.67,0,0,1,1,6.94l-.12-.13c.67,3.24.95,6.94,1.28,8.54l-.12-.12.52,4-.23-.66c1,5.66,1.71,11.53,2.19,16.71l.4-.48c.83,11.12,2.25,15,2.86,25.11l-.13-.13a114.29,114.29,0,0,1,2.15,16.31c.19,2.53.39,5.07.71,7.79.16,1.35.34,2.75.58,4.21.12.73.25,1.48.38,2.25l.11.58c0,.19.08.43.09.43l.15.36c-.21-.49-.22.17-.34.06l0,.14-.4.33s-.35.26-.63.47l-.85.62c-1.12.82-2.17,1.61-3.06,2.31-1.77,1.4-2.89,2.47-2.68,2.85-3.62,2.49-3.1,1.81-3.77,1.85.24.31-2.81,2.61-5.61,4.59l1.21-1-8,5.71,2-.49c-4.41,2.79-1.61,0-5.61,3l.4.46c-6,4-10,5.65-16,9.25-24,16.3-48.77,35.32-71.59,49.79l-1.24.3c-.21-.06-.65.22-1.23.68-.29.24-.61.51-1,.81-.12.1-.09.09-.11.13l0,.08-.11.19c-.28.51-1.06,1.36-1,1l-.65.67-.13-.22c.1-.55.19-1.23.35-.95,0-.84-.12-.7-.35-1.38l0-.06s0-.13,0-.18l0-.4.06-.78.13-1.57c-.27-11.46-1.59-21.14-2.05-33.19.09-14.51-2.11-41.7-3.38-57.36-2.16-22-.82-47.79-3.15-70.31a9.46,9.46,0,0,0-.33-2.61l-1-20.66s-5-100.2-6.56-23.8l-.18-.5c.24,11.32.53,18.45,1.67,26.21-.83,1.28.4,9.29.24,12l-.08-.25c1,6.86.16,14.24,1.13,20.86a3.75,3.75,0,0,1-.44-1.92c.37,4.84.92,11.46.41,11.85.74,11.56,1.34,27.73,2.57,35.1l-.18-.5c.79,4.19.37,5.46.91,10.17-.06.26-.08.6-.11.55.8,4.57.79,13.42,1.22,17.13l-.33.26.56,9.16L60.51,242c1,1.14-.24,7,.73,13.58.2,6.23,2.65,12.52,2.52,19,.61,3.06-.87-2.67-.29,1.91-.49.18-.42-2.13-.76-.92.47,4.51-.12,7.44.51,13l-.38.25c1.09,7.24.2,13.75,1.13,18.56a22.73,22.73,0,0,1,0,6.33,14.71,14.71,0,0,0-.13,2.3c0,.31,0,.65,0,1s.07,1,.11,1.56c.1,1.13.22,2.44.4,3.91l-.23,5.73.07,1.47a37.06,37.06,0,0,0,3.34-2.68,30.58,30.58,0,0,1,4.07-2.93c-.14.3,1.48-.74,2.81-1.58a7.1,7.1,0,0,1,1.14-.66c.15-.05.1.05-.3.42C82.48,318,88.88,312,98.48,306.42c1.61-1.9,6.41-4.75,7.61-6.17.4.06,9.2-6.31,4.41-2.25-.42.35-1.2.88-1.21.75l-.4.74c5.6-3,9.21-6.85,14.41-10.31-1.6.95-3.61,2.38-2.4,1.22l4.8-3.25-.81,1,7.22-4.76-1.21.34c3.6-2.23,5.21-2.52,8.81-5.7,1.59-1.49-3.6,1.84,0-.81,4.8-3,12-7.47,18-11.48-.81,0,.79-1.08,2.38-2.29l.42.19c6-4.81,2.8-.89,8.8-5.57l-.39.6,1.18-1.81c5.21-4.54,3.51-1.44,9.18-6.64-2.44,1.76-1.66.1,1.49-1.88l-.56.85c1.64-1.23,2.11-1.75,3.28-2.47-.89.87-.22.82,2.23-.95l-1.4,1.54,4.3-3.82c.93-.52,2-1.18,3-1.87l4.63-3.2c-.13-1.13-.26-2.22-.39-3.25l-.15-1.35c0-.28-.06-.55-.08-.8a10.86,10.86,0,0,1,0-2.32s-.88-9.44-1.71-11.53c.58,1.85.1-3.35.7-1.93a62.41,62.41,0,0,1-1.82-12.48l.12.54c-.84-10.71-2.8-18.15-3.42-27.78-.39.49-.76-4.59-1.18-3.28-1.76-9.82-1-18.18-3.21-21.54-.64-4.49-.23-5.38-.42-7.72l.23,1.06c-1.16-8.42-1.47-10.86-2.19-17.13-.55-3.11-1.43-3.5-1.91-9.13.55,1.77.21-.51,0-2.6.21,1.33.38,1.73.27-1a11,11,0,0,1-.4-1.52s0-.14.07-.09c-.54-3.48-.56-2.86-.41-1.23-.06-.08-.11.07-.14.58,0-3.68-1.25-10.12-.74-10.62-.7-5.26-1.42-9.75-2.12-14-.36-2.14-.7-4.21-1-6.3l-.51-3.16c-.16-1.08-.33-2.17-.49-3.28,0-.35.09-.45.17-.33a4.19,4.19,0,0,1,.29.83,30.24,30.24,0,0,1,.64,3.09l-1-7.57c.2-.13.42,1.21.65,3,.08.69.18,1.45.27,2.19s.15,1.18.23,1.65c0-.54,0-1.09-.08-1.64s-.07-1-.18-2c-.19-1.78-.41-3.58-.65-5.36l-3.35.17-3.2.2-4.28.31a85.72,85.72,0,0,1-9,.21l-1.8.39-.52,0a10.73,10.73,0,0,1-3.21.58c-1.24-.33.06-.85-4.26-.68-3.43-.24-9.7.49-14.17.84,2.41,0,1.64.21.61.37-2.16.09-3.42-.24-5.08,0l-.23-.48c.87.43-5.63.68-6.42.91-1.24-.32,3.35-.42,3.88-.72l-13,.5c-4.61.53.86.44-1.34,1-4.08.23-8,.7-12.74.56l1.49.39a125.18,125.18,0,0,1-17.42.42c-57,5.46-11.88,5.28-11.88,5.28C92.17,80.64,103.74,79,130.5,77.76Z"/><path class="cls-2" d="M338,48.46l2.1.06C340.05,48.42,339.52,48.38,338,48.46Z"/><path class="cls-2" d="M240.55,227.62l-.11-.48A2.08,2.08,0,0,0,240.55,227.62Z"/><path class="cls-2" d="M377,91.39l0-.11-.12-.53Z"/><path class="cls-2" d="M313.2,57.1c13.84-.9,22.66-1.24,31.56-1.67,4.45-.22,8.92-.45,14.05-.79l8.28-.6,4.66-.38.21,0H372l.12,0h0v.17l.12,1q.32,2.61.63,5.25c.45,3.51.9,7,1.34,10.56.92,7,1.84,14.06,2.71,20.76,1.56,6.27,2.13,17.61,3.7,25.07l-.1,3a48.62,48.62,0,0,1,1.13,8.24l-.15-.15c.81,3.84,1.13,8.24,1.53,10.14l-.15-.14.63,4.7-.29-.78c1.17,6.72,2,13.68,2.61,19.85l.48-.58c1,13.21,2.67,17.88,3.38,29.82l-.15-.15c3.23,14.81,1.87,23.8,5.08,39.09-.4-1.91-.18.85-.33.71,1,7.1,2,14.69,3.08,14.67.61,5.18.18,4.26-.15,5,.46-.08,1.2,4.4,1.71,8.44l-.4-1.84,1.55,11.58.61-2.39c.48,6.18-.89,1.7,0,7.56l.72-.16c.88,8.52.37,13.64.83,21.94.73,6.62,1.56,13.32,2.43,20.07l1.32,10,.56,3.32L404.33,327l-.63-.34-1.56-.91-3.49-2-13.79-8.1c-9.07-5.4-17.85-10.79-26.08-16.19l-.93-1.21c-.11-1-8.19-3.53-8.86-4.8l-3.39-1.6c-.82-.67-2.63-1.94-1-1.14a36.68,36.68,0,0,0-5.33-2.8l-2.92-2.34c-11.46-7.34-21.88-12.47-34-20-6.81-4.66-16.83-10.73-27.2-16.79-5.19-3-10.46-6.05-15.46-8.89l-7.26-4.11L249,233.81l-.81-.46-.2-.11-.08,0-.16-.08-.65-.32c-.07-.4-.14-.73-.2-1.05-4.43-25.88-5-56.54-9.69-83a11.2,11.2,0,0,0-.62-3.06l-2.92-24.4S219.32,3,223.86,93.65l-.25-.58c1.24,13.39,2.19,21.81,4.21,30.9-.89,1.59,1.25,11,1.3,14.15l-.13-.29c1.84,8,1.4,16.86,3.12,24.61a4.27,4.27,0,0,1-.69-2.22c.85,5.7,2.06,13.49,1.49,14,1.86,13.64,3.94,32.73,6,41.36l-.25-.58c1.3,4.91.9,6.45,1.94,12,0,.31,0,.71-.08.65.25,1,.47,2.12.68,3.37l.15.95.18,1.2c.13,1,.26,2,.4,3l4.18,2.52,3,1.86c1.95,1.18,3.68,2.22,4.94,2.87l0,.5,9.39,5.53-3.45-2.17c1.81-.26,6.7,4.86,13.86,8.3,6.27,3.93,14.09,5.67,20.39,10.12,3.42,1.42-3.22-.92,1.69,1.55-.16.61-2.39-1-1.42.14,4.75,2.53,7.24,5.07,13.14,8.14v.54c7.85,3.72,13.68,8.93,19,11.2,7.85,4.27,4.42,4.27,12.85,8.28l2.77,2.4c3.36,2.13,2.85.8,6.47,3.33-.44.21,4.61,3.15,2.2,2.14,8.23,5.67,17.82,9.68,28.54,17.35,2.85.8,8.28,4.61,10.41,5.2.13.48,11.33,6.88,4.59,3.68-.58-.28-1.54-.87-1.41-.94l-1-.06a43.89,43.89,0,0,0,4.1,2.8c.68.42,1.37.82,2.06,1.2l2.8,1.56c5.12,2.87,9.73,5.31,14.7,8.25q-.19-1.62-.39-3.27c.09,1,.19,2.11.28,3.1-2.49-1.57-4.2-2.65-2.34-1.79l1.94,1.17-1.08-9.38.73,2.87-1-9.11-.36-3.52-.25-2.55-.31,1.46c-.35-5,.24-6.87-1.11-12.42-.68-2.5-.07,4.81-.85-.44-.48-6.71-1.19-16.76-2.07-25.29-.44.86-.7-1.43-1.09-3.77l.43-.33c-1.73-9,.63-3.44-1-12.34l.41.75-1.25-2.25c-1.89-8,.44-4.48-1.9-13.31.51,3.54-.82,1.79-1.14-2.61l.58,1.06a48.34,48.34,0,0,1-.77-4.82c.41,1.41.74.68.24-2.86l.84,2.31-1.63-6.63c-.14-5.25-1.74-13.41-1.36-15.62,0,0-1-11.21-2-13.69.7,2.2.12-4,.84-2.29-.84-2.84-2.26-11.34-2.16-14.82l.14.64c-1-12.72-3.33-21.56-4.05-33-.48.59-.9-5.45-1.41-3.88-2.1-11.68-1.18-21.6-3.82-25.59-.76-5.33-.26-6.4-.48-9.17l.26,1.26c-1.38-10-1.75-12.9-2.59-20.35-.65-3.69-1.71-4.15-2.27-10.84.65,2.11.25-.6,0-3.09.25,1.58.45,2.06.33-1.24A12.58,12.58,0,0,1,383.7,85s0-.16.08-.1c-.64-4.14-.67-3.4-.49-1.47-.08-.09-.13.08-.17.69,0-4.37-1.48-12-.87-12.62-.6-4.53-1.22-8.59-1.83-12.41q-.46-2.87-.92-5.59c-.38-2.52-.76-5-1.14-7.47L368,47.1c-.6-.14-.29-.32.54-.52.41-.11,1-.21,1.6-.31l1-.15.7-.08.85-.09-7.85.71c0-.51,4.24-.61,6.51-.88-8.88-.15-18.12,2.17-28.52,2.2l-2.12.56-.62,0c.05.21-2.25.67-3.78.85-1.49-.33,0-1-5.09-.61-4.08-.11-11.49,1.08-16.78,1.71,2.87-.14,2,.17.75.42-2.56.2-4.07-.12-6,.21l-.29-.57c1,.48-6.65,1.1-7.58,1.41-1.49-.33,3.95-.67,4.56-1l-15.39,1.24c-5.45.85,1,.48-1.54,1.19-4.83.48-9.52,1.25-15.1,1.31l1.8.39A147.77,147.77,0,0,1,255,56.38c-67.37,9.33-13.83,6.9-13.83,6.9C267.87,62.44,281.51,59.89,313.2,57.1Z"/><path class="cls-2" d="M335.78,65.86l1.76,0C337.51,65.83,337.06,65.79,335.78,65.86Z"/><path class="cls-2" d="M253.75,216.25c0-.13-.06-.29-.09-.41A2.39,2.39,0,0,0,253.75,216.25Z"/><path class="cls-2" d="M365.72,105.2v-.09l-.1-.45Z"/><path class="cls-2" d="M315,73.08c11.07-.72,18.31-1,25.45-1.36,3.57-.17,7.12-.35,11.1-.6l6.37-.44,3.3-.25.13,0,.06.1c.32,2.74.65,5.52,1,8.32.36,3,.74,5.92,1.11,8.88.76,5.91,1.52,11.79,2.24,17.42,1.29,5.27,1.76,14.79,3.06,21l-.08,2.49a41.28,41.28,0,0,1,.94,6.92l-.13-.13c.67,3.23.94,6.92,1.27,8.52l-.12-.12.51,3.95-.23-.66c1,5.64,1.68,11.49,2.16,16.66l.4-.48c.8,11.09,2.22,15,2.8,25l-.13-.12c2.68,12.43,1.54,20,4.21,32.81-.33-1.6-.15.72-.27.6.83,6,1.66,12.33,2.56,12.32.5,4.35.14,3.57-.14,4.18.39-.07,1,3.69,1.42,7.08l-.33-1.54,1.29,9.72.5-2c.4,5.19-.74,1.42,0,6.34l.6-.13c.72,7.15.3,11.45.67,18.41.61,5.56,1.29,11.19,2,16.85l1.08,8.27.46,2.79-1.9-1.06-.52-.3-1.23-.73-2.9-1.76-11.45-7c-7.54-4.66-14.83-9.31-21.65-14l-.77-1c-.08-.85-6.82-3.09-7.36-4.17l-2.82-1.39c-.68-.57-2.19-1.67-.78-1a30.68,30.68,0,0,0-4.44-2.43l-2.41-2c-9.52-6.33-18.18-10.8-28.28-17.31-5.43-3.85-13.33-8.84-21.58-13.87-4.13-2.52-8.34-5-12.38-7.44L263.9,225l-2.79-1.64c-1.15-.68-1.15-.65-1.58-.88l-.16-.85c-.1-.66-.19-1.3-.29-1.91-3.67-21.73-4.13-47.47-8-69.7a10.25,10.25,0,0,0-.51-2.57L248.14,127s-11.91-99.3-8.2-23.21l-.2-.48c1,11.24,1.8,18.31,3.48,25.94-.74,1.34,1,9.22,1.07,11.88l-.1-.24c1.52,6.75,1.15,14.15,2.57,20.66a3.78,3.78,0,0,1-.56-1.87c.7,4.79,1.7,11.33,1.22,11.75,1.55,11.45,3.26,27.48,5,34.72l-.21-.48c1.08,4.12.75,5.41,1.61,10,0,.27,0,.6-.07.55.26,1,.49,2.31.7,3.69.1.69.2,1.41.3,2.14l.4,3.2,5.1,3.23c1.31.83,2.48,1.54,3.36,2l0,.42,7.8,4.78-2.86-1.87c1.52-.19,5.55,4.18,11.51,7.16,5.2,3.4,11.74,5,16.95,8.81,2.85,1.24-2.68-.82,1.4,1.32-.14.51-2-.87-1.19.1,3.95,2.19,6,4.36,10.9,7v.45c6.54,3.25,11.35,7.7,15.81,9.69,6.52,3.69,3.64,3.64,10.66,7.13l2.29,2c2.79,1.84,2.37.72,5.38,2.9-.37.16,3.82,2.7,1.82,1.82,6.82,4.88,14.81,8.39,23.69,15,2.38.72,6.88,4,8.66,4.53.1.4,9.41,5.94,3.8,3.15-.48-.24-1.28-.75-1.17-.81l-.83-.07a40.25,40.25,0,0,0,3.4,2.42c.57.36,1.14.7,1.71,1l2.42,1.41c4.26,2.49,8.09,4.6,12.21,7.14-.1-.9-.21-1.81-.32-2.73.07.84.16,1.76.23,2.59-2.08-1.36-3.5-2.3-1.95-1.55l1.62,1-.89-7.86.61,2.42-.81-7.64-.32-3.07-.21-2.15-.25,1.23c-.3-4.21.21-5.77-.92-10.42-.57-2.1-.06,4-.71-.38-.39-5.63-1-14.06-1.71-21.22-.37.72-.58-1.21-.9-3.17l.36-.28c-1.44-7.52.52-2.88-.8-10.35l.35.63-1.05-1.89c-1.57-6.71.37-3.76-1.57-11.18.42,3-.69,1.5-.95-2.19l.48.89c-.32-2-.56-2.69-.64-4,.35,1.19.62.58.2-2.4l.71,1.94-1.36-5.56c-.11-4.41-1.44-11.27-1.12-13.12,0,0-.85-9.41-1.69-11.49.58,1.84.11-3.35.7-1.92a62.15,62.15,0,0,1-1.78-12.45l.11.54c-.81-10.68-2.76-18.1-3.35-27.7-.4.49-.75-4.58-1.18-3.27-1.74-9.79-1-18.12-3.16-21.48-.63-4.47-.21-5.36-.4-7.69l.22,1.05c-1.14-8.39-1.44-10.83-2.14-17.08-.55-3.1-1.43-3.49-1.89-9.1.54,1.77.21-.51,0-2.6.21,1.33.38,1.73.27-1a10.7,10.7,0,0,1-.39-1.52s0-.13.07-.08c-.53-3.48-.56-2.86-.42-1.23-.06-.08-.1.07-.13.58,0-3.67-1.23-10.09-.72-10.6-.58-4.44-1.18-8.34-1.78-12l-.88-5.4-.22-1.35L367,67.86l-.54-3.68-5.4.52c-.65-.09-.37-.25.69-.45s2.79-.42,4.77-.62l-8.19.72c0-.21.9-.34,2-.44l2.58-.21,2.61-.22c-1.4,0-2.88.08-4.39.16l-1.59.09-1.43.11c-1.91.17-3.85.4-5.84.64a106,106,0,0,1-12.44,1l-1.78.47-.52,0a10.49,10.49,0,0,1-3.17.71c-1.26-.27,0-.85-4.28-.5-3.42-.1-9.64.89-14.08,1.42,2.41-.11,1.65.15.63.35-2.15.18-3.42-.1-5.07.18l-.24-.47c.88.4-5.58.92-6.36,1.18-1.25-.27,3.32-.57,3.83-.88l-12.92,1c-4.57.71.87.4-1.29,1-4.06.4-8,1-12.67,1.09l1.5.32a124.9,124.9,0,0,1-17.34,1.15c-56.55,7.81-11.6,5.76-11.6,5.76C276.92,77.55,288.37,75.41,315,73.08Z"/><path class="cls-2" d="M164.06,311.38l1.86-.9C165.84,310.41,165.35,310.61,164.06,311.38Z"/><path class="cls-2" d="M201.48,474.21l-.43-.25A2.17,2.17,0,0,0,201.48,474.21Z"/><path class="cls-2" d="M231.16,284.7l-.1-.05-.49-.23Z"/><path class="cls-2" d="M146.43,330.37C170,316,176.69,313,200.71,297.51c4.54-2.8,9.18-5.72,13.8-8.65l6.9-4.39,3.42-2.19.77-.49.06-.05.12-.1.17.06,0,0,.06,0,.24.14,1,.56,3.8,2.2c5.85,2.53,15.07,8.88,21.85,12.11l2.26,1.86a48.66,48.66,0,0,1,7.13,4.05l-.21,0c3.49,1.67,7.13,4.05,8.86,4.88l-.2,0,4.06,2.33-.79-.25c6,3.1,11.94,6.6,17.1,9.85l-.15-.73c10.91,7.16,15.59,8.61,25.36,15.22l-.2,0c13.54,6.32,19.75,12.8,33.64,19.42-1.73-.82.57.66.37.7,6.15,3.45,12.69,7.22,13.33,6.35,4.42,2.63,3.44,2.42,3.81,3.12.21-.42,4.16,1.69,7.63,3.7l-1.68-.78,10,5.72-1.5-1.92c5.13,3.33.79,1.72,5.93,4.51l.31-.67c3.08,1.89,5.52,3.61,7.84,5.32l.43.33.21.18.35.35.57.61a9.53,9.53,0,0,1,.71,1l-1.25.5-.73.46L394.45,384l-5.38,3.55-10.79,7.24L356.7,409.45c-14.33,9.74-28.47,19.22-42,27.37l-1.46.3c-.95-.34-6.63,5.79-8.05,5.83l-2.87,2.33c-.94.45-2.85,1.51-1.42.36a35.31,35.31,0,0,0-4.76,3.54l-3.33,1.59c-11.42,7.05-20.42,14.12-32.32,21.71-3.79,2.18-8.34,5-13.26,8.2l-7.61,5-3.92,2.63-1,.67-.27.19-.49.37L208.8,472.31c-21.63-14.2-44.08-34.46-66.32-48.89a11.57,11.57,0,0,0-2.62-1.61l-19.54-14.32s-94.88-69.22-26.58-11.41l-.59-.22c10.48,8.14,17.18,13.11,25.1,17.77.53,1.72,8.75,6.48,11.06,8.59l-.29-.1c7,4.07,13.07,10.34,19.82,14.31a4.17,4.17,0,0,1-2.07-1c4.68,3.23,11.11,7.59,11.08,8.35,11.08,7.83,26.24,19.19,33.86,23.48l-.58-.21c4.4,2.36,5.25,3.68,9.93,6.66.2.24.49.51.42.5,4.76,2.62,12.81,9.16,16.51,11.49l0,.51,8.75,6.23L223.53,490c.69-.05,1.76.74,3.2,1.94l2.44,2.08c.17.15.6.49,1,.77l1.14.9,2.46,1.88c1.05-.67,2.14-1.38,3.25-2.14l.82-.57.7-.5,1.06-.82c6.17-3.89,11-10.13,17.68-13.82,2.72-2.43-2.17,2.48,2.11-.83.48.4-1.9,1.7-.48,1.33,4.28-3.15,7.6-4.26,12.85-8.2l.47.25c6.66-5.4,13.79-8.33,18.09-12.13,7.13-5.16,5.69-2.08,12.84-7.88l3.32-1.43c3.33-2.07,1.92-2.19,5.72-4.32,0,.48,4.76-2.76,2.84-1,8.57-4.89,16.2-11.71,27.61-18,1.92-2.2,7.62-5.39,9.06-7,.47.09,10.95-7.14,5.23-2.5-.49.39-1.43,1-1.44.84l-.48.87c6.65-3.34,11-7.78,17.14-11.69-1.89,1.07-4.28,2.69-2.84,1.36L375,405.7l-1,1.1,8.58-5.37-1.43.37c4.27-2.52,6.17-2.8,10.47-6.43,1.9-1.71-4.28,2,0-1l7.14-4.22,1-.59,1.64-1,3.59-2.25,7.51-4.72-11.07-6.75c.44.57-.25.32-1.43-.29l-1.44-.75-1.5-.81v-.54c-8.05-4-2.31-2.55-10.24-6.64l.85.12-2.53-.35c-7.38-3.29-3.23-3-11.56-6.49,3.08,1.73.91,1.74-2.73-.65l1.18.17a46.74,46.74,0,0,1-4.24-2.28c1.36.52,1-.18-2.09-1.91l2.32.72-6.17-2.68c-4.2-3-11.54-6.68-13-8.3,0,0-9.39-5.91-11.94-6.6,2.14.76-3-2.5-1.28-2.05-2.73-1-10.24-5-12.9-7.19l.58.28c-10.55-6.85-18.87-10.3-28.25-16.59.16.72-4.82-2.56-3.9-1.21-10.4-5.35-17.6-12-22.32-12.33-4.63-2.6-5.16-3.64-7.47-5.12l1.15.54c-8.65-4.91-11.15-6.36-17.49-10.16-3.28-1.69-4.28-1.13-9.85-4.7,2,.75-.32-.56-2.45-1.82,1.39.75,1.89.88-.77-1a12.09,12.09,0,0,1-1.71-.71s-.1-.12,0-.13l-2.86-1.56a7.53,7.53,0,0,0-1-.51,12.13,12.13,0,0,0,2,1.31c-.15,0,.05.18.74.72-1-.67-2.09-1.41-3.34-2.19l-2.05,1.22-2,1.25L219,277.24c-1.6,1-2.82,1.65-3.15,1.52-10.44,6.71-17.59,12-26.2,17.69-1.17.32.71-1.22,3.18-2.92l-6.14,4c-.22-.46,3.41-2.47,5.27-3.75-7.83,3.93-14.82,10.21-23.88,15l-1.59,1.46-.55.27c.13.16-1.66,1.62-2.91,2.48-1.46.39-.45-.91-4.73,1.79-3.62,1.76-9.53,6.2-13.85,9.18,2.43-1.44,1.79-.75.84,0-2.14,1.35-3.61,1.75-5.17,3l-.52-.38c1.14,0-5.29,4-6,4.72-1.46.39,3.13-2.4,3.49-3l-12.87,8.13c-4.36,3.25,1.13,0-.79,1.77-4,2.63-7.73,5.45-12.58,8.05l1.75-.47a142.21,142.21,0,0,1-17.4,10.65c-54.5,39.07-8.87,12.43-8.87,12.43C109.32,355.82,120.05,347.32,146.43,330.37Z"/><path class="cls-2" d="M176,323.06l1.55-.76C177.5,322.25,177.1,322.41,176,323.06Z"/><path class="cls-2" d="M207.3,459.16l-.36-.21A1.92,1.92,0,0,0,207.3,459.16Z"/><path class="cls-2" d="M232.1,300.76l-.08-.05-.4-.18Z"/><path class="cls-2" d="M161.28,338.93c19.66-12,25.3-14.53,45.37-27.47,3.8-2.34,7.68-4.77,11.54-7.22l5.77-3.68,2.86-1.83.64-.41,0,0,.1-.08.14.05,0,0,0,0,.21.12.81.47,3.17,1.83c4.89,2.12,12.6,7.43,18.26,10.13l1.9,1.56a39.87,39.87,0,0,1,6,3.38l-.18,0c2.92,1.4,6,3.39,7.41,4.08l-.17,0,3.39,1.94-.66-.2c5,2.59,10,5.51,14.3,8.23l-.13-.61c9.12,6,13,7.19,21.2,12.72l-.17,0c11.31,5.29,16.5,10.71,28.12,16.24-1.45-.69.47.55.3.58,5.15,2.89,10.62,6,11.15,5.31,3.7,2.2,2.87,2,3.18,2.61.18-.35,3.48,1.41,6.38,3.09l-1.41-.65,8.36,4.78-1.25-1.6c4.28,2.78.66,1.44,5,3.77l.26-.56c2.58,1.58,4.62,3,6.55,4.45l.37.26.17.16.29.29a6.89,6.89,0,0,1,.47.51,6.32,6.32,0,0,1,.6.8l-1,.42-.61.38-1.37.89-4.5,3-9,6.05L337,405c-12,8.14-23.8,16.07-35.13,22.88l-1.23.25c-.8-.28-5.54,4.84-6.73,4.87l-2.4,2c-.78.37-2.38,1.27-1.18.3a30.11,30.11,0,0,0-4,3l-2.77,1.33c-9.55,5.89-17.07,11.8-27,18.15-3.17,1.82-7,4.19-11.08,6.85l-6.36,4.18-3.28,2.2-.83.55-.22.17-.42.3-21-14.39c-18.08-11.88-36.84-28.81-55.43-40.87a9.3,9.3,0,0,0-2.19-1.35l-16.33-12s-79.31-57.86-22.22-9.55l-.49-.17c8.76,6.79,14.36,10.95,21,14.84.45,1.44,7.31,5.42,9.24,7.18l-.24-.08c5.88,3.41,10.93,8.64,16.57,12a3.52,3.52,0,0,1-1.73-.84c3.91,2.69,9.28,6.34,9.26,7,9.26,6.54,21.93,16,28.3,19.62l-.49-.17c3.69,2,4.39,3.08,8.31,5.56.16.21.41.43.35.42,4,2.2,10.7,7.66,13.79,9.61v.42l7.32,5.21-2.68-2c.58,0,1.48.61,2.69,1.62l2,1.74.8.65.95.75c.67.5,1.35,1,2.06,1.57.87-.56,1.79-1.16,2.71-1.79l.69-.48.59-.42.88-.68c5.16-3.25,9.23-8.47,14.78-11.55,2.27-2-1.82,2.07,1.76-.7.4.34-1.59,1.42-.4,1.12,3.57-2.64,6.36-3.57,10.74-6.86l.4.21c5.56-4.52,11.52-7,15.11-10.14,6-4.31,4.76-1.74,10.74-6.59l2.77-1.19c2.79-1.73,1.61-1.83,4.78-3.62,0,.4,4-2.3,2.38-.86,7.16-4.09,13.54-9.79,23.07-15,1.61-1.83,6.38-4.51,7.58-5.88.39.08,9.15-6,4.37-2.09-.41.34-1.19.84-1.2.71l-.4.72c5.56-2.78,9.15-6.5,14.32-9.76-1.58.89-3.58,2.24-2.37,1.14l4.77-3.08-.81.92,7.17-4.49-1.19.3c3.57-2.1,5.16-2.33,8.75-5.37,1.59-1.42-3.58,1.7,0-.8l6-3.53.83-.49,1.37-.85,3-1.88,6.28-3.95-9.25-5.64c.37.48-.21.27-1.2-.25l-2.45-1.29v-.46c-6.73-3.34-1.93-2.13-8.55-5.55l.7.1-2.11-.29c-6.17-2.75-2.7-2.54-9.66-5.42,2.57,1.44.76,1.44-2.28-.55l1,.14a39,39,0,0,1-3.54-1.9c1.13.43.82-.15-1.75-1.6l1.94.6-5.16-2.24c-3.5-2.54-9.65-5.58-10.9-6.94,0,0-7.85-4.94-10-5.52,1.79.64-2.54-2.08-1.07-1.7a59.24,59.24,0,0,1-10.78-6l.49.23c-8.82-5.73-15.78-8.61-23.62-13.87.14.61-4-2.14-3.26-1-8.69-4.47-14.71-10.06-18.66-10.31-3.87-2.17-4.31-3-6.24-4.28l1,.46c-7.23-4.11-9.32-5.32-14.61-8.49-2.75-1.42-3.59-1-8.24-3.93,1.7.62-.27-.47-2-1.52,1.16.62,1.58.73-.64-.85a10,10,0,0,1-1.43-.58s-.09-.11,0-.11l-2.39-1.31a5,5,0,0,0-.86-.42,10.86,10.86,0,0,0,1.64,1.09c-.12,0,0,.15.62.6-.79-.56-1.75-1.18-2.8-1.83-1.09.64-2.34,1.41-3.41,2.07l-2.18,1.34c-1.34.81-2.36,1.38-2.63,1.28-8.73,5.6-14.71,10-21.91,14.78-1,.26.6-1,2.66-2.45l-5.13,3.34c-.18-.39,2.85-2.07,4.41-3.14-6.55,3.28-12.39,8.53-20,12.53L178,322.08l-.46.22c.12.14-1.38,1.36-2.43,2.08-1.22.33-.37-.77-3.95,1.49-3,1.48-8,5.19-11.58,7.68,2-1.2,1.5-.63.7,0-1.79,1.13-3,1.47-4.32,2.47l-.43-.32c.95,0-4.42,3.36-5,3.94-1.22.33,2.62-2,2.92-2.52l-10.76,6.8c-3.64,2.71.95,0-.66,1.48-3.34,2.19-6.46,4.55-10.51,6.73l1.46-.4a117.12,117.12,0,0,1-14.55,8.9c-45.55,32.66-7.4,10.39-7.4,10.39C130.27,360.2,139.23,353.1,161.28,338.93Z"/><polygon class="cls-2" points="44.31 410.83 43.73 411.7 44.62 416.24 44.31 410.83"/><path class="cls-2" d="M45,457.61c.77,4.16,1.41,12.15,2.66,12.25l-1.32-7.54c.91-1.09.71-6.07.28-10.46l.2,5c-.16-1.28-.74-.44-.9-1.73.27-7.65-1.08-9.56-.25-16.65l.11.39L45,433.32c.1-1.77.56-1.08.74-.52a120.92,120.92,0,0,1-1.39-15.43c-1.56,5.26,1.74,14.73.18,20L44.4,437C45.21,443.43,44.32,451,45,457.61Z"/><path class="cls-2" d="M45.72,432.8l.06.43S45.79,433,45.72,432.8Z"/><path class="cls-2" d="M50.78,702.34l.28.26C51,702.2,50.84,701.83,50.78,702.34Z"/><path class="cls-2" d="M51.92,619.88l0,.41C52.29,620.8,52.19,620.53,51.92,619.88Z"/><path class="cls-2" d="M178.51,501.48l-1.08-1.26A2.06,2.06,0,0,0,178.51,501.48Z"/><path class="cls-2" d="M88.81,436.79l-.14-.09Z"/><path class="cls-2" d="M126.66,470.44l0,.41C126.92,470.82,126.88,470.67,126.66,470.44Z"/><path class="cls-2" d="M97.23,450.2c-.76-.65-1.51-1.27-2.32-1.86A10.63,10.63,0,0,0,97.23,450.2Z"/><path class="cls-2" d="M89.78,437.3c-.3-.14-.64-.32-1-.51A8.59,8.59,0,0,0,89.78,437.3Z"/><path class="cls-2" d="M170,502.28l.6,1.54C170.71,503.57,170.31,502.9,170,502.28Z"/><path class="cls-2" d="M89.65,445.65a8.38,8.38,0,0,0-1.33-1.35A4.36,4.36,0,0,0,89.65,445.65Z"/><path class="cls-2" d="M45.23,464.86c0-1-.09-2.16-.22-3.54A20.43,20.43,0,0,0,45.23,464.86Z"/><path class="cls-2" d="M239,677.58a1.94,1.94,0,0,0-.46-.56C238.81,677.78,238.94,677.8,239,677.58Z"/><path class="cls-2" d="M217.19,561.65l-.1-.37a3.38,3.38,0,0,0-.05.5Z"/><path class="cls-2" d="M223.75,595.46a3.23,3.23,0,0,0-.27-.41C223.62,595.36,223.7,595.43,223.75,595.46Z"/><path class="cls-2" d="M211.41,536.26a7.88,7.88,0,0,0-.53-1.13Z"/><path class="cls-2" d="M196,521.76c.72.92-.42.46-1.56,0,4.8,4,7.13,4.27,11.93,8.67l-2.21-2.13c1.19.6,2.63,1.44,4.13,2.4.75.49,1.51,1,2.26,1.53l.91.64.29.25c0,.15,0,.3,0,.44,0,.45.08.88.12,1.3a19.67,19.67,0,0,1,.08,2.47l-.5-1.09c1.45,3.77,1.3,10.16,2.22,11.71.08-1.67.62,0,.51-2.6l2.62,9.79-1.06,1,1.39,5.14c.23-1.38.95,7.06,2.1,7,.13,3.06-1.14-1-1.8-2,.9,2.87.45,3.29,1.65,5.88l-.49,3.11,2.21,7.51c-.18-.37-.16.12-.33-.23,1.55,3.33,1.17,9,3.54,13.15-.1-.21-.13-.14-.22-.19,1.29,2.28,1.84,8.42,2.08,10.66.95,3.91,1.32,1.45,1.79,1.53,1.9,11.49,1.28,7.83,4.34,17.2-.22,6-3.4-6.39-2.93,1.09.82.86,2.29,5.84,3.63,11.51.54,5.33,1.86,14.16,1.92,19.41l.76-.69,1.88,7.27-2.05-3.94c.52,1.11,1.77,4.71,2.65,7.09,2.21,7.51-1,4.69,1.39,10.38a3.37,3.37,0,0,1-.17.61c1,1.79,1.74,6.86,3.08,12.58l-1.48-1.8-.48-3.79c-.69,2.22,1.36,6.16,2,9.82,1.1,3.74,1.64,1.68,2.35,3.65.21,1.39.93,3.39.82,4.54.3,3.42-1.23.61-1.9-.36,1.68,2.69,1.73,3.71,3.41,10.1-.46.44-.79,0-1.06-.83a7.73,7.73,0,0,0,1.47,3.09L247,716.9c0,.43.06.84.11,1.23,0,.23,0,.45.07.66a2.28,2.28,0,0,0,.2.66c.2.45.55,1,1,1.75-.16.3-.54.62-1.47.81a7.21,7.21,0,0,1-.8.12,8.24,8.24,0,0,1-1.09,0,31.39,31.39,0,0,1-3.15-.17c2.42-.45-7.71-.35-10.4-1.23,3.1,0-1.38-1.74.54-2.29-7.12-.86-2.93,1.14-8.73,1l2.42-1.25c-5.61.26-1.4.66-7.12.74,1.6-.3-2.5-.53.9-.77-7.4-.6-5.48-.36-12-.93l-.62,1.31a6.25,6.25,0,0,1-3.59-.92c.91,0,2.32.17,2.2,0-2.48-1.32-4.21.4-7.1-.85.7.47,1.49,1.11-1.22,1,.92-.77-4.09-1-4.27-1.38,1.68.67-5.81-.1-6.23.77-3.09-.82,1-.59,1.22-1-2.63.89-10.93-.54-13.33-.09-.05-.08-.17-.15-.16-.2-3.34.43-8.83.24-15.46.75l2.3-.63c-6.61-.75-4.13,1.37-9.63,1,1.23-1-9.11-.48-6.58-1.55-3.32.42-6.83.48-9,1.3-3.1-.82,6-1.13,1.73-1.72l-4.71.29-.8-.65c-.21.44-4.31.21-4.12.58-.68-.76-2.53-1.38-2.29-1.91-3,0-7.08-.91-9.59-.44l-.19-.36c-2.93,1.14-9-.3-10.53,1l-1.78-.86c-4.51-.15-3.74,1.29-5.85,1.49-1.8-.06-4,0-5.9-.28,5.92-.52-2.89-1.25-4.08-1.82-2.31-.17-9.11-.48-11,.07,2.82-.52,1.13-1.2,6.13-.95-2.59-1.5-7.61-.16-13.21-.7l.1-.62c-8-.09-8.26,1-11.9,1.82-.43-.41-.33-.65,0-.87a5.4,5.4,0,0,1,.79-.33l1.45-.41L59,710l-1-.12c-.59-.07-1.2-.12-1.84-.16q0-1.14-.09-2.34c-.06-1.2-.12-2.41-.17-3.61-.12-2.46-.24-4.87-.26-7,.49-1.91.84-.67,1.14,1.32-.77-6.19-.26-13.88-1.74-17.75.59,1.52.29-2.5.49-4.8a.78.78,0,0,1-.63-.7,87.11,87.11,0,0,1-1.05-16.6l.45,1.59c-.06-10.25-2.54-14.69-1.85-25.9.23-2,1.18,2,1-2.07-.56-2-1.59-1.29-1.44-6.52l.9.33-1-3.53c-.69,1.85-.27,7.65-1.21,3.61.7-4.69-.95-4.05-.12-9.75a15.43,15.43,0,0,0,1.25,3.92c.72-11.91-1.34-16.6-.55-28.67-.88-6-1.24-13.68-2-17.81.91.32,1.7.25,2.48,3,0-5.12-2.12-7.47-.9-11.08-1.3-2.42-1.18-14.18-2.94-15.36.35-.22-.14-5.51,1-.17-.76-7,1.24-9.24,1.14-12.44-.1-1.8-1,2.09-1.17-2,.05-.51.23-.63.28-1.14l-.44-1.56c.35-1.65.9,1.75,1.35,1.9.2-5.75-1.26-9.45-1.56-16.23l.33,1.15-.13-6.91.11.39-.76-5.56.45.16a27.4,27.4,0,0,1-.55-3.38l.56.56c-.9-1.74-1.54-8.31-1.64-11.52l.23-.62-1.32-7.54c.47-4.05,1.45,5.11.81-2.88l1.18,2c-.6-5.68,0-6.54-.51-10.42-.52,1.77-.37,4.47-.92,2.49,1.16-4.51-.53-7.13-1.18-11.41.09,2.18.12,3.65.81,5.12.05,2.3-.57.85-.58,2.26l.72,3.25-.74.95L46.2,482c-.9-.32,0,5.14-1,3,.49,3.89-.09,6.14.92,9.68-.47,2.65-.78-4.16-.79-1.35,1.17,15.58,1.48,31.72,1.62,48l-.45-1.57c.45,1.57.84,3.65,1.17,4.82-.64,2.78-1.26,13.45.2,17.17-.06.52-.29-.29-.4-.68.31,5.41-.36,15.19,0,22.89,1.52,3.22-.57,11.61,1.46,14.48l-.44-1.59c.46-2.64,1.45,3.7,2,4.77-1.21,2.2-1,.17-2.06,2.78l.36-3.06-1,.7c3,9.71-.72,18.25,1.41,24.28-.12-.36-.28-.26-.4-.66-.47,4.06.93,6.87,1.37,9.84-.51.36-.9-1.75-1.34-3.3-.21,7.13,1.54,19.06.93,26.93.78,2.75.91-1.07,1.53,1.79-.13,2.43-.65,4.17-1.09,1.19-1.11,6.82,1.48,22.39.57,32.81.93,5.44,1.18,2,1.93,10.39-.56-1.95-1.66,2-1.86-3l-.56-.58c0,1.48.05,3,.07,4.62.08,2.9.16,5.86.24,8.78l4.42.26,2.18.11,1.69.08c1.42,0,2.78.06,4,0a27.25,27.25,0,0,0,6.22-.63c.19,1.16,1.5.32,4.6,1.13,1.29,0-.11-.18-.62-.29,3.12-.78,4.62.33,6.81.32l-.79.15,6-.33c1,.21,2.47.52,2.66.88v-.8c3.22.2,1.49,1.12,5.51,1.16l-.81-.65c2.52.53,6.63,0,7.11.86.1.18-.4.08-1.3,0,3.9,1.46,10.31.25,15.19,1.12l-1.17-1.37c4.81-.1,2.91.45,2.7.89,3.21.2,3.88.66,8.09,1.07,2.11-.2,1.12-.41,1.82-.74l4.29.59-2.82.52c6.75-1.46,16.62,1.26,21.14-.18,2.5.53-2.3.63-.81,1,7.81,1.32,17.63-.13,24.12,1.24,10.6,1.59,22.92,1.47,34.71,2.84l-.19-.36,8.4.81c2.32-.63,8,.09,11.63-.59-.31.25.42.72-.4.87,3.59.12,7.5,0,9.59.59l-1.21.22c2.7.24,5.77.49,8.79.69,1.88.12,8.91.53,13.2.71-.47-2.24-.91-4.27-1.32-6l-.57-2.38-.26-1-.13-.46-.09-.27c-.59-2.65,0-2.7.32-3.49a66.52,66.52,0,0,0-3-11,23,23,0,0,1,0-3.21L249.2,698c-.24-1.91.6-.56.53-2.1-2.33-6.84-3-15.23-4-20.15l-.27.78c-.72-2-.89-6.06,0-3.71-1.36-9.87-4-14.25-6.34-27.5,1.16-2.13-2.71-11.83-1.39-14.09-1.49-5.5-1.49-9.22-3.22-12.93.15-.15.13-.64.33.24.21-2.33-1.67-9.6-3.16-15.11l.45-.41c-1.48-1.81-3-11.54-4.49-13.35.13-.66.67,1,1,1.73.49-3.12-1.47-5-2-8.82.33.24.43-.93.78-.18-1.17-12.71-6.64-30.45-8.91-46.9-.41-2.27-.62-1.8-.86-1.51s-.25.25-.41-.06a4.21,4.21,0,0,1-.28-.8c-.08-.29-.27-1.23-.46-2.32,0-1.36.43-.63.81.06s.67,1.19.3-1.49c-.09-.08-.33-.27-.61-.48-1.12-.59-2.23-1.24-2.56-1.37a15.27,15.27,0,0,1-1.37-.79c-.89-.59-1.82-1.32-3.3-2.43.76.09.41-.47,2.68.84-1.47-1.62-7.9-4.57-10.82-7.81,0,.41-.78.12-1.54-.18-5.68-2.86-11.12-9.19-11.92-9.09,0,0-1.87-1.15-.39.06-1.86-1.36-4.46-3.43-3.67-3.54a15.39,15.39,0,0,1-3.8-1.7l1.18,0c-.93-.49-2.15-.86-3-1.4l1.1,1.28c-1.83-2-6.79-3.93-5.94-4.85l.74.49-3.68-3.33a21.43,21.43,0,0,1-6.4-3.56c-.28-1.79-6.69-5.14-10-7.71l.41-.25c-3-1.42-9.74-6.56-8.62-5.49-2.61-1.86-6-4.64-4.42-4-2.27-1.31-6.74-4.54-8.29-4.73l-3.63-3.93c-3.49-.53-8.18-6.58-9.42-5.38-2.22-1.92-1.45-1.83-2.93-3.25a53.31,53.31,0,0,1-10.47-6.83v-.21c-3.35-2.57-7.88-4.77-12.75-8.15l-.26-1.78c-2.63-1.66-3.83-1.29-6.06-3.22-.44-.56.13-.24.81.16a44.3,44.3,0,0,1-7.08-5.55c-4.17-1.85-6.76-4.12-10.55-5.6-2.16-2.95,4.51,2.61,2.71,0-4.8-4.19-10.44-7.45-16.45-11.06-.34-.55.41-.26.81-.32,0,0-13.34-5.73-11.91-3.19-1.92-.34-3.83-1.09.61,3,1.9.75,6.8,3.51,7.1,4.89l.81-.52c6.74,4.32-.5,1.9,7.33,7.49l-1.48-1.42c1.5,1,3,1.39,4.51,2.82.35.56-.78-.1-1.54-.4l7.18,3.66c0,.62-.44.66-2,.06,6,4.23-.25-2.19,6.81,3.31,1.08,1.26-.79.11-1.92-.34,2.91,3,5.58,4.09,9.34,6.18-.42.69-2.65-1-.09,1.44-.33-.75-.28-1.58,2-.07-1.53-.1,1.43,1.56,3.46,3.26-.28-.54.11-.73,1-.24,1.13.65,1.84,1.56,3.34,2.57l-2.17-2.53c4.14,2,5.56,4.49,8.17,6.78a4.79,4.79,0,0,1-1.46-.68c2.77,2.39,5.45,5.1,9.6,7.22l-.38-.15c7.51,4.42-1.4-2.64,7.24,2.63,2.61,2.08-2.81,1.21,4,4.91-2.55-2.67,5,1.54,8.72,3.85l-4.58-1.38c1.43,1,4.16,2.47,4.86,3.16l0-.41c.5-1.26,4.48,3.44,7.53,4.64-4.25-.83-4.23-1.24-5.86-.2a33.34,33.34,0,0,1,11,5.76l-4.57-1.57c5.93,4.62,14.3,8.12,20,10.77-1.95-.14-.1,1.64-2.8.79l6,4L155.6,494c3.07.79,5.24,3.32,5.72,1.82a4.18,4.18,0,0,1-1.89-1c.41-.26,2-.28,5,2,1.82,1.76-1.54-.4-1.22.36,2.3.9,1.85,1.77,4.12,2.87l-1.43-1.81c1.92.32,3.37,2.37,5.62,3.45-2.62-1.42-2.12-.45-1.53.62l-.06-.19c1.49,1,3.77,1.9,4.49,3l-1.94.08,2.67.84c.73.71,1.06,1.47-.44.67,6.27,5.39,1.3-2.23,9.44,5-.41.26-1.55-.19-3.77-2.11-.81.31-.46,1.08,1.75,3,0,.07,0,.08-.06.12C186.58,516,192.49,520.26,196,521.76Z"/><path class="cls-2" d="M182,512.67c-2.43-1.76-4.5-3.23-5.54-3.79C176.81,509.4,181.72,513.36,182,512.67Z"/><path class="cls-2" d="M56.84,698.05c0,.38.1.74.15,1.1C56.94,698.76,56.89,698.4,56.84,698.05Z"/><path class="cls-2" d="M55.82,674.23a4.18,4.18,0,0,0-.23,1.27C55.82,675.49,56,675.18,55.82,674.23Z"/><path class="cls-2" d="M245.74,711.39l0,.1Z"/><path class="cls-2" d="M128.81,712.57c-2.1.25-2.9.52-3,.82A4.37,4.37,0,0,0,128.81,712.57Z"/><path class="cls-2" d="M174.37,715.92c.29,0,.61-.07.87-.13C174.57,715.82,174.38,715.86,174.37,715.92Z"/><path class="cls-2" d="M243.83,704.49c.76,1.9,1.26,4.68,1.91,6.9C245.17,709.5,244.84,705.7,243.83,704.49Z"/><polygon class="cls-2" points="53.7 645.25 54.36 647.62 53.87 645.13 53.7 645.25"/><path class="cls-2" d="M54.72,667.49c-.13,1,.37,4.9.66,3.76A25.22,25.22,0,0,1,54.72,667.49Z"/><polygon class="cls-2" points="96.36 713.09 97.36 712.5 95.36 712.88 96.36 713.09"/><polygon class="cls-2" points="59.11 440.2 58.63 440.94 59.39 444.78 59.11 440.2"/><path class="cls-2" d="M59.77,479.82c.66,3.53,1.22,10.3,2.27,10.38l-1.13-6.39c.76-.92.58-5.13.21-8.86l.18,4.23c-.14-1.09-.62-.37-.76-1.46.21-6.48-.93-8.11-.25-14.11l.1.33-.66-4.7c.08-1.49.47-.91.62-.44a102.6,102.6,0,0,1-1.2-13.07c-1.3,4.46,1.49,12.48.19,16.92l-.09-.33C60,467.82,59.22,474.24,59.77,479.82Z"/><path class="cls-2" d="M60.35,458.8l0,.37S60.41,459,60.35,458.8Z"/><path class="cls-2" d="M65.19,687.17l.24.22C65.33,687.06,65.24,686.75,65.19,687.17Z"/><path class="cls-2" d="M66,617.31l0,.34C66.28,618.08,66.19,617.85,66,617.31Z"/><path class="cls-2" d="M170.8,519.85l-.88-1.09A1.78,1.78,0,0,0,170.8,519.85Z"/><path class="cls-2" d="M96.22,463.11,96.1,463Z"/><path class="cls-2" d="M127.57,492.41l0,.34C127.79,492.73,127.76,492.6,127.57,492.41Z"/><path class="cls-2" d="M103.09,474.62c-.63-.56-1.26-1.11-1.93-1.62A8.61,8.61,0,0,0,103.09,474.62Z"/><path class="cls-2" d="M97,463.57c-.25-.13-.53-.29-.81-.46A6.74,6.74,0,0,0,97,463.57Z"/><path class="cls-2" d="M163.56,520.3l.48,1.32C164.17,521.41,163.85,520.84,163.56,520.3Z"/><path class="cls-2" d="M96.76,470.6a6.76,6.76,0,0,0-1.09-1.17A3.74,3.74,0,0,0,96.76,470.6Z"/><path class="cls-2" d="M60,486c0-.86-.08-1.83-.2-3A17.28,17.28,0,0,0,60,486Z"/><path class="cls-2" d="M219.5,670.7a1.65,1.65,0,0,0-.39-.48C219.3,670.87,219.41,670.89,219.5,670.7Z"/><path class="cls-2" d="M201.53,572.37l-.08-.31c0,.09,0,.22,0,.42Z"/><path class="cls-2" d="M206.93,601.05a2.36,2.36,0,0,0-.23-.35C206.82,601,206.89,601,206.93,601.05Z"/><path class="cls-2" d="M196.76,550.83a6.51,6.51,0,0,0-.44-1Z"/><path class="cls-2" d="M185.16,537.37c.6.79-.37.38-1.32,0,4,3.46,5.95,3.77,9.92,7.59l-1.83-1.85c.77.42,1.67,1,2.62,1.58l1.44,1,.34.24.11.06.22.15.05.27.09.6c.09.61.17,1.21.24,1.78a20.71,20.71,0,0,1,.14,3l-.42-.93c1.21,3.21,1.06,8.62,1.83,9.94.07-1.42.52,0,.44-2.2l2.16,8.31-.89.81,1.15,4.37c.2-1.17.77,6,1.75,5.92.09,2.6-1-.9-1.52-1.72.75,2.43.37,2.78,1.38,5l-.43,2.62,1.83,6.38c-.15-.31-.13.1-.27-.19,1.29,2.83.95,7.61,2.93,11.16-.09-.19-.12-.12-.19-.17,1.08,1.94,1.52,7.15,1.71,9,.79,3.32,1.1,1.24,1.5,1.31,1.56,9.75,1.05,6.64,3.59,14.6-.2,5.08-2.84-5.44-2.47.9.69.73,1.9,5,3,9.77.44,4.52,1.51,12,1.55,16.45l.64-.57,1.55,6.17-1.7-3.36c.43.95,1.46,4,2.2,6,1.83,6.37-.9,4,1.13,8.8a3.86,3.86,0,0,1-.14.51c.85,1.52,1.43,5.82,2.54,10.68l-1.24-1.53-.39-3.22c-.59,1.88,1.12,5.23,1.64,8.33.91,3.18,1.37,1.43,2,3.11a22,22,0,0,1,.68,3.85c.24,2.9-1,.5-1.6-.32,1.41,2.29,1.44,3.16,2.83,8.57-.39.37-.66,0-.88-.7a6.6,6.6,0,0,0,1.22,2.62l-.19,2a18,18,0,0,0,.26,2.25,2,2,0,0,0,.24.63c.24.44.62,1,1.05,1.84a2,2,0,0,1-1.31.52,8.18,8.18,0,0,1-1.39.07,23,23,0,0,1-2.31-.16c2-.36-6.53-.34-8.81-1.1,2.63,0-1.16-1.47.47-1.92-6-.77-2.49.94-7.4.82l2.06-1c-4.75.18-1.19.55-6,.58,1.36-.25-2.11-.46.77-.64-6.27-.56-4.64-.34-10.16-.86l-.53,1.09a5.37,5.37,0,0,1-3-.79c.77,0,2,.15,1.86,0-2.09-1.13-3.57.3-6-.77.6.4,1.26.95-1,.86.78-.64-3.47-.89-3.62-1.19,1.42.57-4.92-.13-5.28.6-2.62-.7.87-.49,1-.85-2.23.73-9.25-.53-11.29-.16,0-.08-.15-.13-.14-.18-2.83.34-7.48.15-13.1.53l2-.51c-5.6-.68-3.51,1.12-8.17.79,1-.86-7.72-.47-5.57-1.35-2.81.33-5.79.36-7.66,1-2.62-.7,5.12-.91,1.47-1.43l-4,.21-.68-.55c-.18.37-3.65.15-3.49.46-.58-.65-2.14-1.18-1.93-1.62-2.52,0-6-.81-8.12-.43l-.17-.31c-2.48.94-7.63-.31-8.92.76l-1.51-.73c-3.82-.16-3.17,1.06-5,1.21-1.52-.06-3.4-.06-5-.28,5-.39-2.45-1.07-3.45-1.55-2-.16-7.72-.47-9.34,0,2.4-.43,1-1,5.2-.76-2.19-1.28-6.45-.19-11.19-.68l.09-.52c-1.29,0-2.35,0-3.23,0l-1.21.08-.51.06-.32.07-2.73.72a4.33,4.33,0,0,1-.68-1.32c.61-1.16.81-.22,1.47.56h0c0-.43.06-.86.07-1.29v-.65c0-.28,0-.56,0-.85,0-1.38-.09-2.85-.16-4.33-.14-3-.32-6-.36-8.56.41-1.61.71-.57,1,1.12-.65-5.24-.24-11.76-1.49-15,.49,1.28.23-2.13.39-4.08a.65.65,0,0,1-.53-.59,74,74,0,0,1-.91-14.06l.37,1.34c-.07-8.68-2.16-12.43-1.61-21.93.2-1.71,1,1.72.87-1.76-.48-1.67-1.34-1.09-1.23-5.52l.76.28-.85-3c-.58,1.57-.21,6.48-1,3.06.58-4-.8-3.43-.12-8.26A13.08,13.08,0,0,0,66,617.31c.58-10.09-1.17-14.07-.53-24.3-.75-5-1.06-11.58-1.72-15.08.76.27,1.42.21,2.09,2.54,0-4.34-1.8-6.32-.79-9.38-1.09-2.05-1-12-2.49-13,.28-.19-.14-4.67.81-.15-.66-5.9,1-7.83.93-10.54-.09-1.52-.86,1.77-1-1.7,0-.43.19-.53.24-1l-.38-1.32c.29-1.39.76,1.49,1.14,1.61.16-4.87-1.08-8-1.35-13.75l.28,1-.12-5.86.09.33L62.53,522l.38.13a22.94,22.94,0,0,1-.47-2.86l.47.48c-.76-1.48-1.31-7-1.4-9.77l.19-.52-1.13-6.38c.39-3.43,1.23,4.33.68-2.44l1,1.71c-.51-4.81,0-5.54-.45-8.82-.43,1.5-.3,3.78-.77,2.1,1-3.82-.46-6-1-9.66a10.94,10.94,0,0,0,.69,4.34c0,1.95-.48.72-.48,1.91l.61,2.75-.62.81.65,4.72c-.76-.27,0,4.36-.81,2.53.42,3.3-.07,5.21.79,8.2-.39,2.25-.66-3.52-.67-1.14,1,13.21,1.31,26.88,1.47,40.66l-.38-1.33c.38,1.33.71,3.09,1,4.08-.53,2.36-1,11.41.2,14.55-.05.44-.24-.24-.33-.57.27,4.58-.27,12.87,0,19.39,1.29,2.72-.45,9.84,1.26,12.26L63,597.79c.39-2.23,1.23,3.14,1.66,4-1,1.86-.81.15-1.72,2.36l.29-2.6-.86.6c2.51,8.22-.57,15.46,1.23,20.57-.09-.31-.23-.22-.33-.56-.39,3.44.8,5.82,1.17,8.33-.43.31-.76-1.48-1.14-2.79-.16,6,1.35,16.14.85,22.82.66,2.32.76-.91,1.29,1.51-.11,2.06-.54,3.53-.91,1-.93,5.78,1.28,19,.54,27.8.8,4.61,1,1.71,1.65,8.8-.47-1.65-1.39,1.73-1.57-2.51l-.47-.48c0,2,.08,4.1.13,6.25,0,1.13.08,2.27.12,3.38.09,2.09.18,4.15.27,6.12l4.67.2,1.09,0,.88,0,1,0a17.52,17.52,0,0,0,3.36-.44c.15,1,1.27.28,3.89,1,1.09,0-.09-.15-.52-.25,2.65-.63,3.91.31,5.77.31l-.67.13,5.1-.24c.84.18,2.09.45,2.25.76l0-.67c2.72.18,1.25.94,4.66,1l-.68-.55c2.13.46,5.62,0,6,.76.09.16-.33.06-1.1,0,3.3,1.26,8.73.28,12.87,1l-1-1.16c4.08-.06,2.46.4,2.28.77,2.72.18,3.29.57,6.86.94,1.78-.15,1-.33,1.54-.6l3.63.51-2.39.43c5.72-1.18,14.07,1.17,17.91,0,2.11.46-2,.52-.69.79,6.61,1.17,14.94,0,20.43,1.21,9,1.41,19.41,1.38,29.39,2.61l-.16-.3,7.11.73c2-.52,6.8.13,9.86-.42-.26.21.35.61-.35.73,3,.13,6.36,0,8.13.56l-1,.18c2.15.2,4.56.41,7,.59l4.69.33,6.16.37c-.44-2.22-.86-4.24-1.25-6-.19-.84-.37-1.63-.54-2.35-.13-.48-.23-.77-.34-1.09-.48-2.25,0-2.29.28-3a56.49,56.49,0,0,0-2.46-9.35,20.56,20.56,0,0,1,0-2.71L228,688c-.19-1.62.51-.48.46-1.77-1.93-5.82-2.47-12.92-3.29-17.1l-.24.66c-.59-1.68-.72-5.14,0-3.14-1.11-8.37-3.36-12.1-5.24-23.34,1-1.79-2.23-10-1.11-11.94-1.23-4.67-1.22-7.82-2.66-11,.12-.12.11-.55.27.2.19-2-1.37-8.13-2.6-12.81l.38-.35c-1.24-1.54-2.48-9.79-3.72-11.33.1-.56.56.83.85,1.47.42-2.64-1.22-4.25-1.61-7.48.27.2.36-.79.65-.15-.94-10.78-5.47-25.84-7.32-39.78-.67-3.85-.73,1.57-1.58-3.46.21-1.53,1.4,2.29,1-.94a3.26,3.26,0,0,1-.22-.58l-.24-.73-.37-1.3c-.5-.31-.94-.61-1.39-.93l-1.06-.77-2.11-1.66c.64.09.36-.39,2.25.77-1.21-1.41-6.6-4-9-6.85,0,.34-.66.08-1.3-.19-4.74-2.55-9.22-8-9.89-7.95,0,0-1.57-1-.34,0-1.55-1.2-3.7-3-3-3.08a13.37,13.37,0,0,1-3.18-1.52l1,.06c-.78-.44-1.8-.78-2.54-1.25l.91,1.1c-1.51-1.71-5.67-3.48-4.93-4.24l.62.44-3.05-2.9A18.43,18.43,0,0,1,159,511.1c-.21-1.52-5.56-4.5-8.34-6.75l.35-.21c-2.55-1.26-8.11-5.76-7.19-4.83-2.16-1.64-4.93-4.06-3.65-3.52-1.89-1.16-5.61-4-6.92-4.18l-3-3.41c-2.94-.53-6.79-5.74-7.86-4.76-1.84-1.68-1.19-1.58-2.41-2.81a46,46,0,0,1-8.73-6l0-.18c-2.79-2.25-6.57-4.21-10.62-7.18l-.19-1.5c-2.19-1.47-3.21-1.18-5.06-2.87-.36-.48.11-.2.68.16a38.19,38.19,0,0,1-5.87-4.86c-3.49-1.65-5.64-3.64-8.81-5-1.77-2.54,3.76,2.31,2.29.07-4-3.65-8.69-6.53-13.69-9.73-.29-.47.34-.21.68-.24,0,0-11.16-5.17-10-3-1.61-.33-3.21-1,.46,2.51,1.6.68,5.68,3.13,5.91,4.3l.69-.42c5.62,3.8-.46,1.59,6.06,6.49L72.6,452c1.25.89,2.52,1.25,3.75,2.49.29.47-.66-.11-1.29-.38l6,3.26c0,.52-.38.55-1.65,0,5,3.71-.17-1.85,5.69,3,.89,1.09-.67.07-1.62-.33,2.41,2.63,4.65,3.58,7.78,5.44-.37.57-2.22-.94-.1,1.21-.27-.64-.21-1.34,1.66,0-1.3-.13,1.17,1.34,2.86,2.83-.23-.46.1-.61.87-.17.94.57,1.53,1.35,2.78,2.24l-1.79-2.18c3.46,1.82,4.61,3.92,6.77,5.91a4.07,4.07,0,0,1-1.21-.61c2.29,2.09,4.5,4.44,8,6.33l-.32-.14c6.27,3.91-1.13-2.26,6.08,2.4,2.15,1.81-2.41.94,3.25,4.23-2.1-2.32,4.19,1.42,7.3,3.46l-3.84-1.28c1.18.92,3.47,2.19,4,2.79l0-.35c.44-1.05,3.72,3,6.27,4.1-3.57-.81-3.54-1.15-4.94-.32a28.8,28.8,0,0,1,9.14,5.13l-3.83-1.44c4.93,4,11.93,7.2,16.68,9.57-1.64-.16-.11,1.38-2.37.6l5,3.54-1.94-.29c2.57.74,4.36,2.92,4.79,1.68a3.64,3.64,0,0,1-1.57-.85c.35-.21,1.66-.19,4.15,1.76,1.51,1.53-1.3-.37-1,.27,1.92.82,1.53,1.55,3.42,2.53l-1.17-1.57c1.61.33,2.8,2.09,4.68,3.06-2.19-1.27-1.79-.44-1.3.47l-.05-.15c1.24.88,3.15,1.69,3.74,2.65l-1.65,0,2.25.78c.6.61.87,1.26-.39.54,5.2,4.71,1.14-1.83,7.88,4.42-.35.21-1.3-.19-3.14-1.87-.69.24-.41.9,1.43,2.57,0,.06,0,.06-.06.1C177.35,532.24,182.26,536,185.16,537.37Z"/><path class="cls-2" d="M173.57,529.36c-2-1.54-3.74-2.84-4.61-3.33C169.22,526.48,173.29,529.94,173.57,529.36Z"/><path class="cls-2" d="M70.27,683.53c0,.32.09.63.13.93C70.36,684.13,70.32,683.83,70.27,683.53Z"/><path class="cls-2" d="M69.36,663.35a3.82,3.82,0,0,0-.19,1.07C69.37,664.42,69.51,664.15,69.36,663.35Z"/><path class="cls-2" d="M225,699.39l0,.08Z"/><path class="cls-2" d="M126.88,700.54c-1.78.2-2.46.42-2.57.67A3.73,3.73,0,0,0,126.88,700.54Z"/><path class="cls-2" d="M165.46,703.65c.25,0,.52,0,.74-.1C165.63,703.57,165.47,703.6,165.46,703.65Z"/><path class="cls-2" d="M223.43,693.53c.63,1.61,1,4,1.58,5.86C224.53,697.78,224.27,694.56,223.43,693.53Z"/><polygon class="cls-2" points="67.52 638.8 68.08 640.8 67.66 638.7 67.52 638.8"/><path class="cls-2" d="M68.42,657.64c-.1.85.32,4.15.57,3.18A21.3,21.3,0,0,1,68.42,657.64Z"/><polygon class="cls-2" points="99.39 700.77 100.23 700.28 98.53 700.58 99.39 700.77"/><path class="cls-2" d="M353.43,465.16l2-.91C355.38,464.18,354.85,464.38,353.43,465.16Z"/><path class="cls-2" d="M272.16,706.65l-.09-.41L272,706l.1.46A.85.85,0,0,0,272.16,706.65Z"/><path class="cls-2" d="M420.44,435.84h0l-.06,0Z"/><path class="cls-2" d="M333.41,484.44c25.91-14.55,33.25-17.58,59.76-33.26,5.53-3.13,11.19-6.41,16.83-9.69l8.41-4.93c2-1.15,1.31-.79,1.57-1l.36-.26.1.49a.33.33,0,0,1,.14.1c0,.05,0,0,.07.13l.11.73c.15,1,.28,2,.41,3.14.25,2.2.47,4.58.69,7,.44,4.85.88,9.85,1.58,13.84l-.16,3.15a56.28,56.28,0,0,1,1,8.78l-.15-.16c.72,4.1,1,8.78,1.31,10.82l-.14-.16.52,5-.26-.85c1,7.18,1.74,14.6,2.18,21.16l.5-.59c.69,14.05,2.29,19.06,2.74,31.76l-.14-.16c2.91,15.84,1.37,25.33,4.25,41.67-.36-2-.19.9-.34.75.86,7.56,1.69,15.65,2.77,15.67.5,5.52.08,4.53-.26,5.28.46-.07,1.1,4.71,1.53,9l-.36-2,1.3,12.34.66-2.51c.36,6.58-.92,1.77-.12,8l.72-.14c.7,9.07.08,14.49.36,23.31,1.05,12.51,2.39,25.3,3.77,38.09,1.24,11.56,2.47,23.11,3.68,34.36l-4.91-.46-8.42-.88q-8.35-.9-16.34-2l-1.45-.69c-.57-.87-9.47.28-10.69-.59h-4c-1.09-.25-3.42-.63-1.43-.62a40,40,0,0,0-6.4-.27l-3.87-.88c-14.35-1.78-26.68-2-41.81-3.66-9-1.39-22.15-2.68-35.47-3.79-6.66-.56-13.37-1.07-19.66-1.53l-9-.65c-2.7-.18-6.24-.45-6.58-.41h-.66l-.24-1-.12-.56-.22-1.24q-.42-2.6-.86-5.22c-.56-3.52-1.07-7.09-1.56-10.7-1-7.22-1.86-14.6-2.75-22-1.78-14.79-3.61-29.63-6.39-43.38a12.76,12.76,0,0,0-.74-3.24l-3.82-25.83s-18.8-125.2-10.89-29.11l-.27-.61c1.74,14.19,3,23.1,5.36,32.7-.83,1.71,1.66,11.63,1.82,15l-.13-.3c2.14,8.49,2,17.85,4,26a4.84,4.84,0,0,1-.77-2.35c1.06,6,2.56,14.27,2,14.81,2.37,14.43,5.16,34.65,7.57,43.76l-.27-.6c1.47,5.17,1.14,6.81,2.38,12.66a4.81,4.81,0,0,0,0,.55c0,.21,0,.35,0,.3.37,1.61.73,3.43,1.09,5.44l3.51.27,3.25.3,5,.5c3.24.34,6.22.65,8.15.72l.26.44,11.54,1-4.3-.5c1.6-1,8.65,1.56,17.08,1.63,7.81.9,16.1-.85,24.17.5,3.93-.16-3.5.54,2.34.69.13.61-2.75.11-1.3.73,5.72.27,9.27,1.51,16.32,1.79l.25.49c9.23,0,17.2,2.29,23.37,2.06,9.48.53,6.2,2,16.12,2l3.76,1c4.19.51,3.08-.48,7.72.27-.33.37,5.86.89,3.09,1,5.25.82,10.62,1.12,16.42,1.51,2.89.2,5.89.42,9,.74,1.56.16,3.17.34,4.81.56l7.69,1a43.53,43.53,0,0,1,4.73.08c-.39-3-.71-6.28-1-9.2-.18-1.7-.26-2.18-.38-2.94a9.51,9.51,0,0,0-.39-1.69c.3-.41-1.25-14,.21-6.24.13.67.23,1.86.09,1.79l.54.9c.13-8-1.81-14.37-2.41-22.23.07,2.34.39,5.44-.11,3.4l-.62-7.3.53,1.48-.79-10.88-.33,1.54c-.25-5.34.38-7.28-.85-13.21-.63-2.68-.17,5.09-.84-.51-.34-7.13-.84-17.82-1.54-26.91-.46.9-.66-1.54-1-4l.44-.34c-1.54-9.56.7-3.62-.7-13.13l.4.82-1.21-2.44c-1.72-8.53.54-4.73-1.61-14.2.43,3.78-.87,1.88-1.1-2.8l.56,1.14c-.33-2.57-.6-3.41-.67-5.14.39,1.52.73.75.3-3l.8,2.49L443,591.2c0-5.59-1.45-14.3-1-16.64,0,0-.8-11.93-1.74-14.59.65,2.35.2-4.23.88-2.41-.77-3-2-12.11-1.83-15.81l.12.69c-.72-13.54-2.87-23-3.35-35.16-.49.6-.79-5.82-1.34-4.18-1.84-12.46-.71-23-3.27-27.29-.64-5.68-.12-6.8-.29-9.75l.24,1.35c-1.17-10.66-1.47-13.76-2.16-21.69a38.47,38.47,0,0,0-1.08-4.6,23.69,23.69,0,0,1-.55-2.73c-.08-.55-.16-1.17-.23-1.88l-.1-1.12c0-.56-.09-1.17-.14-1.81.35,1.61.41,1.42.33.24s-.28-3.25-.47-5.25c.15,1.25.27,2.05.33,1.86a35,35,0,0,0-.08-4.34,25.37,25.37,0,0,1-.52-2.71c0-.09,0-.35.07-.3l0-.18c-5.94,3.57-4.82,3.06-2.21,1.63-.17.17,0,.15.74-.15-1.36.64-3.13,1.59-5,2.62l-5.12,2.89c-2.36,1.33-4.28,2.4-4.69,2.24-11.53,6.79-19.47,12.16-29,17.92-1.26.32.85-1.24,3.58-3l-6.79,4c-.19-.47,3.8-2.51,5.85-3.8-8.55,4-16.4,10.34-26.33,15.18L356.06,464l-.6.27c.13.16-1.87,1.64-3.25,2.51-1.57.4-.41-.93-5.13,1.81-3.95,1.78-10.53,6.28-15.31,9.3,2.68-1.45,2-.75.89,0-2.36,1.37-3.94,1.77-5.68,3l-.52-.39c1.21-.05-5.88,4.07-6.64,4.78-1.56.39,3.49-2.43,3.91-3.06l-14.19,8.24c-4.84,3.29,1.2,0-1,1.79-4.41,2.67-8.56,5.53-13.87,8.16l1.88-.47a165.88,165.88,0,0,1-19.17,10.78c-60.44,39.59-10.27,12.63-10.27,12.63C292.35,510.23,304.3,501.61,333.41,484.44Z"/><path class="cls-2" d="M354.7,484.47l1.7-.8C356.33,483.61,355.89,483.79,354.7,484.47Z"/><path class="cls-2" d="M286.58,690l-.1-.43A3.39,3.39,0,0,0,286.58,690Z"/><path class="cls-2" d="M407.84,462.44v-.1l-.09-.48Z"/><path class="cls-2" d="M338.11,501.05c21.63-12.71,27.78-15.4,49.9-29.07,4.11-2.44,8.32-5,12.51-7.52l6.26-3.83.34-.21h0l.05,0,.1-.09.25-.19.07.31,0,.19.18,1.75c1.19,5.67,1.47,15.85,2.65,22.58l-.14,2.66a46.14,46.14,0,0,1,.8,7.42l-.12-.14c.61,3.47.8,7.42,1.1,9.14l-.12-.14.44,4.24-.23-.71c.87,6.05,1.46,12.32,1.83,17.86l.42-.5c.58,11.87,1.92,16.1,2.3,26.83l-.13-.14c2.45,13.37,1.14,21.39,3.57,35.18-.31-1.72-.17.77-.3.63.72,6.39,1.42,13.22,2.33,13.24.41,4.67.07,3.82-.22,4.46.39-.06.92,4,1.28,7.61l-.3-1.66,1.09,10.43.55-2.12c.3,5.55-.77,1.49-.11,6.77l.61-.12c.59,7.66.07,12.23.3,19.68.9,10.78,2.05,21.82,3.23,32.85,1,10,2.1,20,3.13,29.66l-3.79-.4-6.77-.77c-4.48-.53-8.86-1.09-13.15-1.71l-1.21-.59c-.48-.73-8,.16-9-.57l-3.36,0c-.92-.22-2.88-.55-1.21-.53a34.81,34.81,0,0,0-5.4-.28l-3.26-.76c-12.11-1.61-22.51-1.89-35.27-3.4-7.4-1.19-18-2.34-28.89-3.35-5.43-.51-10.93-1-16.11-1.41l-7.51-.6-3.45-.27-1.32-.05-.14-.64-.11-.44-.06-.22-.1-.55-.39-2.2c-.25-1.48-.49-3-.74-4.48q-.7-4.51-1.33-9.17c-.82-6.19-1.56-12.53-2.3-18.89-1.49-12.71-3-25.49-5.35-37.32a11.34,11.34,0,0,0-.6-2.74l-3.16-21.82s-15.48-105.76-9.07-24.61l-.22-.52c1.42,12,2.46,19.51,4.42,27.63-.7,1.44,1.37,9.82,1.49,12.66l-.11-.25c1.78,7.17,1.66,15.08,3.32,22a4.1,4.1,0,0,1-.63-2c.87,5.09,2.11,12.05,1.64,12.51,2,12.19,4.25,29.28,6.25,37l-.22-.52c1.23,4.38.94,5.76,2,10.7,0,.29,0,.64-.05.59.22.81.41,1.68.62,2.76.27,1.51.53,3.11.79,4.77l5,.53,3.36.38c2.15.24,4.07.44,5.4.5l.22.38,9.73.94-3.62-.46c1.36-.83,7.29,1.38,14.41,1.5,6.59.82,13.6-.59,20.4.61,3.32-.11-2.95.42,2,.59.11.52-2.32.08-1.1.61,4.82.27,7.82,1.34,13.77,1.62l.2.42c7.8.1,14.51,2.05,19.72,1.91,8,.51,5.22,1.72,13.59,1.83l3.17.87c3.54.45,2.61-.38,6.52.29-.28.3,4.94.79,2.6.86,4.43.73,9,1,13.85,1.39,2.45.19,5,.4,7.62.69,1.33.14,2.68.31,4.06.51l3.6.48,4,.55c.5,0,1.09,0,1.74,0-.43-2.71-.76-5.92-1.07-8.9l-.16-1.37-.16-1.16a9.63,9.63,0,0,0-.38-1.72c.26-.35-1-11.85.18-5.27.11.56.19,1.57.07,1.51l.46.76c.11-6.76-1.52-12.13-2-18.77.06,2,.33,4.59-.09,2.87l-.52-6.16.44,1.25-.65-9.19-.29,1.3c-.2-4.51.33-6.15-.7-11.16-.53-2.26-.15,4.3-.71-.42-.28-6-.7-15.06-1.28-22.73-.39.76-.56-1.3-.85-3.41l.37-.28c-1.29-8.08.59-3.06-.59-11.09l.34.69-1-2.06c-1.45-7.21.45-4-1.36-12,.36,3.19-.72,1.59-.91-2.37l.47,1c-.28-2.17-.51-2.89-.56-4.34.32,1.27.61.63.25-2.57l.67,2.11-1.25-6c0-4.72-1.22-12.08-.86-14,0,0-.67-10.07-1.46-12.32.55,2,.18-3.57.75-2a69.5,69.5,0,0,1-1.54-13.35l.1.58c-.6-11.44-2.4-19.43-2.8-29.7-.42.51-.66-4.91-1.12-3.52-1.55-10.52-.6-19.39-2.74-23-.54-4.8-.11-5.74-.24-8.23l.2,1.14c-1-9-1.24-11.62-1.81-18.32-.48-3.32-1.37-3.77-1.72-9.78.26.95.31.82.28.17,0-.33-.06-.78-.1-1.3l-.18-1.85.09.69.06.36c0,.2.08.29.11.25a1.8,1.8,0,0,0,.06-.58v-.39l0-.58q0-.65-.06-1.53c-.16-.62-.32-1.58-.45-2.46,0-.06,0-.26.07-.2-.65-5.72-.64-4.44-.44-1.81-.06-.07-.09.23-.11,1.11,0-1.31-.11-2.84-.23-4.44-2.36,1.35-5,2.95-7.07,4.17l-1.45.84-.53.29-.38.19a1.76,1.76,0,0,1-.94.29c-9.61,5.92-16.23,10.58-24.17,15.6-1.06.29.69-1.06,3-2.56l-5.66,3.52c-.17-.39,3.16-2.18,4.87-3.31-7.15,3.5-13.68,9-22,13.25l-1.48,1.28-.51.24a12,12,0,0,1-2.7,2.17c-1.32.36-.36-.77-4.3,1.61-3.31,1.57-8.78,5.48-12.77,8.1,2.23-1.27,1.63-.66.75,0-2,1.19-3.3,1.56-4.75,2.61l-.44-.31c1-.07-4.9,3.52-5.53,4.14-1.31.36,2.9-2.11,3.26-2.65l-11.85,7.19c-4,2.85,1-.06-.79,1.53-3.68,2.32-7.14,4.8-11.58,7.11l1.58-.44a139.06,139.06,0,0,1-16,9.42c-50.38,34.41-8.48,10.81-8.48,10.81C303.86,523.49,313.81,516,338.11,501.05Z"/><rect class="cls-1" x="397.56" y="348.64" width="32.3" height="107.34" rx="2.04" transform="translate(-28.86 31.99) rotate(-4.28)"/><path class="cls-3" d="M431.21,455.84c1-.2-.58-.44.64-.26A.45.45,0,0,1,431.21,455.84Z"/><path class="cls-3" d="M434.36,452.38c-1.68-3.14-.55-7.53-1.73-11-.09-.41.79.05.53-.88-1.36-3.37-1.11-8.85-.57-13.12l.24.24c.1-.81-.7-1.73-.66-2.59.14,0,.23.26.41,0-.46-.18-.32-1.51-.67-1.85.14-.35.5-.34.66-.79L432,422c-1.3-1.26-.16-3.28-.92-5.08.12.08.23.26.33.1-.95-2.9-1.09-6.61-1.61-9.89.19.12.53.21.71,0-.54-.13-.75-1.14-.92-2,.51-.44-.61-1.48-.39-2.54l.13.08c-.63-.73.24-1.17-.49-1.74l.39-.52c-.79-.28.32-1.14-.12-1.74l-.16,0c-.23-.58.13-.92,0-1.47l.09-.06c-.3-1.28.07-2.07-.53-2,.45-.49.32,1.25,1,.48a92.35,92.35,0,0,1-1.48-13c.21-.51.26-.83.47-.95-.15-.42-.23-1.61-.56-2,0,.14.28-.3.3-.53.16-.8-.73-.81-.52-1.69q.27.5.6.3a7.07,7.07,0,0,1-.74-2.54c.11.13.19.33.37.29-.6-.91,0-1.74-.41-2.55l.37.29c.32-1.37-.76-.34-.59-1.52.13.27.26.16.4.2-.71-1-.63-2.79-.93-3.85a.18.18,0,0,0,.15,0,24.48,24.48,0,0,0-.43-3.68c.11-.48.85.09.63-1.14-.69.09-.44-2.09-1.17-1.3a11.91,11.91,0,0,0-.12-3.45c.3.45.81-.58.93.29l.37-.69c.3.07,0,.69.3.45a11.61,11.61,0,0,1-.35-2.11,6.45,6.45,0,0,1-1.52-2.8c.31.61.74-.41.89,0L425,352c-.07-.43.54-.16.32-.66-.18.06-.31-.13-.47-.22.07-.17-.21-1.11.22-1.76.18-.38.38.45.44-.12a.87.87,0,0,0-.54-.5l-.7-.25,0-.1a.86.86,0,0,0-.85.08c-.27.15-.4.35-.26.53.25,0,.06-.43.39-.23a2.67,2.67,0,0,1-1,.53,4,4,0,0,1-.57.1c.17-.13.16-.31.25-.51a4.82,4.82,0,0,1-1.53.7c-.57.18-1.16.33-1.76.48,0,.33.41-.62.61-.46-1.6-.34-3.19.88-4.54.32.21-.08.15.45.13.36-.76,0-.76-.46-1.24-.25-.07-.27-.61.14-1.11.26-.25.22-.14-.13.29-.19a12.7,12.7,0,0,1-5.13.64c0,.19-1,.75-1.33.76l.12-.44c-.36-.23-1.26.13-1.35-.23-.76.58,3-.68,2-.19-.31-.34-1.46.79-1.27.19-.75.07-1.44.61-2.19.26.21.06.57-.64,0-.56-1.06.16-.29.23-1.14.43l-.54.22c0,.42-1,0-.52.45-.16-.33-1.54.33-1.48-.37l.1-.56c-.46.08-.71.64-1.06.9-.06,0-.19-.14-.17-.23,0,.42-.29.42-.62.4a2.35,2.35,0,0,0-.53,0c-.15,0-.18.09-.22.26a2,2,0,0,0-.81-.13,1.93,1.93,0,0,1-.85-.07c-.1.52.14,1,0,1.29a.87.87,0,0,0-.31-.34c-.23.2,0,.38.16.64-.07,0-.18.07-.31.28a5.75,5.75,0,0,0-.38,1c.3.72.73.43,1,.48-.77.74.69,2.06,0,3-.14-.25-.49-1.05-.65-.42-.77.74.71,1.32.4,2.44l.66-.32c-.39.52.52,1.58-.19,1.52.27.35-.13,1.31.53,1.13-.43,1.84.66,4.34-.45,5.53.13.25.07.9.4.74.34-.45-.31-.57-.07-.75a.33.33,0,0,0,.32.28c-.11.57-.13,1-.72.53-.32,1.27,1.23,1.19,1.09,2.79-.28-.05-.38.08-.3.54l.54.84c0,1-.59.62-1.05.68.12.54.15,1.21.51,1.43l-.53.71c.38-.51.31.43.44.68l-.13-.25c-.19.11,0,.74.06,1.05.29-.1.35-.75.41-1.11.23.27.21.7.48,1.05-.47-.08-.26.92-.27,1.36s.45.52.45.67c-.24,0,0,.82-.35.45-.08-.16.21-.4,0-.67-.16.35-.57.34-.22,1,.27.49.89-.2.68.79-.14-.25-.32-.28-.5-.47l-.17.93H398c-.1.13-.14.05-.19.11.46.24.24,1.38.75,1.55.07.46-.22,1-.23,1.43l-.05-.08a1.93,1.93,0,0,0,.33,1.68h-.09a2.45,2.45,0,0,0,.37,1.33c-.26.76-1.55.36-1,1.14.07.75.86,1.12,1.1.8-.18,1.37.62,2.85.06,4.15.18.18.28.05.41.44,0,2,.81,4.15.11,5.79-.22-.57-.42,0-.66,0,.41.44-.35.6.31.72.37-.08.56,0,.67-.61a7.73,7.73,0,0,1,.12,3.64c.15-.34.28-.09.42.16-.61,0-.64.84-.38,1.48l.38.06-.35.46c.14.25.79.22.49.9a.81.81,0,0,0-.38.22c.35.67.93,1.59.68,2.35l-.49.65c.08.31.44.82.56.25-.23,1.29-.21,2.1-.64,2.54,1.29,2.09,1.57,5.24,1.68,7.78l-.28-.06c-.21.7.5.32.35.81-.28-.2-.53.56-.89.05-.22,1,.57,1.22.74,1.84.37.07-.27-.49.2-.4.13.1-.18,1.36.37,1.47-.19.26-.61.1-.84,0l.31.57c-.58.78-1.26-1.57-2-.75l.13.54c-.54.57-.76-1.39-.85,0,.31.58,1.14,1,1.34.48.25,1.23,1.35.48,1.4,1.82-.29.39-.15-1.07-.58-.78-.4.67.34,1.25.22,1.82.16-.64.75-.15.88.24-.2.7-.55-.4-.53.56.33.14.63,1,.79.22.74.3-.12,1,.47,1.5-.48.35-1.24-.9-1.41.17.47-.2.76,1.26,1.43.64-.11.43-.48.5-.8.22-.25.62,1,1.37,0,1.64l.51.16c-.14.2-.24.47-.49.8,0,.52.8,1.63.05,1.63.09.17.14,1.36.62.86.26-.76-.44-.82.23-1.29-.53.57.15,1.06.38,1.48l-.29.09c.13.25.11.84.44,1-.18-.18-.37-.06-.42.14l.45.24c.3,1-.75.3-.55,1.3l-.39-.74c.08.16-.3.53-.13,1,.41.16.92.48,1.24.61.22.56-.43.29,0,.82l-.53-.7c-.14-.1-.63.55-.56,1.3.17.48.81,1.19,1,.41,0,.38-.17.93-.48.65.2.85.42-.15.72.58-.24.32-.55,1.29-.9,1.89l-.72-.72,0,.52c-.59-.63-.39.36-1,0A2,2,0,0,0,402,446c.83-1.1,1.33,1.06,2.14.7.33,1.39-1.95,1-.54,2.41.19-.26.87.39.57-.48,0,.88.87.53.61,1.59-.4-.74-.78.89-1.35-.18.28.05.16-.64.07-.8-.29.38-.84,0-.77.89.12.54.19,1.29.61,1.15s-.11-.84.39-.52c.25,1.08-.46,1.31.42,1.7a.69.69,0,0,1,.68-.9l.26.79-.33-.14c-.06.74.07.52.23.55l.3,0a2.92,2.92,0,0,0-.6.32c-.26.1-.21,0-.2-.12s0-.16-.46-.09c0,.3.43.2.22.5-.07,0-.1-.07-.18-.09s-.29.23-.48.45-.29.55.17.5.3-.22.58-.48c.37.19.68-.25.81-.29-.1.28-.05.33,0,.34s.19,0,0,.38l0-.07c-.07-.15-.19-.18-.37-.14a2.11,2.11,0,0,0-.73.3c-.22.41-.3.33-.39.16s-.13-.36-.5-.2c.15.56-.39,1.14-.73,1.69.16.22.53.15.7.13.39-.41.14-.53.48-1,.39.4,1,.12,1.4-.13a1.24,1.24,0,0,0,.32-.33c.18.21.17.67-.14.74l.33-.07.49-.06c.35,0,.71-.07,1.06-.08.71,0,1.41,0,2.07,0-.9-.69,1.46-.29.83-.87-.72-.11-1.36-.6-1-1,.45,0,0,.32.21.47.53-.45.92.59,1.42-.09-1.25.33-.18.93-.37,1.53.89-.4,0,.42.9.35a15.7,15.7,0,0,1,3-.94c1.31.47,3.22-.23,4.35-.33.62.25.26.94.92,1s-.62-.67.52-.45l-.09.14c.32-.18,2.08.29,2.34-.68l-.29.74c.21.05.39-.13.56-.22,0,.23.28.43,0,.61.72.44,1.44-.19,2.19-.27l-.52-.38c1.26-.43,2.15-.08,3.38-.32v.42l.72-.3c-.15.41.55.62.91.25l-1.84,1.17c-.56-.21.54-.55.18-.93a1.3,1.3,0,0,0-1.61.27c.44,0,.46-.08.79-.25.18.57-.49.59-.79,1,.23,0,.57.11.61-.07a3.07,3.07,0,0,1-1.64.46c.49-.26-.3-.34-.12-.52,0,.52-.73.73-1.68.66-.71-.54-1.72.51-2.81.42a3.73,3.73,0,0,1,1.57-1.26c-.7-.21-.76.07-1.46-.14-.29.41-.49,1-1.35,1.32l-.08-.38c-.79.26-.74.82-1.77.79-1.77,0-3.56.08-4.9.13l-.08-.37c-.68.86-2.45.48-3.42.92a7.25,7.25,0,0,0-2.08.08l-.49.07-.53.07a7.55,7.55,0,0,1-1.13.05,1.42,1.42,0,0,1-.83-.23,3.11,3.11,0,0,1-3.33-1.92,6.37,6.37,0,0,1-.35-1.32c-.07-.47-.11-1-.17-1.46l-.12-1.14c-.06-.73-.11-1.48-.14-2.26l.6.49c-.45-.53.29-.39.17-.93-.4.66-.63-.71-1-1.08a8,8,0,0,0-.76-4.35l.38-.08c-.81-1.19-.29-2.71-.29-4.27a1.19,1.19,0,0,0,.4-.95,7,7,0,0,1-1.14-2.43A15.3,15.3,0,0,1,398,433c-1.12-3.31-.82-6.8-1.61-10.28l.43-.28c-1.21-3.34-.66-7.59-1.36-10.45l.78.22c.17-.93-.35-2.06-.88-1.79.17-.93-.54-2.25,0-2.88.07-.94-.44-1.11-.6-1.88a14.41,14.41,0,0,0-.25-4.33v.44c.18.18.51.17.52-.27-.26-.64,0-2.43-.83-1.71.38-1.92-.76-4.36-.19-6.24-.24.18-.32-.28-.5-.46-.13-1.65.24-3.43-.28-4.71.11-.28.46.38.43-.29-.12-.39-.32,0-.5-.46-.66-2.64.08-5.45-.23-7.88-.8-4.28-.9-8.81-1.29-12.94l.19,0c-.8-1.33.47-3.31-.66-4.33.15-.35,0-1.26.36-1.05-.58-1.06.23-3.12-.52-4.67a.7.7,0,0,0,.13.39,7.61,7.61,0,0,0-.05-2.34l-.07-.6-.09-1a5.55,5.55,0,0,1,.13-2c0,.29.08.81.26.93a5.5,5.5,0,0,0,.06-1.64c0-.56.22-1,.73-1,.3-.46-.12-.61-.31-.29a4.9,4.9,0,0,1,1.64-1.4,6.17,6.17,0,0,1,2.1-.6l2.18-.21,1.45-.19c1.94-.27,3.89-.6,5.82-.85,2.81.32.28,1.47,2.42.65.19.16.1-.35.15-.17.83-.3,1.39.89,2,.38-.29-.52.37-.33.36-.66,1.72.23,2.1.69,3.41.18l-.08.29c1.51-.92,3.37-.63,4.62-1.66l5.49-.53a5.93,5.93,0,0,1,2.22.2,5.34,5.34,0,0,1,1.93,1,5.44,5.44,0,0,1,1.36,1.71,6.14,6.14,0,0,1,.61,2.15l.21,2.16.15,1.29.29,2.58c.38,3.44.75,6.86,1.06,10.31.44,8.37,1.47,16.51,1.61,25a6.14,6.14,0,0,0-.1,4.35c-.13-.07-.16-.21-.27-.05.63.06.18,1.53.78,1.69.12,3.15.5,6,.75,9.25-.11-.51-.63-.72-.54-.12l.44.61-.16.11c.12.41.45.84.62.4,1.14,8.06.5,16.13,1.25,24.06a39.1,39.1,0,0,0,.59,6.61c-.18,3.06-.33,6-.31,8.89,0,1.45.06,2.91.18,4.39l.1,1.11v.13l0,.22a4.28,4.28,0,0,1,0,.62,4.37,4.37,0,0,1-.27,1.23,4.69,4.69,0,0,1-3.87,3,4.12,4.12,0,0,1,.34-.29,10.13,10.13,0,0,0,.91-.89,4.9,4.9,0,0,0,1-1.61,4.22,4.22,0,0,0,.23-1.09A3.71,3.71,0,0,0,434.36,452.38Z"/><path class="cls-3" d="M430,456c-.24-.29-1-.4-.43-.86C429.66,455.42,430.05,455.71,430,456Z"/><path class="cls-3" d="M410.91,454.24c0,.09-.28-.1-.34-.15.23,0,.42-.32.62-.17C411,454,411,454.1,410.91,454.24Z"/><path class="cls-3" d="M406.07,454.42c.05-.28,1.07-.57,1.68-.65Z"/><path class="cls-3" d="M404.81,453.24c.17-.24.29-.31.31-.29A1.41,1.41,0,0,1,404.81,453.24Z"/><path class="cls-3" d="M404.23,453.7c-.07-.1.07-.28.21-.42C404.21,453.45,404.65,453.37,404.23,453.7Z"/><path class="cls-3" d="M404.38,446c0-.23-.31-.72,0-1C404.16,445.26,404.79,446.11,404.38,446Z"/><path class="cls-3" d="M403.62,441.46c0-.15.06-.21,0-.37.1-.28.32,0,.37.21Z"/><polygon class="cls-3" points="396.35 359.06 396.52 359.54 396.25 359.48 396.35 359.06"/><path class="cls-3" d="M421.57,350c.48-.21.32.24.39.27C421.62,350.28,422.12,349.88,421.57,350Z"/><polygon class="cls-3" points="426.33 363.6 426.31 363.46 426.87 363.46 426.33 363.6"/><ellipse class="cls-1" cx="413.45" cy="398.74" rx="22.61" ry="22.55" transform="translate(-28.6 31.96) rotate(-4.28)"/><path class="cls-3" d="M437,397.34c-.14-.54-.47.32-.22-.34C437,397.05,437.18,397.15,437,397.34Z"/><path class="cls-3" d="M436.47,395.24a4.17,4.17,0,0,1-1.21-2.65,14,14,0,0,0-.41-1.44,2.43,2.43,0,0,0-.82-1.21c-.14-.17.75-.26.37-.64a6.31,6.31,0,0,1-2-2.6c-.56-1.05-1-2.3-1.42-3.41l.26,0c-.18-.43-1-.35-1.29-.71.1-.11.25-.05.32-.26-.4.23-.74-.42-1.1-.31,0-.25.24-.5.2-.8l-.53.2a1.06,1.06,0,0,1-1.27-.42c-.31-.35-.59-.81-1.17-.82.11-.07.24-.09.24-.23-1.7-.25-3.24-1.32-4.92-1.66a1.08,1.08,0,0,0,.29-.65c-.28.47-.81.4-1.26.34,0-.62-.89.25-1.29-.19l.07-.1c-.52.45-.46-.48-.93.1l-.14-.48c-.33.72-.46-.49-.86-.17l0,.16c-.33.14-.42-.27-.71-.2V377c-.67.07-1-.35-1.06.24-.17-.5.66-.17.38-.89-2.25.36-4.43.34-6.6.68-.28-.19-.45-.22-.55-.43-.2.16-.8.29-.92.63.07,0-.21-.26-.33-.27-.46-.12-.26.72-.74.61a.58.58,0,0,0,0-.61c-.23.57-.72.66-1.09.94,0-.11.11-.2,0-.38-.28.66-.9.17-1.15.67v-.39c-.8-.1.1.76-.54.77.09-.16,0-.26-.05-.4-.25.8-1.14,1-1.49,1.45a.34.34,0,0,0,0-.14c-.46.38-1.14.48-1.51,1.1-.28,0-.4-.75-.86-.27.42.56-.7.86.07,1.27-.51.18-1.28.58-1.4,1,0-.36-.77-.47-.46-.81l-.54-.09c-.16-.24.33-.16,0-.36-.16.18-.5.82-.71.89,0,.63.3,1.46-.08,2,0-.41-.7-.38-.64-.62a15.23,15.23,0,0,0,.4,1.58c-.11.19-.46-.32-.51,0,.15.1.16.28.22.45-.12,0-.41.8-1,.47-.28-.08.11-.37-.24-.32-.26.33-.05.5-.27.84l-.08,0c-.23.17-.18.83.3.78.12-.14-.39-.16-.07-.28a1.12,1.12,0,0,1-.12,1.15c0-.17-.19-.25-.33-.4a5.2,5.2,0,0,1,0,1.92c.29.16-.43-.45-.24-.45a1.2,1.2,0,0,0-.44,1c0,.41,0,.77-.46.94,0-.12.45.12.36.09-.16.31-.6.14-.53.42-.26-.07,0,.3,0,.56s-.14,0-.12-.19a3.33,3.33,0,0,1-.37,2.44c.18,0,.58.59.53.75l-.41-.14c-.28.12-.07.59-.44.56.45.46-.18-1.52.13-.94-.38.07.55.82,0,.61-.05.36.36.75-.05,1,.07-.09-.57-.37-.56-.07,0,.53.19.17.3.6l.16.27c.41.05-.1.45.39.29-.35,0,.15.73-.54.66l-.54-.09c0,.23.58.38.83.55a.46.46,0,0,1-.25.07c.84,0-.05.53.6.77a1.74,1.74,0,0,0-.17.78.63.63,0,0,1-.28.62c.29.33.63.6.5,1-.09-.07-.12-.18-.3-.17-.22.29,0,.32.17.52-.15,0-.38.58-.6.93.32.29.74.07,1,.05-.71.5.71.82.13,1.38-.16-.07-.55-.37-.66,0-.68.55.79.44.58,1.05l.61-.34c-.33.36.61.57-.06.76.27.08,0,.65.61.34a2.24,2.24,0,0,0,.4,1.34,1.14,1.14,0,0,1,0,1.34c.16,0,.22.37.48.14s-.37-.11-.19-.3c.07.09.24,0,.33,0,0,.3.06.51-.54.57,0,.74,1.24-.05,1.46.67-.25.13-.3.24-.14.39l.62.05c.19.45-.34.6-.71.89.21.17.39.45.74.31l-.24.61c.17-.45.36,0,.53,0h-.17c-.12.16.18.31.32.39.19-.22.08-.53,0-.71.24,0,.34.15.63.12-.38.26,0,.53.13.72s.48-.1.52,0c-.17.17.24.29-.12.4-.12,0,0-.29-.22-.23,0,.22-.32.51.13.51s.59-.68.72-.17c-.17,0-.31.12-.49.18l.15.47.3-.3c0,.12-.09.12-.11.18.4-.24.57.35,1,0,.2.1.17.5.3.66h-.05c0,.34.41.43.75.33l-.07.06a.63.63,0,0,0,.66.16c.11.44-.8,1.36-.17,1.14.32.18.89-.35.92-.65a1.6,1.6,0,0,0,.82.51.93.93,0,0,1,.71.66c.16-.11.15-.23.36-.24.74.62,1.93.28,2.31,1.35-.3.06-.15.38-.22.61.33-.26.14.45.41-.13.1-.37.17-.53,0-.75.58,0,1.36.17,1.56.6-.1-.21,0-.29.18-.37-.19.58.19.78.54.61l.11-.35.12.4c.14-.09.27-.73.5-.33a1.06,1.06,0,0,0,0,.4c.37-.25.85-.64,1.14-.33l.22.56c.16-.05.43-.36.19-.53.54.37.91.44,1.08.91a5,5,0,0,1,3.54-1.28v.27c.34.22.09-.49.33-.33-.06.27.32.53.13.88.5.24.49-.56.74-.74,0-.37-.18.27-.21-.19,0-.14.64.14.59-.41a1.47,1.47,0,0,1,.15.83l.2-.32c.49.54-.49,1.28,0,2l.25-.14c.39.5-.58.79.15.83.24-.34.29-1.16,0-1.34.55-.28-.05-1.3.55-1.42.25.27-.45.2-.22.6.41.37.49-.41.78-.34-.33-.1-.26-.71-.13-.86.37.15,0,.56.41.47,0-.33.26-.67-.13-.77-.1-.72.48,0,.51-.55.31.43,0,1.23.53,1.31-.23-.41.31-.84-.19-1.4.21.05.38.39.37.73.36.16.23-1.08.7-.24l-.12-.49c.14.12.3.18.54.36.23-.08.38-.92.7-.25,0-.11.52-.35.09-.7-.44-.12-.15.52-.64,0,.47.39.38-.3.44-.56l.17.24c0-.15.29-.23.19-.53a.38.38,0,0,0,.26.35l-.12-.44c.27-.4.5.61.81.28,0,.16-.07.31-.11.46,0-.1.39.19.49-.07-.13-.37-.3-.87-.41-1.17.1-.29.35.31.31-.17v.58a.69.69,0,0,0,.84.21c.1-.24,0-.9-.39-.88a.38.38,0,0,1,.54.27c.23-.33-.3-.32-.19-.7a11.51,11.51,0,0,0,1.27.28l.16.75.19-.16c.1.63.39.21.61.77.19-.05.23-.34.25-.56-1-.36-.41-1.28-1.09-1.8.32-.55,1.7,1.19,1.26-.22-.23-.07-.47-.74-.57-.28.33-.22-.42-.77.14-.86,0,.48.87.3.89,1-.18-.21-.35.06-.35.18.35.1.58.6.87.29.13-.24.36-.51,0-.76s-.23.32-.47-.12c.22-.47.82-.07.3-.78-.14.3-.56,0-.81-.19a2.57,2.57,0,0,0,.07-.4l.2.26c.52-.3-.34-.5.05-.86l.65.18c.34.43-.68.48.06.95.26-.26,0-.63.37-.76,0,.1,0,.2,0,.31.1-.08,1.11.5.9-.33,0-.37-.21-.23-.47-.43.23-.55,0-.88.2-1.21.5.4.41-.53.74.16-.43,0-.84.69-.45,1.22.75.26-.35.33.17.87.32-.37.91.07,1.36.28.11-.1,0-.34,0-.45-.34-.31-.44-.15-.83-.41A1.29,1.29,0,0,0,431,409c.29,0,.66.24.58.45a6.17,6.17,0,0,1,1-1.75c-.86,0,.16-.7-.53-.71a.9.9,0,0,1-1.13-.06c.13-.16.29.14.47.14-.25-.39.78-.09.28-.58,0,.63.79.47,1.29.81-.14-.55.38.19.54-.23a4.6,4.6,0,0,1-.12-1.63c.7-.41.43-1.49.56-2,.34-.21,1,.13,1.13-.17s-.76.13-.36-.35l.12.07c-.12-.18.63-.94-.29-1.23l.68.27c.09-.09-.06-.21-.12-.31.23,0,.47-.06.59.13.57-.28,0-.76,0-1.13l-.44.2c-.29-.66.18-1.06.06-1.69l.42,0-.26-.38c.41.1.66-.25.32-.45.34.32.7.66,1,1-.26.27-.49-.32-.9-.15s-.31.71.09.84c.06-.23,0-.25-.16-.43.58-.05.53.3.91.5,0-.12.17-.29,0-.33a1,1,0,0,1,.27.92c-.2-.29-.37.12-.52,0,.5.07.63.48.44,1-.64.26.21,1-.05,1.55a2.73,2.73,0,0,1-1-1.07c-.32.3-.06.39-.38.69.35.23.91.47,1,1l-.37-.06c.09.45.62.59.37,1.1a11.22,11.22,0,0,0-.55,1.32c-.19.41-.36.8-.51,1.13l-.37-.11c.62.68-.21,1.36-.15,2a2.92,2.92,0,0,0-.69,1.25c-.18.41-.38.75-.79.78-.16.38-.31.75-.47,1.12s-.37.69-.57,1-.43.66-.67,1a9.13,9.13,0,0,1-.88.88l-.2-.58c.09.49-.37-.08-.51.19.55.06.13.69.22,1.09-.84.23-1.27,1.18-1.56,1.95l-.25-.28c-.11,1-1.19,1-1.94,1.36-.17-.07-.49-.3-.69-.14-.07.76-.31.85-.72,1.53a3.83,3.83,0,0,1-1.82.45,5.42,5.42,0,0,1-2.5,1.54l-.7.26-.71.2a8.9,8.9,0,0,0-1.42.56l-.22-.41a5.49,5.49,0,0,1-3,.82A15.12,15.12,0,0,0,412,424l.2-.76a.74.74,0,0,0-1.1.66,1.92,1.92,0,0,0-.9-.05c-.31,0-.59-.06-.7-.4-.51-.24-.71.23-1.18.25a6.2,6.2,0,0,0-2.42-.7l.23.11c.16-.13.26-.44,0-.55-.43.12-1.24-.62-1.19.36a3.35,3.35,0,0,0-1.68-.73,2.3,2.3,0,0,1-1.53-1c0,.26-.29.18-.48.28a4.66,4.66,0,0,1-.62-.4l-.54-.49a2,2,0,0,0-1.17-.6c-.06-.19.44-.22.13-.46-.25,0-.19.27-.51.23a4.66,4.66,0,0,1-1.83-1.49,9.13,9.13,0,0,0-1.43-1.76,17.42,17.42,0,0,1-4.71-5.91l.17-.06c-1-.43-.14-2-1.38-2.19.08-.24-.17-.73.2-.72-.34-.21-.37-.69-.43-1.18a2.17,2.17,0,0,0-.54-1.38c0,.09,0,.13.15.2a2.64,2.64,0,0,0-.19-1.35,2.29,2.29,0,0,1-.15-1.38c.09.08.17.25.35.25.3-.42-.88-.78,0-1.1,0-.21-.46-.1-.41,0,0-2.15-.46-4.42-.35-6.73.8-1.52,1.48.15,1-1.2.19-.07-.31-.15-.13-.13-.16-.54,1.1-.51.75-.93-.57,0-.24-.29-.55-.39.61-.85,1.1-.87,1-1.72l.25.15c-.43-1.1.31-1.92-.18-3a25.84,25.84,0,0,1,9.42-11.65,32.1,32.1,0,0,1,6.92-3,20.41,20.41,0,0,1,7.51-.69,2.43,2.43,0,0,0,2.54.61c-.07.11-.15.13-.08.25.14-.62.9.07,1.11-.49.92.23,1.81.34,2.69.59a16.27,16.27,0,0,1,2.68.79c-.31-.05-.62.37-.28.46l.5-.23v.19c.26,0,.63-.18.47-.46a15.16,15.16,0,0,1,6.22,3.79,35.94,35.94,0,0,1,2.47,2.63l1.11,1.39c.38.45.74.92,1.09,1.39a10.05,10.05,0,0,0,1,1.65c.39.57.82,1.13,1.18,1.64.94,3.63,1.11,6.72,2,10.18A3.29,3.29,0,0,1,436.47,395.24Z"/><path class="cls-3" d="M437.09,398c-.3.13-.46.5-.88.21C436.5,398.16,436.81,398,437.09,398Z"/><path class="cls-3" d="M432.33,406.68c.08.05-.16.07-.22.08s-.18-.31,0-.32C432.09,406.55,432.23,406.59,432.33,406.68Z"/><path class="cls-3" d="M431.19,408.62c-.23-.17-.2-.69-.11-.95Z"/><path class="cls-3" d="M429.16,409.73c-.29,0-.36-.1-.23-.29C429.05,409.51,429.07,409.62,429.16,409.73Z"/><path class="cls-3" d="M429.58,410.21c-.1.14-.28.11-.46.08C429.32,410.42,429.24,409.9,429.58,410.21Z"/><path class="cls-3" d="M426.1,412.88c-.07.08-.09.4-.36.23C426,413.2,425.89,412.52,426.1,412.88Z"/><path class="cls-3" d="M424.8,414.44c-.06,0-.11,0-.13.1-.17,0-.18-.27-.11-.34Z"/><polygon class="cls-3" points="393.91 405.03 394.11 405.2 393.85 405.25 393.91 405.03"/><path class="cls-3" d="M395.55,388.66c0-.29.31,0,.36,0C395.83,388.82,395.65,388.4,395.55,388.66Z"/><polygon class="cls-3" points="400.89 380.85 400.83 380.9 400.53 380.42 400.89 380.85"/></svg>