<svg id="Layer_1" data-name="Layer 1" xmlns="http://www.w3.org/2000/svg" viewBox="0 0 805.72 281.3"><defs><style>.cls-1{fill:#319940;}.cls-1,.cls-2{stroke:#75c967;stroke-miterlimit:10;stroke-width:5.77px;}.cls-2{fill:none;opacity:0.5;}.cls-3{fill:#fff;}</style></defs><path class="cls-1" d="M799.37,83c-49.47,76.48-88.06,95.52-114.71,98.12-38.79,3.77-55.23-27-92.07-8.36-39.46,20-38.14,64.2-73.91,84.43-50.62,28.62-70.57-50.13-136.55-33.11-47.16,12.16-52.79,56.49-89.76,54.26-47.52-2.88-45.57-76.55-99.89-96.95-46.3-17.38-68.71,28.26-115.79,10.19-35.88-13.77-58.31-53.87-71.27-83.92,30.33,12.09,69.87,18.28,112.84-4.35,50.62-26.67,62.85-70.62,103-74.25C269.37,24.71,273,86.49,321.54,81.11c45.49-5,55.13-60.76,100-58.42,33,1.72,40.15,32.52,73.43,24.33,27-6.64,30.95-29.52,55.35-40.1C593.23-11.7,618.33,38.59,669,68,696.09,83.7,738.12,97.83,799.37,83Z"/><path class="cls-2" d="M5.42,107.66c15.68,20,41.19,45.09,75.4,45.53,48.9.63,67.27-49.77,113.47-44.82,39.21,4.2,34.69,41.44,88.81,53.89,12.79,2.94,41.78,9.12,77.6-6.5,30.58-13.34,30-26.81,50.24-31.14,43.13-9.23,54.37,50,90.72,39.75,29.64-8.38,30.43-50.11,64.19-68.5C603.26,75.5,624.22,114.78,670,125.68c27.09,6.44,69.29,4.49,129.34-42.68"/><path class="cls-3" d="M220.71,116.32c0,.63-.06,1.65-.17,3.06l-2.46,7.74V169.7h-11.9V127.46l3.59-7.74h-6.71v-11h12.19Q220.88,108.76,220.71,116.32Z"/><path class="cls-3" d="M247.83,157.8h-11.9V121.93c0-1.47-.85-2.21-2.55-2.21h-2.89v-11h12.83c3,0,4.51,1.84,4.51,5.52Z"/><path class="cls-3" d="M299.08,157.8H256.75V127.46l3.38-7.74h-3.38v-11h11.81q5.54,0,5.53,4.59v6.37h-3l-2.46,8.08v19h18.53V130.09q0-6.12-3.49-7.56l-1.95,4.84h-7.06l7.34-19q7,0,12,6a19.88,19.88,0,0,1,5,13Z"/><path class="cls-3" d="M342.51,157.8h-11.9V123.29c0-2.38-1.07-3.57-3.23-3.57H306v-11h26.71a9.25,9.25,0,0,1,7,3,10.15,10.15,0,0,1,2.82,7.18Z"/><path class="cls-3" d="M393.34,137.23a20.26,20.26,0,0,1-6.16,15,21.12,21.12,0,0,1-36.17-15V127l4-7.23h-4v-11h37q3.49,0,4.61,2.46a17.16,17.16,0,0,1,.6,5.61Zm-11.9.12V122c0-1.52-.79-2.29-2.38-2.29H362.91v17.46a8.94,8.94,0,0,0,2.64,6.56,8.81,8.81,0,0,0,6.54,2.67,9.19,9.19,0,0,0,6.55-2.67A8.49,8.49,0,0,0,381.44,137.35Z"/><path class="cls-3" d="M464.23,157.8h-11.9V123.29q0-3.57-3.23-3.57H427.68v-11h26.71a9.25,9.25,0,0,1,7,3,10.15,10.15,0,0,1,2.82,7.18Z"/><path class="cls-3" d="M491.85,157.8H480V121.93c0-1.47-.85-2.21-2.54-2.21h-2.89v-11h12.83q4.5,0,4.5,5.52Z"/><path class="cls-3" d="M529.76,157.8h-9.71l-3.21-9.35-3.31,9.35H500.78l4.25-11h11.81l-2-24.57a12.36,12.36,0,0,0-.09-1.44c-.23-.74-1.53-1.11-3.91-1.11h-3.32v-11h13.22a4.77,4.77,0,0,1,4.11,2.55,11.47,11.47,0,0,1,1.46,4.84Z"/><path class="cls-3" d="M579.23,137.23a20.26,20.26,0,0,1-6.16,15,21.12,21.12,0,0,1-36.17-15V127l4-7.23h-4v-11h37q3.49,0,4.61,2.46a17.16,17.16,0,0,1,.6,5.61Zm-11.9.12V122c0-1.52-.79-2.29-2.38-2.29H548.8v17.46a8.94,8.94,0,0,0,2.64,6.56,8.81,8.81,0,0,0,6.54,2.67,9.19,9.19,0,0,0,6.55-2.67A8.49,8.49,0,0,0,567.33,137.35Z"/></svg>