<svg id="Layer_1" data-name="Layer 1" xmlns="http://www.w3.org/2000/svg" viewBox="0 0 805.72 281.3"><defs><style>.cls-1{fill:#319940;}.cls-1,.cls-2{stroke:#75c967;stroke-miterlimit:10;stroke-width:5.77px;}.cls-2{fill:none;opacity:0.5;}.cls-3{fill:#fff;}</style></defs><path class="cls-1" d="M799.37,83c-49.47,76.48-88.06,95.52-114.71,98.12-38.79,3.77-55.23-27-92.07-8.36-39.46,20-38.14,64.2-73.91,84.43-50.62,28.62-70.57-50.13-136.55-33.11-47.16,12.16-52.79,56.49-89.76,54.26-47.52-2.88-45.57-76.55-99.89-96.95-46.3-17.38-68.71,28.26-115.79,10.19-35.88-13.77-58.31-53.87-71.27-83.92,30.33,12.09,69.87,18.28,112.84-4.35,50.62-26.67,62.85-70.62,103-74.25C269.37,24.71,273,86.49,321.54,81.11c45.49-5,55.13-60.76,100-58.42,33,1.72,40.15,32.52,73.43,24.33,27-6.64,30.95-29.52,55.35-40.1C593.23-11.7,618.33,38.59,669,68,696.09,83.7,738.12,97.83,799.37,83Z"/><path class="cls-2" d="M5.42,107.66c15.68,20,41.19,45.09,75.4,45.53,48.9.63,67.27-49.77,113.47-44.82,39.21,4.2,34.69,41.44,88.81,53.89,12.79,2.94,41.78,9.12,77.6-6.5,30.58-13.34,30-26.81,50.24-31.14,43.13-9.23,54.37,50,90.72,39.75,29.64-8.38,30.43-50.11,64.19-68.5C603.26,75.5,624.22,114.78,670,125.68c27.09,6.44,69.29,4.49,129.34-42.68"/><path class="cls-3" d="M312.14,188.65h-14v-55.8c0-2-.87-3-2.6-3h-22.3V117h33.7a4.34,4.34,0,0,1,3.75,2.25,8.45,8.45,0,0,1,1.45,4.65Z"/><path class="cls-3" d="M393.64,159.75A14.81,14.81,0,0,1,389.37,170q-4.28,4.65-9.73,4.65h-56.1v-35.5l4-9.3h-6.7V117h15.25a4.34,4.34,0,0,1,3.36,1.5,5,5,0,0,1,1.36,3.5v7.9h-3.3v31.9h13.9v-29.1a2.57,2.57,0,0,0-2.3-2.7c-.4-.06-1.73-.1-4-.1V117h16.52q3.88,0,3.88,4.8v40h10.17q3.93,0,3.93-3.7v-25.3a2.62,2.62,0,0,0-2.32-2.8c-.33-.06-1.74-.1-4.23-.1V117h16.46q4.09,0,4.09,7.4Z"/><path class="cls-3" d="M457.74,174.65H426v-12.9h17.8V142.81a13.49,13.49,0,0,0-3-9.12,10.7,10.7,0,0,0-8.55-3.54q-5.5,0-8.45,3.54a13.8,13.8,0,0,0-3,9.13v31.83h-14v-34.5q0-6.5,2.88-10.3h-6.88V117h12.92a2.89,2.89,0,0,1,1.49.6,4.67,4.67,0,0,1,2,2.8V124q8.72-7.4,15.54-7.4,10.73,0,17,7.9,5.93,7.3,5.92,18.2Z"/><path class="cls-3" d="M517.14,174.65h-14v-41.6c0-1.4-.28-2.28-.85-2.65a6.38,6.38,0,0,0-3.15-.55h-33.3V117h44.1q7.2,0,7.2,7.7Zm-37,0h-14.2v-33.1h14.2Z"/></svg>