<svg id="Layer_1" data-name="Layer 1" xmlns="http://www.w3.org/2000/svg" viewBox="0 0 549.89 807.24"><defs><style>.cls-1{fill:#38c682;}.cls-2{fill:#2c795e;}</style></defs><path class="cls-1" d="M544.28,122.87,107.37,6.16Q55.77,382.27,4.16,758.39l409.57,45.08Z"/><path class="cls-2" d="M224.43,40.25l-5.68-1.75C218.81,38.62,220.24,39.09,224.43,40.25Z"/><path class="cls-2" d="M451,594.23l.21-1.4C451.06,593.82,451,594.13,451,594.23Z"/><path class="cls-2" d="M88,113.84l0-.32.16-1.53Z"/><path class="cls-2" d="M296,52.39C219.1,31.58,199,25.15,119.12,4.25L103.28,0c-2.67,19.67-5.41,39.85-8.12,59.89-2.43,18.2-4.85,36.28-7.17,53.63-1.7,18.2-6.85,50.06-9.13,71.57l-1.59,8.24c-.79,7.4-1.82,16.09-3.08,23.47l-.06-.49c-1.18,11.07-3.09,23.48-3.67,29l-.07-.48-1.78,13.4.14-2.33c-2.29,19.27-5,39.08-7.54,56.51L62,311c-5.72,37.23-6.48,51-11.82,84.63l-.06-.48c-4.43,42.77-10.2,67.17-14.88,111.25.58-5.5-.6,2.3-.67,1.84C31.9,528.49,29,550.09,30,550.55c-2,14.73-2,12-2.64,13.81.23,0,0,3.19-.57,7.83s-1.3,10.73-2.07,16.47l.54-5.31-4.36,33L22.69,610C20,627.41,21,614.27,18.93,631l.76-.11c-3.46,24.14-6.5,38.17-10.25,61.49Q7.21,708.57,5,725,2.49,743.21,0,761.63l120.17,12.63c38.35,4.08,75.81,8.23,111.09,12.61l4,1c1.66,1,25.17,1.58,28.55,2.7l10.6.79c2.95.47,9.19,1.31,3.91.91,9.76,1.11,10,1,17.07,1.54l10.42,1.65c18.55,2.23,35.8,4,53.23,5.75l26.48,2.69,13.7,1.44,17.35,1.91c.44-2.26.9-4.65,1.37-7q1-4.63,2-9.75c.67-3.31,1.38-6.77,2.11-10.35l4.53-22.88c3.13-16.06,6.44-33.53,9.73-51.13,6.57-35.21,13.06-71,17.79-97.11,12.9-73.56,32.39-158.27,45.45-233.62.29-1.21.68-3.41,1-5.3.14-.95.27-1.82.36-2.45a4.71,4.71,0,0,0,.1-1l13.3-68.71s64.21-333.17,9.13-81.26l.16-1.73c-7.63,37.54-12.27,61.2-16.38,87.3-1.84,3.9-6,30.88-8.06,39.62l.07-.85c-3.59,23.11-9.74,47.13-13.26,69.39a33.69,33.69,0,0,1,.84-6.49c-2.95,16.14-6.95,38.22-7.79,39.3-7.22,38.52-17.81,92.19-21.56,117l.15-1.72c-2,14.18-3.39,18.21-6.06,34-.25.84-.5,1.94-.5,1.76-2.29,15.43-8.47,44.7-10.57,57.13l-.56.72-5.75,30.51,2.27-11.38c.37,4.16-5.13,22.92-8.64,45.17-4.11,20.67-5.71,42.41-10.38,63.8-1.44,10.35.87-9.19-1.66,6.21-.68.38,1-7.23-.22-3.37-.65,3.72-1.3,7.11-2,10.37-.34,1.63-.67,3.23-1,4.83-.21.92-.42,1.85-.64,2.78l-3.1-.44-5.51-.67c-3.82-.44-8-.88-12.76-1.31l-.72-.54c-24.58-1.85-46.15-5.7-62.54-6.69-25.3-2.4-16.79-3.23-43.2-5.22l-10.15-1.75c-11.25-1.34-8.15-.13-20.59-1.8.8-.31-15.74-2.05-8.39-1.62-28.18-3.73-57.44-5.44-94.53-10.57-8.16-.13-26.84-2.64-32.93-2.73-1-.45-37.53-4.19-16.42-2.6a30,30,0,0,1,4.77.61l2.57-.18c-21.12-3.19-38.6-3.77-59.59-6.21,6.21.83,14.5,1.71,8.93,1.41l-19.5-2.21,4.1.06-29-3.42,4,.92c-2.56-.33-4.81-.64-6.88-.94l-.38-.05-.2,0H9.76l-.16,0-.28-.08-.46-.16.29-.88v-.05l0-.25.1-.61.2-1.24.38-2.56c.5-3.53,1-7.53,1.48-12.67.61-7.29-2.48,13.33-.58-1.65,2.92-18.9,7.3-47.22,10.76-71.39-.84,2.19.08-4.32.89-11l.56-.71c2.88-25.76,2.31-9.27,5.29-34.82l0,2.29,0-6.86c2.24-23.11,2.65-12.26,4.91-38-1.31,10.11-1.67,4.62.24-7.78v3.21c.85-6.89,1-9.22,1.7-13.78-.32,4.13.35,2.25,1.66-7.87l-.37,6.85,1.8-19.23c2.51-14.7,5.12-38.18,6.58-44.15,0,0,4.66-31.7,5-39.08-.45,6.44,2.12-11,1.94-6,.64-8.29,3.58-32.64,5.43-42.29l-.2,1.84c5.47-35.9,7.72-61.61,12.79-93.8-.74,1.4,1.89-15.61.63-11.49,3.91-33.49,9.75-60.7,9.29-73.05,2-15.21,3-17.94,4.15-25.77l-.38,3.63c3.73-28.49,4.84-36.75,7.79-57.89,1.24-10.58.49-12.38,3.32-31.26-.45,6.18.54-1.56,1.51-8.64-.56,4.53-.61,6,.93-3.3.06-1.33.26-3.36.46-5.26,0-.07.12-.44.13-.24,1.48-11.83,1.08-9.79.27-4.32,0-.28-.16.17-.5,1.85,2.19-12.18,4.66-34.17,5.53-35.56,1.37-10.32,2.58-19.79,3.69-28.76.56-4.48,1.09-8.83,1.62-13.1.26-2.14.51-4.25.77-6.35.13-1.22.27-2.43.4-3.63l2.37.56,3.85.95,8.74,2.2,17.76,4.52c3.15,1.2-3.67-.3-12.07-2.4l20.48,5.34c-.31.43-11.82-2.86-18.14-4.45,24.13,7.29,50.38,12.63,78.72,21l6,1.19,1.69.52c0-.22,6.44,1.21,10.69,2.28,3.92,1.5-.54.89,13.59,4.64,11.06,3.39,31.8,8.28,46.49,12-7.87-2.18-5.26-1.73-1.83-1,7.07,1.88,11,3.39,16.53,4.66l.53.75c-2.64-1.28,18.61,4.35,21.28,4.82,3.91,1.49-11.06-2.57-12.91-2.72l42.51,11.27c15.23,3.61-2.6-1.27,4.76.16,13.37,3.45,26.5,6.54,41.72,11l-4.71-1.8c25.17,6.31,40.16,10.37,56.91,15.39,187.86,45.78,40.85,4.9,40.85,4.9C421.93,84,383.59,75.37,296,52.39Z"/><path class="cls-2" d="M362.21,120.64l4.16.64C366.31,121.17,365.26,121,362.21,120.64Z"/><path class="cls-2" d="M97.52,438l0-1C97.52,437.71,97.51,437.94,97.52,438Z"/><path class="cls-2" d="M502.21,152.14l0-.22c.05-.35.11-.76.16-1.08Z"/><path class="cls-2" d="M310.72,122.21c56,5.92,70.74,8.43,128.82,13.89l34.85,3.49,17.51,1.69,8.67.83,2.15.21.87.08H504l0,.31v.08l0,.18-.34,1.82q-.69,3.62-1.36,7.12c-1.69,12.83-6.81,35.06-9.08,50.19l-1.57,5.72c-.79,5.21-1.82,11.31-3.07,16.46l-.06-.36c-1.17,7.79-3.07,16.46-3.65,20.32l-.06-.34L483,253.3l.13-1.65c-2.27,13.53-4.95,27.41-7.49,39.6l.73-.91c-5.68,26-6.44,35.79-11.74,59.25l-.07-.35c-4.4,30.09-10.13,46.95-14.78,77.95.58-3.86-.6,1.59-.67,1.25-2.6,14.19-5.46,29.32-4.46,29.75-2,10.31-2,8.33-2.63,9.6.47,0-1.08,9-2.62,17.08l.54-3.74-4.34,23.11,1.75-4.36c-2.63,12.19-1.66,2.9-3.73,14.66h.74c-3.43,16.9-6.45,26.62-10.17,42.9q-2.55,13-5.12,26.17-1.26,6.6-2.53,13.23l-1.26,6.63-.37,2-.17,1L340.9,590.66c-25.47-5.52-50.32-11.07-73.73-16.75l-2.66-1.16c-1-1-17.64-2.69-19.88-4l-7.41-1.27c-2-.59-6.34-1.7-2.65-1.07-6.77-1.53-7-1.44-11.9-2.29l-7.17-2.1c-26.66-6.3-49.61-10.41-77.71-16.83-6-1.53-13-3.21-20.7-5l-11.94-2.71-9.33-2.08c.54-6.7,1.1-13.63,1.66-20.56.63-8.08,1.25-16.18,1.86-24,1.15-15.74,2.24-30.57,3.11-42.57,3.37-52.69,11.84-113.59,15.14-167.56.13-.87.23-2.44.29-3.8,0-.67,0-1.29.05-1.74a3.57,3.57,0,0,0,0-.73l4.38-49.27s21-238.93-1.34-58l-.07-1.23c-2.76,26.93-4.32,43.91-5.05,62.58-1.33,2.85-2,22.15-2.93,28.43l0-.6c-.6,16.53-3.62,33.83-4.26,49.76a16.7,16.7,0,0,1,0-4.64c-.86,11.57-2,27.39-2.69,28.2-2.23,27.61-5.85,66.11-6.39,83.88l-.06-1.23c-.2,10.14-1,13.06-1.67,24.35a8.18,8.18,0,0,1-.27,1.27c-.28,11-2.67,32.05-3.15,40.95l-.47.54-1.79,21.87.79-8.16c.9,2.93-2.14,16.47-2.78,32.39q-.3,3.15-.46,6.35-.21,4.15-.42,8.36l5.78,1,4.2.64,8.13,1.23c5.43.87,10.85,1.87,16.22,3.27,7.32,1.07-6.53-.56,4.32,1.42.22.67-5.11-.74-2.44.34,10.63,2.06,17.2,4.43,30.33,6.93l.43.57c17.19,2.94,32,7.71,43.45,9.43,17.62,3.51,11.46,4,29.93,7.12l7,2.18c7.79,1.83,5.76.49,14.36,2.71-.61.27,10.88,2.74,5.73,2,19.48,5,40,8,65.6,14.71,5.78.49,18.69,3.82,23,4.19.62.48,26,5.83,11.28,3.3a14.92,14.92,0,0,1-3.3-.82l-1.85.06c14.55,4.11,26.87,5.47,41.42,8.83-4.28-1.1-10-2.34-6.13-1.79l13.53,3.06-2.9-.25,9.69,2.26,13.94,3.2.27-1.35-.36,1.21-3.82-1.2,3.59.86,1.12-5.12.54-2.4.26-1.16.18-.76c.43-1.68.82-3.25,1.2-4.89a120.28,120.28,0,0,0,2.15-12c.62-5.13-2.46,9.28-.56-1.22,2.9-13.21,7.25-33,10.69-49.91-.83,1.48.07-3.07.88-7.79l.56-.45c2.87-18.1,2.29-6.39,5.26-24.33V507l0-4.9c2.23-16.27,2.64-8.49,4.89-26.62-1.3,7.08-1.66,3.13.24-5.53v2.29c.84-4.84,1-6.48,1.69-9.67-.32,2.91.34,1.64,1.65-5.46l-.37,4.86,1.79-13.55c2.49-10.25,5.09-26.75,6.53-30.88,0,0,4.64-22.17,5-27.4-.45,4.55,2.1-7.68,1.92-4.09.64-5.85,3.56-22.95,5.4-29.66l-.2,1.3c5.43-25.09,7.68-43.22,12.71-65.7-.73.93,1.89-11,.63-8.14,3.89-23.52,9.69-42.38,9.24-51.23,2-10.66,2.94-12.51,4.12-18l-.38,2.56c3.71-20,4.81-25.76,7.75-40.56,1.23-7.43.49-8.79,3.3-22-.45,4.35.53-1.07,1.5-6-.56,3.18-.61,4.19.92-2.27,0-.47.1-1.06.18-1.7,0-.24.13-.89.21-1.37s.16-1,.25-1.55c.05-.09.15-.5.15-.3.44-2.43.79-4.32,1-5.6-6-.5-4.29-.25-.28.2l-.19,1c0-.25-.2.31-.66,2.1.2-.89.41-1.84.66-2.91l-5.1-.61-4.75-.53-7.38-.77c-4.6-.48-8.23-.9-8.68-1.26-25.23-2.39-43.31-3.52-64.31-5.38-2.32-.58,2.61-.4,8.71.09l-14.89-1.38c.18-.49,8.58.58,13.17.94-17.64-2.6-36.61-2.89-57.3-5.73l-4.35,0-1.23-.19c0,.22-4.65,0-7.74-.22-2.89-.73.31-1-10-2-8.09-1.24-23.13-2.13-33.8-3,5.73.66,3.86.71,1.37.61-5.14-.5-8.06-1.24-12.05-1.45l-.44-.64c2,.76-13.49-.76-15.41-.71-2.89-.73,8,.43,9.33.23l-30.94-3c-11-.67,2,.76-3.37.74-9.72-.87-19.24-1.42-30.36-2.9l3.48.88c-18.29-1.45-29.2-2.61-41.44-4.38-136.39-9.51-29.23,2.89-29.23,2.89C219.19,114.89,247,116.17,310.72,122.21Z"/><path class="cls-2" d="M358.25,138.74l3.78.59C362,139.22,361,139,358.25,138.74Z"/><path class="cls-2" d="M116.87,427.54l0-.9A6.76,6.76,0,0,0,116.87,427.54Z"/><path class="cls-2" d="M478.92,171.82l0-.2c0-.32.09-.69.13-1Z"/><path class="cls-2" d="M311.43,140.86c50.85,5.31,64.25,7.66,117,12.48l29.05,2.87,14.62,1.38,7.25.68,1.63.15h.41l0,.36q-.36,2-.72,3.87c-.58,3-1.14,6-1.69,9-1.46,11.66-6.17,31.85-8.16,45.6l-1.47,5.2c-.69,4.73-1.61,10.27-2.76,14.94l-.07-.32c-1,7.08-2.76,15-3.27,18.47l-.07-.32-1.6,8.53.1-1.5c-2,12.3-4.44,24.9-6.76,36l.72-.82C450.41,321,449.83,329.91,445,351.2l-.08-.32c-3.85,27.36-9.26,42.64-13.35,70.82.51-3.51-.56,1.44-.63,1.13-2.35,12.89-4.93,26.64-3.93,27.05-1.83,9.37-1.8,7.56-2.44,8.71.46,0-.93,8.21-2.32,15.53l.48-3.4-3.91,21,1.66-3.95c-2.4,11.07-1.6,2.62-3.46,13.31h.74c-3.12,15.35-6,24.16-9.37,38.94q-2.3,11.78-4.64,23.74-1.12,6-2.28,12c-.37,2-.75,4-1.13,6l-.27,1.48-.15.88-66.74-14.31c-23.15-5-45.72-10.12-67-15.35l-2.41-1.1c-.92-1-16-2.36-18.06-3.57L239,548.67c-1.84-.56-5.75-1.59-2.39-1-6.15-1.4-6.33-1.3-10.82-2.06l-6.49-2c-24.21-5.79-45.07-9.46-70.58-15.35-4.94-1.27-10.6-2.65-16.78-4.11l-16.54-3.79c.53-6.25,1.08-12.77,1.63-19.33.6-7.72,1.22-15.5,1.82-23.08,1.12-15.16,2.18-29.52,3-41,3-47.87,11.15-103.14,14.12-152.17.13-.79.22-2.22.27-3.45a16.36,16.36,0,0,0,0-2.24l4.08-44.75s19.56-217-1.68-52.7l-.08-1.12c-2.59,24.46-4.06,39.87-4.68,56.84-1.31,2.57-1.89,20.11-2.75,25.82l0-.55c-.5,15-3.42,30.71-4,45.18a13.33,13.33,0,0,1,0-4.21c-.8,10.5-1.83,24.88-2.53,25.6-2.06,25.08-5.45,60-5.88,76.19l-.07-1.12c-.14,9.22-1,11.86-1.52,22.12a9.34,9.34,0,0,1-.26,1.15c-.22,10-2.48,29.11-2.91,37.2l-.46.48-1.67,19.86.75-7.41c.91,2.67-2,14.95-2.59,29.42-.26,2.65-.42,5.34-.53,8l-.32,9.8,4.31.71,2,.32,1.56.22q3.12.45,6.26,1c4.16.69,8.33,1.5,12.44,2.59,6.65.94-5.95-.43,3.91,1.34.19.66-4.64-.65-2.23.38,9.66,1.86,15.61,4.1,27.53,6.35l.39.56c15.62,2.62,29,7.1,39.46,8.6,16,3.18,10.37,3.73,27.16,6.55l6.31,2c7.07,1.68,5.25.38,13.05,2.43-.57.28,9.87,2.53,5.18,1.87,17.68,4.58,36.35,7.2,59.57,13.46,5.27.38,17,3.47,20.9,3.75.56.47,23.65,5.33,10.23,3.08a12.24,12.24,0,0,1-3-.75l-1.69.09c13.19,3.83,24.41,5,37.62,8-3.89-1-9.12-2.15-5.57-1.68l12.29,2.8-2.64-.19,8.83,2.08,13.08,3,.23-1.11-.31,1-3.62-1.18,3.39.83,2-8.86c.41-1.62.76-3,1.11-4.47a98.23,98.23,0,0,0,1.93-10.92c.52-4.67-2.29,8.42-.59-1.12,2.66-12,6.65-30,9.77-45.33-.8,1.34,0-2.8.74-7.08l.55-.4c2.54-16.46,2.17-5.79,4.81-22.1l0,1.49-.12-4.46c1.93-14.81,2.47-7.71,4.39-24.2-1.17,6.44-1.59,2.83.14-5l.05,2.09c.76-4.39.86-5.89,1.51-8.79-.26,2.66.38,1.51,1.55-4.94l-.28,4.42,1.55-12.32c2.29-9.31,4.59-24.31,6-28,0,0,4.22-20.14,4.44-24.9-.37,4.14,2-7,1.84-3.7.53-5.33,3.14-20.86,4.85-26.95l-.17,1.18c5-22.78,6.88-39.27,11.5-59.68-.71.83,1.68-10,.48-7.41,3.46-21.38,8.9-38.47,8.29-46.55,1.77-9.69,2.72-11.36,3.79-16.34l-.33,2.33c3.34-18.15,4.34-23.41,7-36.85,1.1-6.75.33-8,2.9-20-.37,4,.51-1,1.39-5.46-.5,2.89-.53,3.8.88-2.05,0-.86.21-2.16.39-3.38,0,0,.1-.27.12-.14.38-2.2.65-3.75.83-4.78.23-1.36.32-2,.32-2.14s-.42,1.66-.93,4.14c0-.18-.16.09-.47,1.15l.19-.75.21-.9c.18-.79.36-1.62.55-2.47.36-1.73.73-3.54,1.12-5.39l-13.29-1.38c-3-.33-5.2-.63-5.53-.91-22.91-2.12-39.35-3.05-58.43-4.68-2.11-.56,2.38-.42,7.92,0l-13.53-1.21c.17-.49,7.8.48,12,.79-16-2.4-33.26-2.49-52.06-5.1h-4l-1.12-.18c0,.21-4.23.08-7-.13-2.63-.7.29-1-9.06-1.89-7.35-1.15-21-1.87-30.71-2.6,5.21.59,3.5.67,1.24.6-4.68-.45-7.32-1.15-11-1.32l-.39-.63c1.78.73-12.26-.62-14-.55-2.62-.7,7.28.34,8.48.13l-28.1-2.71c-10-.55,1.76.74-3.07.78-8.84-.76-17.49-1.21-27.59-2.57l3.16.84c-16.62-1.24-26.53-2.29-37.65-3.92-123.93-8-26.6,3.2-26.6,3.2C228.26,134.54,253.51,135.52,311.43,140.86Z"/><path class="cls-2" d="M58.66,705.91l-.54,2.39C58.22,708.27,58.39,707.67,58.66,705.91Z"/><path class="cls-2" d="M266,614.25l-.57-.07A5.43,5.43,0,0,0,266,614.25Z"/><path class="cls-2" d="M127.1,736.05h0Z"/><path class="cls-2" d="M55.9,675.7c-1.59,11.21-2.89,19.55-4.08,27.08-.59,3.76-1.15,7.32-1.72,10.93q-.42,2.71-.85,5.5l-1.54,10.93,16.47,1.34c4.13.33,8.69.65,13.84,1,16.07,1.35,33.24,2.46,49,3.57,7.51-.2,20.63,1.61,29.5,1.64l3.39.72a66.54,66.54,0,0,1,9.67.62l-.2.11c4.57,0,9.68.63,11.95.63l-.2.12,5.52.37-1,.12c7.95.26,16.11.88,23.29,1.6l-.56-.58c15.34,1.81,21.05,1.13,34.88,2.94l-.2.11c17.65-.05,27.66,3.15,45.85,3.22-2.27,0,.94.35.75.47,8.34.5,17.24,1.11,17.46.06,6.07.49,4.91.72,5.67,1.19,0-.46,5.29-.24,10,.1h-2.19l13.59.91-2.6-1.09c7.18.82,1.75,1.21,8.66,1.54l0-.73c9.95.92,15.7,2.48,25.3,3.78l12.2,1,15.73,1.17,1.53-9.42,1-6.08,1.89-12.19c1.27-8.12,2.54-16.22,3.79-24.23,2.56-16,5.21-31.64,8.21-46.27l.82-1.53c.45-.29.59-2.88.74-5.56.07-1.35.14-2.71.26-3.82l.05-.4.09-.62c.06-.4.12-.77.19-1.1a7.79,7.79,0,0,1,.41-1.49l.56-4.8-2.31-.37c-1.79-.51-6.05-1.56-2.34-1l-3.69-.76c-.61-.12-1.08-.19-1.52-.25-.88-.13-1.64-.19-3.08-.36l-4.12-1.37c-15.47-3.61-28.87-5.41-45.18-9-19.44-5.08-56.6-11.85-78-15.74-30.19-5.05-64.37-15.42-95.31-20.45a15.66,15.66,0,0,0-3.6-.51l-28-5.94s-136-28.58-34-.59l-.73,0c15.27,3.61,24.92,5.71,35.69,7,1.45,1.4,12.59,2.73,16.11,3.82h-.36c9.54,1.14,19.16,4.69,28.34,5.84a5.82,5.82,0,0,1-2.7-.16c6.6,1.24,15.65,2.87,16,3.59,15.75,3.1,37.62,8,47.9,9.06l-.73,0c5.88.53,7.45,1.44,13.93,2.44.34.15.78.29.7.31,6.39.64,18.26,3.69,23.38,4.46l.24.47,12.46,2.5-4.63-1.06c1.85-.78,9.27,2.66,18.45,3.81,8.41,1.9,17.61,1.23,26.27,3.6,4.3.35-3.86.09,2.48,1,.08.62-3-.24-1.48.56,6.19,1,9.94,2.69,17.6,3.87l.21.52c10.06,1.22,18.52,4.47,25.26,5,10.27,1.75,6.56,2.77,17.35,4.09a1,1,0,0,1,.3.14l.16.12c.11.07.21.15.3.22a2.06,2.06,0,0,1,.39.4l.23.06a1.32,1.32,0,0,0,.21.86,1.13,1.13,0,0,1,.08.56,26.48,26.48,0,0,1-.49,2.63c-.34-.38-1.4,6.35-1.27,3.32-2.55,11.37-3.07,23.44-6.66,38.38.2,3.41-1.54,10.94-1.38,13.49-.4.35-2.63,15.23-1.91,6.57.07-.75.3-2,.41-1.93l-.27-1.1c-2.31,8.47-2.19,15.74-3.76,24.25.58-2.5,1.1-5.88,1-3.57l-1.4,7.91-.1-1.72-2.22,11.77.75-1.54c-.17.79-.34,1.51-.5,2.18l-.13.49-.06.24a.16.16,0,0,1,0,.06,1,1,0,0,1-.11.17,3,3,0,0,1-.36.39,1.17,1.17,0,0,0-.46-.09l-.11,0h-.07s0,0-.19,0c-.64,0-1.32,0-2.06,0-3,.14,5.48,1.07-.7.74-7.78-.94-19.44-2.35-29.4-3.27.89.61-1.79.38-4.56.27l-.28-.49c-10.63-.19-3.8-1.32-14.34-1.64l1-.25-2.85.76c-9.55.17-5-1.37-15.66-.94,4.17.25,1.88,1.18-3.23.57l1.34-.34c-2.85-.13-3.81,0-5.69-.26,1.71-.11.95-.58-3.23-.83l2.84-.34-7.94.2c-6.05-1-15.74-1.11-18.19-1.93,0,0-13.06-1.34-16.11-.88,2.66-.23-4.54-1-2.44-1.3-3.43.22-13.47-.17-17.44-1h.76c-14.78-1.69-25.4-1.27-38.66-3,.57.58-6.43-.26-4.75.56-13.82-.4-25-3.36-30.12-1.63-6.27-.37-7.38-1.08-10.61-1.44h1.5c-11.74-.74-15.15-1-23.86-1.72-4.36-.14-5.13.8-12.9-.05,2.55-.2-.64-.38-3.55-.6,1.86.08,2.45,0-1.36-.58a17.31,17.31,0,0,1-2.17.09s-.18-.07-.1-.11c-4.87-.24-4-.05-1.78.18-.12,0,.07.14.76.31-5-.91-14.09-1.08-14.64-1.8-14.65-1-25.16-1.11-37.36-1.81-1.34-.45,1.53-.54,5.08-.39L64.55,724c.11-.49,5,.11,7.65.22-3-.47-6-.74-9.13-.93l-2.35-.13-1.19,0-.6,0h-2.5c0-.49.06-1,.1-1.57l.08-.85.22-1.78c.32-2.41.7-4.86,1.19-7.35L58,709l.16-.7c-.21,0-.14-2.72,0-4.51.66-1.64,1,.25,1.75-5.69,1.05-4.63,1.58-13.36,2.17-19.54-.52,3.31-.62,2.2-.58.76.38-3,1-4.62,1.16-6.94l.63-.21c-.71,1.1.44-7.83.35-9,.66-1.63-.25,4.66,0,5.44l2.31-17.86c.41-6.41-.71,1.08-.81-2,.63-5.62,1-11.14,2.17-17.53l-.79,2a199.55,199.55,0,0,1,3.38-23.91c6.27-79-3.55-17.3-3.55-17.3C61,622.73,60.42,638.87,55.9,675.7Z"/><path class="cls-2" d="M79.52,706.33l.83.29C80.39,706.53,80.19,706.42,79.52,706.33Z"/><path class="cls-2" d="M254.12,630.78l-.49,0A2.26,2.26,0,0,0,254.12,630.78Z"/><path class="cls-2" d="M156.49,721h0Z"/><path class="cls-2" d="M75.35,683.77c-.7,5.12-1.33,9.53-1.92,13.51-.3,2-.58,3.87-.85,5.68l-1.39,9.84,7.94.87,2,.21,1,.13,2.08.25,8.65,1c6.06.66,12.94,1.32,21.93,2,13.65,1.37,28.24,2.52,41.6,3.65,6.41-.18,17.52,1.65,25.08,1.7l2.86.72a48.32,48.32,0,0,1,8.23.64l-.18.11c3.89,0,8.22.64,10.16.65l-.18.12,4.7.38-.83.11c6.77.28,13.7.91,19.8,1.65l-.46-.59c13,1.84,17.89,1.17,29.62,3l-.18.12c15,0,23.47,3.19,39,3.29-1.94,0,.79.36.62.48,7.09.51,14.66,1.14,14.87.09,5.15.5,4.16.73,4.8,1.2,0-.46,4.51-.23,8.54.12h-1.87l11.55.93-2.18-1.09c6.09.83,1.45,1.22,7.33,1.56v-.73c8.45.94,13.31,2.51,21.44,3.82l9,.89,12.58,1.14,1.41-8.63c.27-1.74.54-3.49.82-5.23q.79-5.24,1.61-10.49l3.2-20.88c1.09-6.9,2.19-13.73,3.36-20.41q.87-5,1.79-9.9l2.46-12.89-2.61-.59c-.62-.31-1.28-.63-2-1a7.59,7.59,0,0,0-2.85-.74l-.55-.08-.36,0-.77-.07-1.67-.11c-2.28-.15-4.64-.31-5.16-.79l-3.7-.37c-1-.34-3.11-.93-1.27-.74a36.72,36.72,0,0,0-5.92-.84l-3.5-1.21c-13.16-3-24.61-4.36-38.5-7.35-16.53-4.36-48.2-9.77-66.46-12.88-25.74-3.95-54.77-13-81.16-16.94a11.19,11.19,0,0,0-3.08-.38l-23.87-4.92s-115.83-23.58-29.09.62l-.63.05c13,3,21.21,4.79,30.41,5.74,1.21,1.34,10.72,2.27,13.71,3.23l-.3,0c8.14.79,16.3,4,24.14,4.8a4.41,4.41,0,0,1-2.32-.06c5.64,1,13.35,2.3,13.64,3,13.42,2.52,32,6.56,40.82,7.31l-.63.05c5,.32,6.35,1.17,11.88,1.93.28.14.66.26.59.28,5.46.42,15.56,3,19.92,3.61l.2.46,10.62,2-3.94-.89c1.59-.84,7.87,2.32,15.71,3.14,7.16,1.58,15.06.6,22.42,2.65,3.67.19-3.31.22,2.1.89.06.62-2.56-.14-1.28.61,5.28.77,8.46,2.32,15,3.22l.17.51c8.58.85,15.76,3.79,21.52,4.12,8.76,1.37,5.55,2.52,14.77,3.44l3.39,1.33c3.84.87,2.92-.2,7.15,1-.34.33,5.35,1.4,2.77,1.26l.73.19.37.1c.11,0,.08,0,.12,0l.3.11a4,4,0,0,0,.6.14,6,6,0,0,0-.05.61l0,.33a.66.66,0,0,1,0,.11l-.05.39-.11.78c-.29,2.08-.58,4.21-.89,6.41a138.42,138.42,0,0,1-2.73,14.11c.29,2.92-1.26,9.32-1,11.5-.39.28-2.25,12.95-1.74,5.57.05-.64.25-1.74.36-1.64l-.3-1c-2.09,7.19-1.79,13.4-3.15,20.64.52-2.13,1-5,1-3l-1.2,6.73-.15-1.47-1.92,10,.71-1.3c-.21,1-.42,1.79-.63,2.55-.11.37-.21.74-.3,1.09a3.57,3.57,0,0,1-.25.76c-.18.22-.3.28-.3.55a1.21,1.21,0,0,0-.37.22c-.22.17,0,.35.31.51s.56.29-.33.28l-.21-.05a1.79,1.79,0,0,0-.37-.06l-1.34-.2-2.88-.41-6.28-.87c-4.36-.6-8.94-1.19-13.17-1.66.74.61-1.54.38-3.89.26l-.23-.49c-9-.2-3.2-1.33-12.16-1.66l.81-.24-2.44.74c-8.14.16-4.25-1.37-13.31-1,3.54.25,1.57,1.18-2.76.56l1.14-.34c-2.42-.13-3.24,0-4.83-.26,1.45-.11.82-.58-2.73-.84l2.43-.34-6.78.19c-5.12-1-13.37-1.14-15.43-2,0,0-11.08-1.36-13.7-.91,2.28-.21-3.83-1-2-1.3-2.93.22-11.47-.19-14.82-1h.65c-12.55-1.72-21.61-1.32-32.84-3,.46.58-5.48-.27-4.07.55-11.76-.42-21.18-3.41-25.61-1.68-5.33-.39-6.25-1.1-9-1.47H189c-10-.77-12.88-1-20.28-1.77-3.71-.14-4.38.79-11-.07,2.18-.19-.54-.37-3-.61,1.59.09,2.09,0-1.14-.58a12.7,12.7,0,0,1-1.85.09s-.15-.07-.08-.11c-4.15-.25-3.44-.06-1.52.18-.11.05,0,.14.63.3-4.24-.91-12-1.09-12.42-1.81-12.44-1-21.39-1.17-31.76-1.88-1.13-.46,1.32-.54,4.33-.39l-7.35-.56c.11-.5,4.25.11,6.52.22-8.66-1.63-18.09-.9-28.26-2.6-.39.09-.73.19-1.17.28l-.28-.09a4.14,4.14,0,0,1-1.83.31c0-.22,0-.46,0-.69a4,4,0,0,1,.79-1,1.86,1.86,0,0,0,.31-.6,3.8,3.8,0,0,0,.13-.49c0-.12,0-.15.06-.37l.11-.87c.92-3.94,1.22-11.38,1.65-16.64-.43,2.81-.55,1.87-.55.63.3-2.53.92-3.93,1-5.9l.61-.17c-.67.92.24-6.68.12-7.64.61-1.38-.12,4,.12,4.64,1.23-10.14.62-5.07,1.84-15.21.24-5.46-.68.91-.86-1.74.48-4.79.66-9.49,1.71-14.93l-.74,1.67a144.39,144.39,0,0,1,2.75-20.35c4.2-67.35-4-14.81-4-14.81C79.09,638.64,78.89,652.41,75.35,683.77Z"/><ellipse class="cls-1" cx="113.43" cy="421.2" rx="28.76" ry="28.84" transform="matrix(0.17, -0.99, 0.99, 0.17, -320.79, 462.76)"/><path class="cls-2" d="M128.42,448.14l-.52.08C127.94,448.28,128.08,448.29,128.42,448.14Z"/><path class="cls-2" d="M126.45,393.23h.12C126.49,393.22,126.46,393.22,126.45,393.23Z"/><path class="cls-2" d="M110.41,446.27h0l.11,0Z"/><path class="cls-2" d="M130.11,440.84l-1.56,1.1c-.48.32-1,.54-1.42.78a18,18,0,0,1-2.54,1.09c-1.65.62-3.31,1.17-6,1.93a29,29,0,0,1-8.14.54,3.41,3.41,0,0,1-1.14.13,9.42,9.42,0,0,1-1.29-.25c-.44-.1-.89-.21-1.32-.28a5.71,5.71,0,0,0-1.25-.18l-.44-.5a4.14,4.14,0,0,1-.85-.08,2,2,0,0,1-.72-.41l.07-.08a10.37,10.37,0,0,1-1.94-.64l.07-.07-.83-.43.21,0a9.28,9.28,0,0,1-3.41-2l-.17.38a11.84,11.84,0,0,0-1.22-1.23c-.38-.32-.77-.56-1.09-.86a11.91,11.91,0,0,1-1-.92,4.65,4.65,0,0,1-.48-.57,6.48,6.48,0,0,1-.41-.75l.1,0A4.67,4.67,0,0,1,91.81,436a13,13,0,0,1-.85-1.66,18,18,0,0,0-.69-1.74,9,9,0,0,0-.51-.88,6.09,6.09,0,0,0-.65-.93c.27.31.14-.23.24-.24l-.48-1a7.92,7.92,0,0,0-.41-.87c-.28-.51-.6-.83-1-.74-.3-1,0-.92.3-1.11-.34.08-.65-.81-.83-1.63l.2.35a17,17,0,0,1-.4-2.37l-.63.54c.08-1.32.79-.39.52-1.61l-.55,0a6.81,6.81,0,0,1,.6-2.31c.26-.68.72-1.32,1-2.12a33.2,33.2,0,0,1,3.14-10.09,17.41,17.41,0,0,1,7-7.47l.47.16c.41.4,1-1.7,1.5-1.38.16-.22.32-.44.5-.65.24,0,.69-.1.43.19a2.14,2.14,0,0,0,1-.78h.82c1.32-.37,2.42-1,3.63-1.42a13.47,13.47,0,0,1,3.9-1.05c1.77.23,4.21,0,6.73.31l1,.05.94.14,1.83.25,1.7.38.79.17.71.23c2.7.57,5.08,2.54,7,4.69s3.46,4.56,5.26,6.62c0,.18.39.5.46.46.35.76.77,1.47,1.06,2.25s.63,1.54.85,2.33l.27,1,.32,1.06c.09.4.19.86.29,1.34a50.25,50.25,0,0,1,.87,6.27c.1,1.9.35,3.33,1.07,3.12.36-.11.82-.64,1.44-1.81.15-.29.32-.62.48-1s.27-.8.41-1.27.3-1,.45-1.57.21-1.21.31-1.9l.14.14a16.66,16.66,0,0,0-.39-4.12,10.25,10.25,0,0,0-1.39-3.1c.62-.6-.86-2.51-1-3.27l.09,0a7.49,7.49,0,0,1-1.45-2.64,6.26,6.26,0,0,0-1.62-2.47.56.56,0,0,1,.57.28c-.92-1.07-2.24-2.44-2-2.81l-1.91-1.93c-.7-.63-1.45-1.25-2.16-1.84a11.09,11.09,0,0,0-4.12-2.11l.19,0a3,3,0,0,1-1.34-.47,3.66,3.66,0,0,0-1.38-.59c0-.09-.11-.16-.08-.17a10.09,10.09,0,0,1-2.42-.74,12.62,12.62,0,0,0-2.22-.69l0-.32c-.84-.2-1.7-.34-2.55-.51l.94.27c-.26.39-.7.15-1.33-.17a4.15,4.15,0,0,0-2.46-.43,4.54,4.54,0,0,0-2.67.66,8.05,8.05,0,0,1-1.3.5,2.89,2.89,0,0,1-1.3.15c-.8.47.68-.72-.54-.3-.09-.45.56-.33.2-.66a5.81,5.81,0,0,1-1.71.05,4.64,4.64,0,0,0-1.9.31l-.14-.34a4.37,4.37,0,0,1-.71.31c-.23.09-.46.17-.7.24a11.59,11.59,0,0,1-1.36.26,3.59,3.59,0,0,0-2.21.85c-1.84,1-1.76-.4-3.45,1.21h-1c-.86.46-.28.87-1.3,1.25-.11-.29-1.27.53-.9,0a5.32,5.32,0,0,0-1.56,1c-.47.42-1,.85-1.41,1.34a19.87,19.87,0,0,1-3.2,3,2.73,2.73,0,0,1-.67,1.38,2.61,2.61,0,0,0-.55,1.26c-.13,0-.6.6-1,1s-.59.7-.34-.22c.06-.15.22-.38.29-.3l-.15-.38a4,4,0,0,0-1.45,2.19L85,406.63a8.39,8.39,0,0,1-.47,1.23c.32-.44.59-1.11.61-.56l-.73,1.51-.13-.44-.59,1.12c-.19.38-.33.78-.49,1.17l.45-.21c-.54,1.1-1.35,1.34-1.18,2.84.14.68.73-1,.55.27-.28.77-.7,1.72-1,2.78a22.91,22.91,0,0,0-.64,3.24c.41-.18.38.39.45,1l-.35.06c.48,2.23-.86.84-.29,3.07L81,423.5l.78.54c.86,1.9-.65,1.19.68,3.22-.22-.84.69-.54.73.52l-.38-.19a7.25,7.25,0,0,1,.39,1.12c-.27-.29-.53-.06-.23.77l-.58-.46,1.07,1.42a3.4,3.4,0,0,0,.17,1.06c.12.36.27.72.41,1.05a2.92,2.92,0,0,1,.39,1.61,3.39,3.39,0,0,0,.16.41c.11.25.27.58.45.92.36.68.8,1.41,1.2,1.54-.58-.3.13,1.05-.43.88a6,6,0,0,1,1.33,1.29,5.62,5.62,0,0,1,1,1.61l-.14-.1a9.6,9.6,0,0,0,1.33,1.78c.5.5,1,.93,1.51,1.36s1,.81,1.52,1.23a12.13,12.13,0,0,1,1.46,1.42c.15-.4,1.22.64,1.23,0a9.3,9.3,0,0,1,1.71,1.1c.53.36,1,.74,1.44,1.07.86.67,1.67,1,2.47.47,1.21.43,1.23,1,1.85,1.28l-.33,0,2.62.74c.67.21,1.29.3,2.17.53.92,0,1.17-.62,2.71-.28-.55.24.1.26.69.33-.38,0-.52.09.25.38a1.49,1.49,0,0,1,.45-.14s0,.05,0,.08c1,0,.83-.17.38-.2,0,0,0-.1-.15-.2,1,.43,2.86,0,3,.54a25.09,25.09,0,0,0,7.35-2c.33.18-.15.56-.83.86l1.67-.58c.1.37-.91.49-1.42.71a4.85,4.85,0,0,0,1.6-.28,6.58,6.58,0,0,0,1.53-.7,15.45,15.45,0,0,1,3.24-1.47l.32-.5.15,0c-.08-.13.3-.57.6-.78.46.11.35.67,1.38,0a4.38,4.38,0,0,0,1.61-1c.52-.53,1-1.13,1.45-1.59-.56.38-.5.1-.35-.17.46-.38,1-.33,1.2-.77l.34.29c-.45-.15.84-1.43.87-1.71.48,0-.48.85-.42,1.14a21.2,21.2,0,0,0,2.48-2.71c.59-1.19-.48-.09-.37-.8a15.27,15.27,0,0,1,2-2.9l-.56.12a15.85,15.85,0,0,1,2.36-4.08l.29-1.36c0-.44.08-.85.11-1.24a18.63,18.63,0,0,0,.09-2,11.16,11.16,0,0,0-.4-2.48c-.36-1-.83-1.07-1.26-.59a6.93,6.93,0,0,0-1.21,2c-.15.36-.33.68-.45.92l-.19.38c-1.16,2.35-2.06,4-2.93,5.92A22,22,0,0,1,130.11,440.84Z"/></svg>