<svg id="Layer_1" data-name="Layer 1" xmlns="http://www.w3.org/2000/svg" viewBox="0 0 409.3 660.88"><defs><style>.cls-1{fill:#9c62e8;stroke:#d4b2f9;stroke-width:5.97px;}.cls-1,.cls-3{stroke-miterlimit:10;}.cls-2{fill:#d4b2f9;}.cls-3{fill:none;stroke:#fff;stroke-linecap:round;stroke-width:30px;}.cls-4{fill:#fff;}</style></defs><path class="cls-1" d="M118.05,315s-3.14,20-3.78,36.6c-1,25.24-13.39,42.12-30.3,66.91C32.26,494.27-6.63,551.29,5.08,564.89c5.6,6.51,21.62,1.72,25.25.63,18.22-5.45,28.36-21.16,34.08-30.29,60.16-96.09,62.82-101.47,67.53-113.61,16.93-43.67,14.51-97.83,14.51-97.83A125.53,125.53,0,0,1,131.31,320,127.53,127.53,0,0,1,118.05,315Z"/><path class="cls-1" d="M146.51,325.43a570.61,570.61,0,0,1,3.2,60.21C149.86,417,140.34,441,135.48,453c-2.79,6.86-7.33,16.81-27,46-23.64,35-43.78,72.3-66.88,107.68-5.09,7.79-16.1,24.53-10.09,35.21,3,5.38,9.25,7.24,10.09,7.48,10.1,2.87,19.6-4.76,23.72-8.06,3.84-3.09,5.57-5.4,17.55-24.67,10.69-17.21,16-26.17,25.72-38.89,1.35-1.78,1.22-1.55,2.51-3.26,3.22-4.25,9.48-13.2,27.27-42.29,26.75-43.74,40.13-65.61,41.74-69.73,15.82-40.37,14.7-78.5,14.23-88.23-.68-14-3.76-46.92-3.76-46.92Z"/><path class="cls-1" d="M192.11,327.46s-6.17,34.78-.39,86.71c3.82,34.22,8.17,90.17,12.34,143.81,0,0,4,51.54,25.23,71.08,1.56,1.44,5.7,5.25,10.69,4.59,5.48-.73,8.84-6.54,9.83-8.26,6.37-11,3.08-25.07,1.71-31.18-.59-2.68-4.38-29.15-12-82.09-.56-3.93-1.8-16.38-4.27-41.28-6.9-69.37-7.5-87.68-7.7-96.31-.25-10.56-.37-26.23.44-45.44Z"/><path class="cls-1" d="M264,329.05s-3.39,22.42-18.95,66.55c-4.14,11.74-9,22.72-7.12,37.95a62.42,62.42,0,0,0,7.12,21.82c25.31,48.7,51,85.28,53.6,121,.53,7.25,1,14.32-2.37,22.29-6,14.17-17.21,15.38-21.35,29.41-.77,2.61-3.73,12.68,1.9,20.87,4.92,7.16,14.57,10.23,22.29,8.54,5.44-1.19,10.73-4.91,19-19.45,8.78-15.47,17.09-30.1,18-49.8,1-22-8-38.18-26.09-69.73-21.73-37.88-32.84-42.28-35.57-64.51-1.87-15.23,1.72-26.34,8.54-47.44,16.8-52,33.59-81.69,33.59-81.69Z"/><path class="cls-1" d="M404.89,209.52c7-37-12.86-70.32-32-110.61A189.52,189.52,0,0,0,350,61.43s-12.11-15.38-25.59-26.51C295.64,11.13,247-3.29,198.3,5.67a164.72,164.72,0,0,0-73.13,33.82c-23.73,19.31-34.1,39.69-54.85,80.44-24.06,47.26-36,71.43-29.25,97.81,3.86,15.19,14.06,34.86,32,48.45a58.4,58.4,0,0,0-5.41,15.3s-1.72,8.55-1,15.35c1.25,11.78,42.28,33.47,149.44,37.09s147.12-15.28,149.48-27.06c1.9-9.44-.24-20.32-.24-20.32a55.13,55.13,0,0,0-3.6-11.54C395.57,248.05,402.87,220.26,404.89,209.52Z"/><path class="cls-2" d="M282.4,62.34c-9.68,4.61-16.22,15.21-16.46,25.6-.06,2.67.17,11.14,13.71,26.51,16,18.11,23.83,15.61,39.31,31.08,9.55,9.54,25.68,25.66,23.68,43.95-1.18,10.71-8,16.72-5.4,29.18.56,2.66,2.42,11.64,8.23,13.71,8.54,3,22.62-9.92,28.34-22.85,4.81-10.87,4.15-22.74-8.23-56.68-18.91-51.85-28.88-78-53.93-88.67C306.05,61.78,294,56.84,282.4,62.34Z"/><path class="cls-2" d="M101.4,275.79c11.67,2.65,23.23,5.28,34.87,7.48s23.28,4.11,35,5.58,23.47,2.58,35.28,3.31,23.67,1.1,35.64,1.46a218.38,218.38,0,0,1-35.75,3.23,264.2,264.2,0,0,1-71.22-9A217.85,217.85,0,0,1,101.4,275.79Z"/><path class="cls-2" d="M277.59,291.86a58.37,58.37,0,0,1,8.87-2.68c2.91-.66,5.8-1.2,8.71-1.65s5.83-.82,8.81-1.07a56.82,56.82,0,0,1,9.26-.13,29.38,29.38,0,0,1-8.19,4.7,42.43,42.43,0,0,1-9,2.39,42.87,42.87,0,0,1-9.27.43A29.72,29.72,0,0,1,277.59,291.86Z"/><path class="cls-2" d="M361.84,278.57a48.41,48.41,0,0,1-20.66,4.62,45.21,45.21,0,0,0,17.42-9.64Z"/><line class="cls-3" x1="221.42" y1="122.65" x2="221.42" y2="231.52"/><circle class="cls-4" cx="221.42" cy="78.78" r="17.64"/></svg>