<svg id="Layer_1" data-name="Layer 1" xmlns="http://www.w3.org/2000/svg" viewBox="0 0 498.93 791.08"><defs><style>.cls-1{fill:#8d58e0;}.cls-2{fill:#5e3992;}.cls-3{fill:#533680;}</style></defs><path class="cls-1" d="M4.32,86.68l383-83Q440.94,378.53,494.53,753.4L49.08,788.46Z"/><path class="cls-2" d="M324.18,14.55l5.81-1C329.87,13.43,328.4,13.67,324.18,14.55Z"/><path class="cls-2" d="M31.87,562.81l-.14-1.4C31.81,562.4,31.85,562.71,31.87,562.81Z"/><path class="cls-2" d="M406.18,168.09l0-.31-.28-1.51Z"/><path class="cls-2" d="M255.53,36.36c30.15-6.43,51.69-10.88,71.53-15l29.35-6.08,26.76-5.64V9.8q.31,2.28.66,4.65.75,5.25,1.57,10.93c1.11,7.57,2.31,15.76,3.62,24.67,5.45,38.7,11.58,79.94,17.11,117.73,3.35,17.83,7.1,49.65,10.8,70.79l.73,8.29c1.27,7.29,2.65,15.86,3.46,23.24l-.19-.44c1.9,10.88,3.46,23.24,4.4,28.65l-.19-.44,2,13.27-.51-2.25c3.09,19,5.92,38.65,8.23,56l.33-1.51c4.69,37.1,7.75,50.48,11.81,84l-.2-.44c7.46,42,8.57,66.9,16.15,110.23-1-5.4,0,2.37-.14,1.94,3,20,6.16,41.43,7.27,41.59,2.07,14.61,1.36,11.94,1.23,13.9.22-.07.84,3,1.6,7.63s1.69,10.58,2.51,16.28l-.92-5.22,4.83,32.66,0-6.54c2.22,17.36-.45,4.55,2.14,21.12l.7-.32c3.28,24,4.19,38.21,7,61.49.38,2.73.76,5.48,1.15,8.27l-31.28,2.49-35.63,2.94-71.37,6c-47.35,4-93.83,7.74-137.16,10.53l-4-.24c-1.8-.67-24.83,3.15-28.34,2.68l-10.48,1.19c-3,.09-9.21.43-4-.16-9.72.73-9.94.88-16.92,1.68l-10.47.32c-16,1.09-31,2.34-45.92,3.65l-42.3,3.69-.4-6.12q-.3-4.89-.61-9.94C49.23,720.08,42.47,628.8,38.57,576.2c-5.92-73.89-8.21-160.14-14.41-235.79,0-1.23-.2-3.44-.38-5.34l-.26-2.44a6.64,6.64,0,0,0-.16-1l-4.31-69.32S-2.08-73.81,7.55,182l-.28-1.7c2,38,3.42,61.86,6,88-.82,4.2,1.88,31.17,2.09,40.07l-.14-.83c2.31,23.09,2.35,47.71,4.52,70a32.46,32.46,0,0,1-.82-6.45c1.18,16.25,2.84,38.46,2.28,39.71,2.65,38.81,5.81,93,8.4,117.83l-.28-1.7C30.87,541,30.56,545.16,31.91,561a17.09,17.09,0,0,1,0,1.82c1.65,15.4,3,45.05,4.06,57.52l-.37.84,2.06,30.74L37,640.41c1.4,3.91.76,23.3,2.93,45.56,1.19,20.87,5.09,42.17,5.91,63.88,1.19,10.3-1.46-9-.06,6.38-.57.54-.83-7.19-1.06-3.19.53,6.41.79,11.85,1,17.42.12,2.78.25,5.59.38,8.57.08,1.53.16,3.1.25,4.73.14,2.34.3,4.77.46,7.32,3.5-.29,8.16-.69,10.48-.93l.8.4c24.32-2.77,46.06-3,62.22-5.09,25.12-2.37,17,0,43.09-2.92l10.23-.17c11.21-.78,8-1.41,20.41-2.08-.72.46,15.73-.92,8.48,0,28.17-1.59,57-5.37,94.13-7.24,8-1.4,26.66-2.41,32.62-3.46,1,.26,37.36-2.89,16.49-.51a30.14,30.14,0,0,1-4.77.29l-2.47.66c21.19-.8,38.34-3.5,59.26-5-6.21.33-14.45,1-9,.27l19.43-1.46-4,.7,28.95-2-4-.16c14.18-.87,19.22-.45,35.13-2.39,7.19-.94-13.46.42,1.47-.91l13.57-.84,7.55-.47,12.05-.82c-.63-4.75-1.27-9.6-1.92-14.51-.46-3.53-.93-7.1-1.39-10.67-.95-7.14-1.91-14.26-2.81-21.06-.22,2.32-1.12-4.13-2.18-10.76l.35-.84c-4.28-25.36-.31-9.47-4.44-34.67l.65,2.18-1.93-6.53c-4.17-22.67-.79-12.43-5.67-37.58,1.51,10-.34,4.86-1.9-7.5l.89,3.06c-1.07-6.81-1.58-9.06-2.14-13.61.82,4,1,2.05-.55-8l1.52,6.65-3.54-18.85c-1.61-14.71-5.53-37.83-5.76-43.93,0,0-4.19-31.53-5.91-38.65,1.33,6.26-1-11.12.22-6.25-1.65-8.08-5.49-32.12-6.35-41.84l.32,1.81c-4.57-35.75-9.45-60.9-13.38-93-.33,1.53-2.46-15.42-2.55-11.14-5.41-33-7.23-60.59-11.07-72.25-2.26-15.05-2.05-17.93-3.05-25.73l.62,3.58c-4.21-28.21-5.4-36.4-8.35-57.38-1.7-10.44-2.92-11.94-5.37-30.73,1.26,6,.09-1.65-.91-8.66.7,4.47,1,5.84,0-3.41-.31-1.28-.67-3.27-1-5.14,0-.08,0-.45.06-.27-1.81-11.69-1.64-9.64-.92-4.19-.1-.27-.11.2,0,1.9-1.23-12.23-4.87-33.88-4.41-35.45-5.19-35.19-9.48-60.26-13.93-89.52-.13-3.34,1.16,3.46,2.51,12l-3.1-20.77c.52.1,2,11.9,3,18.29-.54-4.93-1.19-9.91-1.9-14.94-.37-2.52-.74-5-1.12-7.61Q390.73,5.52,389.89,0l-9,2.05-5.93,1.38L362.83,6.22c-8.17,1.84-16.57,3.66-25.26,5.31l-5.86,1.68-1.72.3c.13.19-6.24,1.86-10.47,2.85-4.14.45.07-1-14.11,2.05-11.31,2-31.83,7.12-46.47,10.53,7.94-1.64,5.43-.85,2.06,0-7.09,1.55-11.27,2-16.71,3.38l-.8-.43c2.91-.06-18.4,4.6-21,5.41-4.14.45,10.92-2.76,12.62-3.46L192.5,43.21c-15.08,3.72,2.88-.06-4.27,2-13.37,3-26.36,6.25-41.81,9.24l5-.55C126.31,59.79,111.24,63,94.17,66.15-92.44,111,55.9,80.43,55.9,80.43,130,65.56,167.75,55.81,255.53,36.36Z"/><path class="cls-2" d="M322.35,33.47l5.44-1C327.68,32.41,326.3,32.63,322.35,33.47Z"/><path class="cls-2" d="M49,548.27l-.13-1.3C49,547.89,49,548.19,49,548.27Z"/><path class="cls-2" d="M392.53,185.88l0-.29-.26-1.41Z"/><path class="cls-2" d="M258.26,54.59C285,48.78,304.43,44.68,322.16,41l48.16-10.19v.16c.25,1.77.5,3.59.76,5.43.53,3.79,1.09,7.72,1.67,11.84,1.19,8.24,2.48,17.2,3.92,27.14,5,36.24,10.7,74.86,15.82,110.26,3.15,16.69,6.56,46.49,10,66.29l.64,7.77c1.2,6.82,2.48,14.85,3.21,21.77l-.19-.42c1.78,10.2,3.21,21.77,4.09,26.83l-.19-.41,1.81,12.43-.48-2.11c2.87,17.81,5.49,36.2,7.61,52.44l.35-1.42c4.28,34.75,7.19,47.27,10.88,78.66l-.19-.41c7,39.35,7.84,62.66,14.94,103.24-.88-5.06,0,2.21-.16,1.82,2.8,18.75,5.71,38.79,6.81,38.94,1.92,13.68,1.24,11.18,1.08,13,.46-.14,2.32,11.72,3.86,22.39l-.88-4.89,4.48,30.59,0-6.13c2,16.26-.49,4.27,1.91,19.79l.7-.31c3,22.47,3.78,35.8,6.3,57.6.38,2.77.76,5.55,1.15,8.37l-28.94,2.31-33.26,2.76-66.6,5.63c-44.17,3.73-87.54,7.24-128,9.81l-3.78-.26c-1.69-.67-23.24,3-26.53,2.54l-9.81,1.14c-2.78.07-8.62.38-3.74-.19-9.1.69-9.31.84-15.84,1.6L144,757c-13.7.93-26.61,2-39.43,3.12l-35.39,3.13L69,760.56q-.21-3.16-.42-6.39-.41-6.45-.82-13.18c-1.9-45.5-8.34-131-12-180.2C50,491.61,48,410.84,42.11,340c0-1.16-.19-3.23-.36-5l-.26-2.29a4.09,4.09,0,0,0-.15-.93l-4.05-64.91s-19.91-314.7-11.22-75.2l-.27-1.59c1.85,35.54,3.2,57.92,5.65,82.35-.83,3.94,1.77,29.19,1.95,37.53l-.14-.79c2.23,21.62,2.18,44.68,4.26,65.52a29.37,29.37,0,0,1-.79-6c1.12,15.21,2.7,36,2.14,37.18,2.5,36.34,5.47,87.09,8,110.32l-.28-1.59c1.53,13.23,1.21,17.18,2.5,32a16.09,16.09,0,0,1-.05,1.7c1.6,14.42,2.82,42.19,3.86,53.86l-.37.78,1.94,28.79-.6-10.77c1.39,3.66.68,21.82,2.77,42.65,1.11,19.55,4.93,39.48,5.67,59.81,1.16,9.64-1.42-8.46-.08,6-.57.51-.81-6.73-1-3,.59,7.09.81,12.92,1.08,19.17.13,3.13.27,6.35.48,9.89.11,1.77.23,3.62.36,5.57.2,2.69.42,5.53.64,8.55.2.14.43.28.67.42l10.86-1.08q4.14-.39,8.16-.7c5.34-.41,10.49-.74,15.41-1.05,9.83-.61,18.7-1.15,26.27-2.15,23.51-2.24,15.89.14,40.34-2.7l9.58-.12c10.5-.72,7.46-1.37,19.11-2-.67.46,14.73-.84,7.95.08,26.38-1.45,53.38-5.09,88.13-6.77,7.48-1.37,25-2.28,30.54-3.3,1,.26,35-2.7,15.44-.43a25.38,25.38,0,0,1-4.46.27l-2.31.64c19.84-.69,35.9-3.3,55.48-4.71-5.81.31-13.53,1-8.4.23l18.19-1.37-3.75.69,27.1-1.91-3.77-.18c13.28-.8,18-.35,32.9-2.21,6.73-.91-12.61.35,1.37-.9l12.3-.75,6.85-.42L479,738.4c-.59-4.57-1.2-9.26-1.81-14-.43-3.38-.87-6.8-1.3-10.22-.9-6.83-1.79-13.67-2.64-20.17-.24,2.17-1.07-3.88-2.06-10.08l.36-.78c-4-23.76-.21-8.89-4.06-32.48l.62,2-1.85-6.11c-3.93-21.23-.66-11.65-5.26-35.2,1.4,9.36-.4,4.56-1.82-7l.86,2.86c-1-6.38-1.49-8.49-2-12.75.78,3.77.93,1.92-.47-7.47l1.45,6.22-3.33-17.64c-1.45-13.79-5.12-35.43-5.28-41.15,0,0-3.85-29.53-5.49-36.2,1.26,5.87-.86-10.42.29-5.86-1.56-7.57-5.14-30.08-5.89-39.19l.3,1.71c-4.19-33.49-8.78-57-12.36-87.11-.35,1.44-2.29-14.44-2.43-10.43-5.05-30.92-6.57-56.76-10.27-67.66-2.11-14.09-1.86-16.79-2.78-24.1l.59,3.35c-3.9-26.42-5-34.09-7.73-53.74-1.58-9.77-2.79-11.18-5-28.78,1.2,5.63.11-1.54-.81-8.11.65,4.19,1,5.47,0-3.2-.29-1.19-.63-3.06-.94-4.81,0-.08,0-.42.07-.25-1.69-10.95-1.54-9-.88-3.92-.09-.25-.11.19,0,1.78-1.09-11.46-4.5-31.73-4-33.2-4.81-33-8.83-56.44-13-83.84-.08-3.14,1.13,3.24,2.38,11.18l-2.87-19.45c.53.1,1.87,11.15,2.81,17.13-.6-5.74-1.37-11.54-2.22-17.43l-3.21-21.11-22.09,5.15c-6.49,1.47-13.13,2.91-20,4.23L329.4,32.2l-1.61.29c.13.19-5.83,1.8-9.78,2.75-3.89.41,0-1.05-13.22,1.91C294.21,39.06,275,44,261.33,47.23c7.42-1.57,5.09-.8,1.93.05-6.63,1.49-10.54,1.9-15.63,3.22l-.76-.44c2.73,0-17.21,4.43-19.61,5.21-3.87.4,10.22-2.65,11.8-3.34l-39.88,8.91c-14.1,3.58,2.7,0-4,2-12.51,2.88-24.65,6-39.11,8.83l4.67-.5c-23.46,5.61-37.56,8.67-53.54,11.66-174.48,43-35.69,13.88-35.69,13.88C140.83,82.56,176.15,73.18,258.26,54.59Z"/><path class="cls-2" d="M153.07,110l1.8-.21C154.82,109.69,154.36,109.71,153.07,110Z"/><path class="cls-2" d="M65.15,281.13l-.08-.42A1.54,1.54,0,0,0,65.15,281.13Z"/><path class="cls-2" d="M188.7,136.24v-.09l-.1-.46Z"/><path class="cls-2" d="M133.41,121.68c11.74-2.69,19.22-4.15,26.79-5.73,3.79-.79,7.59-1.61,12-2.61l7.05-1.68,4-1,2.12-.54.53-.13,0,0,.05,0,.16,0c.87,8.69,1.78,17.79,2.63,26.22,1.28,5.43,1.36,15.22,2.61,21.67l-.23,2.57a36.19,36.19,0,0,1,.78,7.12l-.15-.13c.64,3.32.77,7.12,1.09,8.77l-.14-.13.42,4.07-.25-.68c.88,5.81,1.44,11.83,1.75,17.16l.5-.49c.41,11.4,1.9,15.45,2.09,25.76l-.14-.13c2.58,12.83.84,20.56,3.39,33.79-.32-1.65-.21.74-.36.61.7,6.14,1.37,12.7,2.44,12.7.39,4.48,0,3.67-.37,4.29.47-.06,1,3.81,1.35,7.3l-.32-1.59,1,10,.71-2.05c.21,5.34-1,1.45-.29,6.52l.72-.13a86,86,0,0,1,.1,9.54c-.06,1.46-.11,2.91-.17,4.45,0,.77,0,1.56-.05,2.38v.93a.31.31,0,0,1,0,.11l-.07.35,0,.74-.7.15-1.41.34-5.32,1.29-10.68,2.68-21.38,5.49c-14.19,3.64-28.15,7.08-41.31,9.57l-1.32-.26c-.7-.66-7.13,2.92-8.33,2.44l-3,1.1c-.91.07-2.8.36-1.29-.18a26.92,26.92,0,0,0-5,1.53l-3.22.25c-5.23,1.07-10,2.32-14.87,3.62l-11,3c0-.34,0-.71-.06-1.07l.06-.49,0-.23v-.36l-.13-3.19c-.1-2.21-.24-4.58-.41-7.05-.34-4.94-.8-10.3-1.31-15.69-1-10.79-2.26-21.72-3.17-29.71-3-22.42-1.83-48.87-5-71.82a8.79,8.79,0,0,0-.44-2.66l-1.55-21.11S56.53,86.92,56,165.18l-.21-.5c.48,11.58,1,18.86,2.47,26.75-1,1.35.64,9.5.5,12.23l-.11-.25c1.39,7,.45,14.57,1.73,21.3a3.3,3.3,0,0,1-.55-1.94c.52,4.94,1.29,11.69.7,12.11,1.09,11.8,2.1,28.32,3.7,35.82l-.22-.51c1,4.26.54,5.58,1.27,10.38-.07.27-.08.61-.12.56,1,4.65,1.18,13.71,1.77,17.49l-.4.28.83,9.35-.18-3.5c1.24,1.12-.16,7.13,1.11,13.86.36,6.37,3.4,12.7,3.36,19.35.78,3.1-1.09-2.71-.31,2-.58.21-.55-2.16-.93-.91.11.74.18,1.45.23,2.13.07.95.11,1.88.15,2.82L71,349.9c2.08-.42,4.54-1,7.38-1.81q.18.2.39.39l1.62-.52,1.31-.4c.87-.25,1.73-.47,2.58-.67,1.7-.4,3.35-.72,4.93-1a43.1,43.1,0,0,0,8.33-2.07c7.38-2.15,5.33.16,12.91-2.58l3.17-.11c3.36-.69,2.21-1.32,6-1.9-.14.44,4.74-.8,2.66.08,8.51-1.38,16.78-4.9,28-6.5,2.22-1.32,7.87-2.19,9.52-3.18.37.26,11.12-2.59,5.07-.4-.53.19-1.47.4-1.44.26l-.64.62c6.48-.65,11.31-3.18,17.55-4.52-1.87.29-4.32.91-2.75.21l5.79-1.31-1.11.66,8.65-1.83-1.29-.18c4.26-.76,5.93-.32,10.52-2.11,2.06-.88-4.13.32.28-.88l4.51-.82c.55-.08,2.35-.46,3.77-.75l4.68-1c-.31-5-.63-10.43-.93-15.36-.48.73-.63-1.25-.93-3.27l.45-.28c-1.34-7.75.77-3-.43-10.66l.38.66-1.15-2c-1.55-6.91.63-3.86-1.33-11.52.36,3.07-.89,1.54-1-2.26l.54.92a39.78,39.78,0,0,1-.57-4.16c.36,1.22.72.6.37-2.47l.74,2-1.34-5.74c.08-4.54-1.16-11.6-.69-13.5,0,0-.55-9.68-1.44-11.83.61,1.9.3-3.44.94-2-.71-2.46-1.77-9.81-1.51-12.81l.11.55c-.45-11-2.4-18.64-2.62-28.52-.5.5-.67-4.71-1.25-3.37-1.59-10.1-.24-18.64-2.7-22.12-.53-4.61,0-5.52-.09-7.92l.21,1.09c-.95-8.64-1.19-11.15-1.71-17.59-.5-3.19-1.54-3.6-1.81-9.38.56,1.83.28-.52.09-2.67.18,1.37.37,1.78.38-1.06a9.38,9.38,0,0,1-.4-1.57s0-.14.09-.09c-.46-3.57-.53-2.94-.43-1.27-.07-.08-.14.07-.2.6.18-3.77-1-10.39-.32-10.9-.31-2.94-.63-5.65-1-8.22-.44-3.53-.86-6.86-1.26-10.12l-14.17,4c-1.07-.11.91-.9,3.42-1.65l-6.19,1.62c-.07-.5,3.5-1.14,5.4-1.7-7.6,1-15.09,4.47-23.95,5.83l-1.71.82-.53.06c.07.2-1.81,1-3.08,1.32-1.33-.13-.15-1-4.44.06-3.5.4-9.62,2.53-14,3.83,2.42-.51,1.7-.08.71.31-2.15.54-3.49.41-5.11,1l-.34-.53c1,.34-5.48,1.94-6.22,2.37-1.33-.14,3.25-1.17,3.71-1.62l-12.92,3.19c-4.49,1.54,1,.34-1.11,1.37a116.4,116.4,0,0,1-12.65,3.22l1.6.16a108.9,108.9,0,0,1-17.38,4C27.76,146.27,73,137,73,137,95.66,132.75,106.86,128.49,133.41,121.68Z"/><path class="cls-2" d="M152.48,126.48l1.46-.2C153.89,126.2,153.52,126.23,152.48,126.48Z"/><path class="cls-2" d="M81.39,267.09l-.06-.34A1.66,1.66,0,0,0,81.39,267.09Z"/><path class="cls-2" d="M174.92,156.39v-.08l-.08-.37Z"/><path class="cls-2" d="M136.64,136.2c8.84-2.19,14.7-3.48,20.43-4.78,2.86-.65,5.69-1.3,8.84-2.07l5-1.26,1.07-.28h0l.09,0,.07.1c.18,2.12.37,4.27.55,6.44l.71,7.43c.5,5,1,9.88,1.46,14.59,1,4.42,1.1,12.39,2.09,17.64l-.18,2.08a29.76,29.76,0,0,1,.63,5.8l-.12-.11c.51,2.7.62,5.79.88,7.14l-.12-.11.34,3.31-.2-.56c.71,4.73,1.16,9.63,1.4,14l.41-.39c.32,9.27,1.52,12.57,1.68,21l-.12-.11c2.08,10.43.68,16.72,2.73,27.48-.26-1.34-.18.6-.29.5.56,5,1.1,10.33,2,10.33.31,3.65,0,3-.3,3.5.38-.06.81,3.09,1.08,5.94l-.26-1.3.85,8.14.56-1.66c.18,4.34-.76,1.17-.23,5.3l.58-.11a68.2,68.2,0,0,1,.08,7.76c0,1.19-.08,2.37-.13,3.62,0,.63,0,1.27,0,1.94,0,.32,0,.64,0,1l-.06.29,0,.62-1.79.45-4.3,1.12-8.64,2.34-17.29,4.78c-11.48,3.16-22.77,6.16-33.43,8.38l-1.07-.18c-.58-.52-5.76,2.47-6.74,2.1l-2.46.94c-.74.07-2.27.34-1-.13a22.73,22.73,0,0,0-4,1.32l-2.61.26c-3,.67-5.86,1.41-8.65,2.19L94,323.4l-1,.3-.52.15-.16.06-1.24.45c-.08-.42-.16-.91-.22-1.45q-.23-2.49-.39-5.13c-.13-12.09-2.66-34.64-4.13-47.64-2.4-18.25-1.51-39.75-4.09-58.42a7.34,7.34,0,0,0-.36-2.17l-1.26-17.17s-6.3-83.25-6.66-19.6l-.18-.41c.4,9.42.79,15.34,2,21.77-.79,1.09.52,7.72.41,9.94l-.09-.2c1.12,5.68.38,11.85,1.41,17.32a2.66,2.66,0,0,1-.45-1.57c.43,4,1.06,9.5.58,9.84.88,9.6,1.71,23,3,29.14l-.18-.41c.82,3.46.44,4.53,1,8.44,0,.22-.07.5-.1.45.84,3.79,1,11.16,1.44,14.23l-.32.23.68,7.61L83,286.3c1,.92-.12,5.81.91,11.28.29,5.18,2.74,10.34,2.71,15.74.63,2.52-.88-2.2-.25,1.6-.46.16-.44-1.76-.74-.75a37.83,37.83,0,0,1,.28,5.08c0,.83,0,1.69.08,2.62,0,.48.06.93.12,1.5.07.76.16,1.56.26,2.38l-.34.48c.24,1.51.41,2.93.55,4.35,1.78-.49,3.45-.9,5.1-1.28l2.3-.52,1.57-.32a28,28,0,0,0,5.48-1.55c6-1.85,4.34,0,10.46-2.29l2.58-.14c2.72-.62,1.78-1.1,4.83-1.63-.1.35,3.84-.73,2.17,0,6.89-1.25,13.57-4.22,22.7-5.69,1.78-1.1,6.36-1.9,7.69-2.73.31.21,9-2.27,4.11-.4-.42.16-1.19.35-1.16.23l-.51.51c5.26-.63,9.15-2.75,14.21-3.94-1.53.27-3.5.81-2.24.22l4.69-1.15-.9.55,7-1.62-1.06-.12c3.46-.69,4.82-.36,8.53-1.88,1.66-.74-3.36.33.21-.71l3.63-.73.5-.1.69-.15,1.78-.4,3.75-.85c-.24-4.1-.5-8.47-.74-12.47-.38.6-.51-1-.74-2.66l.36-.23c-1.08-6.3.61-2.4-.35-8.66l.31.53-.93-1.6c-1.24-5.62.51-3.13-1.06-9.36.28,2.49-.72,1.25-.83-1.84l.43.75a28.54,28.54,0,0,1-.45-3.39c.28,1,.57.49.29-2l.6,1.64-1.08-4.68c.06-3.68-.93-9.43-.55-11,0,0-.44-7.88-1.16-9.63.48,1.55.24-2.79.75-1.6a44.56,44.56,0,0,1-1.21-10.42l.08.45c-.35-8.94-1.92-15.17-2.1-23.2-.4.4-.54-3.84-1-2.75-1.27-8.21-.2-15.16-2.17-18-.43-3.75,0-4.49-.08-6.44l.17.89c-.76-7-.95-9.08-1.37-14.31-.4-2.6-1.23-2.94-1.45-7.64.45,1.49.22-.42.07-2.17.15,1.12.29,1.45.31-.86a7.61,7.61,0,0,1-.33-1.28s0-.11.08-.07c-.37-2.91-.43-2.39-.35-1-.06-.07-.11,0-.16.48.14-3.07-.77-8.45-.26-8.86-.4-3.91-.84-7.31-1.28-10.52-.23-1.63-.45-3.21-.67-4.79l-.79-6.49-3.19.91c-.92,0,.88-.71,3.66-1.56l.12.94-.1-1-6.65,1.83c0-.41,4.39-1.39,6.85-2.11v0c-2.21.41-4.71,1-7.2,1.69l-1.24.35-1.17.35-2.36.74a76.34,76.34,0,0,1-10.05,2.66l-1.38.69-.43.06a7.91,7.91,0,0,1-2.49,1.11c-1.08-.08-.13-.8-3.61.13-2.84.38-7.78,2.19-11.34,3.32,2-.45,1.38-.1.58.24-1.74.46-2.83.38-4.14.88l-.29-.42c.8.26-4.42,1.65-5,2-1.08-.09,2.63-1,3-1.37L120.17,135c-3.64,1.31.79.26-.89,1.12A96.92,96.92,0,0,1,109,138.9l1.31.1a90,90,0,0,1-14.08,3.5c-45.17,15.3-8.52,7.06-8.52,7.06C106.11,145.75,115.15,142.13,136.64,136.2Z"/><path class="cls-2" d="M327,71.21l2-.29C328.94,70.83,328.42,70.87,327,71.21Z"/><path class="cls-2" d="M229.1,264.21l-.08-.47A1.94,1.94,0,0,0,229.1,264.21Z"/><path class="cls-2" d="M352.94,126.11l0-.11-.14-.5Z"/><path class="cls-2" d="M304.92,83.82c10-2.45,17.29-4.09,23.94-5.58l9.8-2.21,5.07-1.19a.82.82,0,0,1,.21,0V75c.12.67.24,1.38.36,2.11l1.6,8.9c2.13,13.18,4.73,27.19,7,40,1.81,6,2.86,16.9,4.73,24l0,2.88a45.9,45.9,0,0,1,1.47,7.89l-.15-.13c1,3.66,1.46,7.89,1.94,9.71l-.15-.13.82,4.51-.32-.75c1.45,6.43,2.6,13.11,3.43,19l.46-.58c1.52,12.7,3.41,17.12,4.61,28.61l-.15-.14c3.84,14.14,2.86,22.88,6.7,37.47-.48-1.82-.14.84-.3.71,1.3,6.8,2.61,14.07,3.69,14,.82,5,.35,4.1,0,4.82.46-.11,1.38,4.18,2.06,8l-.48-1.75,2,11.09.51-2.33c.74,5.94-.82,1.68.35,7.29l.71-.19c.61,4.09.85,7.38,1,10.64.13,3,.52,7.76.23,7.68l0,.35-.82.1L384,319l-6.18.85-12.43,1.81-24.92,3.79c-16.54,2.5-32.81,4.84-48,6.26l-1.42-.36c-.7-.72-8.31,2.33-9.58,1.75l-3.52.84c-1,0-3.16.13-1.4-.29a34.39,34.39,0,0,0-5.71,1.12h-3.61c-5.19.54-10,1.26-14.86,2L245.07,338l-1.83.3-.23,0-.08,0-.14,0-.29.06-1.22.23c-.11-1-.11-.88-.36-4.56-.29-16.64-3.68-47.74-5.63-65.66-3.19-25.15-2.3-54.77-5.71-80.51a10.65,10.65,0,0,0-.47-3l-1.75-23.66s-8.72-114.73-8.52-27.07l-.22-.57c.6,13,1.14,21.14,2.73,30-1,1.5.72,10.65.61,13.71l-.11-.28c1.45,7.83.59,16.32,1.94,23.87a4.06,4.06,0,0,1-.58-2.17c.57,5.53,1.41,13.1.82,13.56,1.2,13.24,2.37,31.75,4,40.16l-.22-.56c1.06,4.78.59,6.25,1.36,11.63-.06.3-.07.69-.11.63,1.09,5.22,1.32,15.37,1.94,19.61l-.4.31.92,10.49-.21-3.93c1.25,1.27-.1,8,1.24,15.54.42,7.14,3.52,14.26,3.54,21.7.82,3.49-1.11-3-.28,2.2-.59.22-.57-2.43-.94-1a54.7,54.7,0,0,1,.39,6.55l0,1.62c0,.79.08,1.6.12,2.44.1,1.73.25,3.62.46,5.62l1.77-.3c0,.15,0,.31.08.46,1.67-.33,3.22-.62,4.74-.86l1.92-.31,1.47-.21c1.94-.26,3.82-.43,5.61-.6a53,53,0,0,0,9.52-1.37c8.48-1.54,5.91.6,14.68-1.51l3.54.15c3.82-.41,2.62-1.13,6.88-1.4-.2.43,5.38-.41,3,.3,9.63-.68,19.26-3.5,32-4.16,2.63-1.14,9-1.54,11-2.4.39.29,12.7-1.66,5.69,0-.61.14-1.69.28-1.63.14l-.79.57c7.29-.12,13-2.24,20.09-3.07-2.13.13-4.92.55-3.09,0l6.6-.84-1.32.57,9.85-1.1-1.42-.3c4.85-.4,6.65.18,12-1.23,2.4-.71-4.64,0,.41-.86l5.94-.51,1.72-.15L389,326l6.22-.7c-.75-5.21-1.54-10.62-2.27-15.63-.4.85-.75-1.35-1.24-3.59l.42-.34c-2.1-8.56.48-3.35-1.48-11.86l.45.7-1.35-2.11c-2.22-7.6.26-4.34-2.45-12.75.66,3.39-.74,1.78-1.25-2.45l.63,1a42.72,42.72,0,0,1-1-4.61c.47,1.34.77.62.12-2.78l.94,2.2-1.91-6.32c-.36-5.06-2.29-12.86-2-15,0,0-1.49-10.77-2.6-13.11.79,2.08,0-3.85.75-2.25-1-2.7-2.73-10.83-2.77-14.2l.16.61c-1.52-12.23-4.22-20.64-5.41-31.64-.46.58-1.13-5.22-1.58-3.68-2.57-11.16-2.07-20.79-4.87-24.5-1-5.11-.53-6.16-.87-8.83l.32,1.2c-1.79-9.58-2.28-12.36-3.43-19.51-.81-3.52-1.89-3.92-2.73-10.34.74,2,.23-.6-.17-3,.32,1.52.54,2,.27-1.21a13,13,0,0,1-.55-1.72s0-.16.08-.11c-.81-4-.81-3.24-.55-1.38-.08-.09-.13.08-.14.67-.19-4.22-2-11.52-1.39-12.14-2.18-12-4.31-20.4-6.25-30.33.15-1.18.85,1.1,1.47,4L351.24,73c.06,0,.13.08.2.26s.16.49.22.65c.12.41.24,1,.36,1.62.24,1.28.47,2.83.7,3.91a55.93,55.93,0,0,0-.7-5.56c-.26-1.46-.52-2.93-.79-4.41s-.57-3-.86-4.47L339.61,68c-2.6.73-5.3,1.4-8.11,1.9l-1.91.89-.6.09c.08.2-2,1-3.44,1.46-1.49-.07-.16-1-5,.25-3.9.56-10.74,3-15.66,4.46,2.7-.61,1.9-.16.78.29-2.4.62-3.89.55-5.7,1.21l-.37-.52c1.08.3-6.13,2.19-7,2.65-1.48-.08,3.63-1.32,4.15-1.79L282.4,82.7c-5,1.74,1.08.3-1.25,1.43-4.51,1.27-8.84,2.8-14.14,3.79l1.78.08a136.64,136.64,0,0,1-19.41,4.77c-62.46,20.36-11.94,9.08-11.94,9.08C262.73,96.59,275.26,91.82,304.92,83.82Z"/><path class="cls-2" d="M327.92,86.15l1.66-.29C329.53,85.79,329.1,85.84,327.92,86.15Z"/><path class="cls-2" d="M247.11,249.17l-.07-.39A3.22,3.22,0,0,0,247.11,249.17Z"/><path class="cls-2" d="M341.3,143.38v-.09l-.12-.42Z"/><path class="cls-2" d="M309.79,97c6.1-1.67,11-2.93,15.3-4l6.2-1.57,1.39-.35h.12l.18,0,0,.19v.09c0,.05,0-.08,0,.22.24,1.68.5,3.43.77,5.31.57,3.74,1.25,8,2.11,13,1.65,11,3.67,22.69,5.45,33.41,1.43,5,2.21,14.1,3.69,20.05v2.39a38.68,38.68,0,0,1,1.15,6.59l-.13-.11c.76,3.06,1.14,6.58,1.52,8.1l-.12-.11L348,184l-.25-.63c1.14,5.37,2,10.95,2.67,15.88l.37-.47c1.15,10.58,2.66,14.29,3.57,23.87l-.13-.12c3,11.81,2.17,19.08,5.21,31.27-.38-1.52-.13.7-.25.59,1,5.67,2,11.74,2.91,11.7.63,4.15.25,3.42,0,4,.37-.08,1.09,3.5,1.62,6.73l-.38-1.47L365,284.6l.43-1.94c.56,4.95-.68,1.39.23,6.07l.58-.15a88.11,88.11,0,0,1,.77,8.87l.19,4.15.13,2.21,0,.55,0,.17,0,.33.07.61-1.95.27-5.07.75-10.19,1.58-20.42,3.28c-13.55,2.16-26.87,4.18-39.35,5.47l-1.19-.28c-.58-.58-6.9,2-8,1.51l-2.93.73c-.85,0-2.63.13-1.17-.23a28.9,28.9,0,0,0-4.75,1l-3,0c-2.53.3-5,.63-7.35,1l-1.79.28-.89.14-.22.05-.94.22c-.06-.36-.13-.71-.19-1.07-.14-1.3-.27-2.62-.41-4-.28-2.83-.53-5.74-.73-8.81-.25-13.86-3.06-39.77-4.68-54.69-2.63-21-1.95-45.61-4.77-67.05a9.28,9.28,0,0,0-.38-2.49l-1.46-19.71s-7.27-95.55-7-22.55l-.18-.47c.5,10.81,1,17.61,2.26,25-.78,1.24.61,8.86.52,11.41l-.09-.24c1.2,6.53.51,13.6,1.61,19.89a3.48,3.48,0,0,1-.47-1.81c.48,4.61,1.17,10.91.68,11.3,1,11,2,26.44,3.36,33.45l-.18-.48c.86,4,.49,5.21,1.12,9.7,0,.25,0,.57-.09.52.89,4.35,1.1,12.8,1.61,16.33l-.32.26.76,8.73-.18-3.27c1,1.06-.07,6.66,1,12.95.35,5.94,2.89,11.88,2.91,18.07.67,2.91-.91-2.53-.23,1.84-.47.18-.46-2-.76-.87.57,4.3.05,7.11.8,12.41l-.36.24c.29,1.61.47,3.12.6,4.7.18,2.26.3,4.45.41,6.64l3.54-.4,3.35-.42a27.1,27.1,0,0,0,4-.78c7.06-1.34,4.93.43,12.22-1.38l2.95.1c3.18-.38,2.18-1,5.72-1.22-.16.36,4.48-.38,2.46.22,8-.64,16-3,26.61-3.7,2.18-.95,7.5-1.34,9.13-2.06.32.23,10.56-1.48,4.73,0-.5.12-1.4.24-1.35.13l-.65.47c6.06-.16,10.78-1.95,16.7-2.7-1.77.13-4.09.5-2.57,0l5.49-.74-1.09.48,8.19-1-1.18-.22c4-.38,5.53.07,10-1.13,2-.6-3.86,0,.34-.7l4.39-.42c.54,0,2.25-.25,3.66-.41l4.55-.55c-.61-4.64-1.25-9.55-1.85-14.05-.33.7-.6-1.14-1-3l.34-.27c-1.66-7.15.41-2.78-1.13-9.89l.37.59-1.09-1.78c-1.76-6.35.24-3.61-1.91-10.64.51,2.83-.62,1.47-1-2.06l.5.83c-.38-1.93-.63-2.55-.76-3.85.38,1.12.63.53.12-2.31l.75,1.84-1.51-5.29c-.26-4.21-1.78-10.73-1.53-12.52,0,0-1.15-9-2-10.94.63,1.74,0-3.21.62-1.87a57.81,57.81,0,0,1-2.16-11.85l.13.51c-1.15-10.2-3.3-17.23-4.2-26.41-.37.49-.88-4.35-1.25-3.08-2-9.32-1.55-17.33-3.81-20.45-.76-4.27-.39-5.14-.64-7.36l.25,1c-1.4-8-1.78-10.32-2.67-16.28-.63-2.94-1.51-3.29-2.15-8.64.59,1.67.19-.5-.12-2.49.25,1.26.43,1.64.23-1a12.08,12.08,0,0,1-.44-1.44s0-.13.07-.08c-.63-3.31-.64-2.72-.44-1.17-.06-.07-.1.07-.12.57-.13-3.52-1.53-9.62-1.05-10.13-1.69-10-3.37-17-4.89-25.32.14-1,.69.92,1.18,3.32l-1-5.89c.42,0,.77,3.36,1.13,5.16a67.28,67.28,0,0,0-1.34-9.08c-.31-1.54-.63-3.12-1-4.72-.2-1.17-.41-2.36-.62-3.55s-.4-2.5-.61-3.77c-1.92.54-3.85,1-5.91,1.51l-.63.26-.31.13-.21.11-.79.39-.49.08a9.92,9.92,0,0,1-2.84,1.28c-1.23,0-.15-.81-4.12.33-3.23.56-8.88,2.7-12.94,4,2.24-.57,1.57-.18.65.21-2,.58-3.22.56-4.71,1.14l-.33-.41c.91.21-5.05,1.94-5.74,2.34-1.22,0,3-1.17,3.43-1.57L291,96.68c-4.15,1.55.9.22-1,1.2-3.72,1.15-7.3,2.51-11.68,3.45l1.48,0a117.62,117.62,0,0,1-16.06,4.39C212.17,124,254,113.46,254,113.46,274.92,108.52,285.26,104.3,309.79,97Z"/><path class="cls-2" d="M216.86,356l.18,2.75C217.14,358.66,217.12,358,216.86,356Z"/><path class="cls-2" d="M80.57,602.57l-.08-.65A3.7,3.7,0,0,0,80.57,602.57Z"/><path class="cls-2" d="M225,462.8l0-.14-.16-.7Z"/><path class="cls-2" d="M189.67,357.41l13.17-2.92,5.63-1.22.81-.08V354c0-.07,0,.31.07.58l.11.84c.27,2.24.54,4.41.81,6.56.55,4.31,1.09,8.55,1.66,13.05,1.19,9,2.62,19.07,4.78,32.86,2.55,18,5.58,37.2,8.27,54.79,2,8.24,3.38,23.11,5.48,32.9l.12,3.9a83.57,83.57,0,0,1,1.71,10.81l-.16-.2c1.08,5,1.72,10.81,2.26,13.31l-.16-.19,1,6.18-.34-1c1.65,8.82,3,18,4,26l.44-.75c1.91,17.32,3.95,23.46,5.5,39.12l-.16-.19c4.29,19.45,3.56,31.22,7.87,51.29-.54-2.5-.12,1.12-.28.94,1.52,9.31,3,19.26,4.13,19.26,1,6.8.48,5.58.2,6.53.46-.11,1.51,5.77,2.31,11.07l-.53-2.41,2.38,15.19.44-3.11c.92,8.1-.77,2.2.57,9.9l.71-.21c.73,5.55,1.07,10,1.35,14.39.13,2.2.27,4.39.41,6.7,0,.57.08,1.16.13,1.75v.43l0,.29-.08,1h-.09l-1.14.07-3.57.27-8.59.68-17.29,1.48-34.71,3.14c-23,2.09-45.71,4-66.8,5l-1.9-.41c-.87-.74-11.52,2.11-13.18,1.49l-4.87.75c-1.39,0-4.3,0-1.87-.33a62.18,62.18,0,0,0-7.88,1l-4.89-.11-1.91.11a3.48,3.48,0,0,1-.48,0h-.22l-.84,0c-.14-2.32-.28-4.59-.41-6.85-.25-3.59-.49-7.17-.73-10.78-.5-7.23-1-14.63-1.3-22.71-.09-22.67-3.1-65.2-4.85-89.71C83.83,574.28,85.07,534,82,498.77a19.82,19.82,0,0,0-.43-4.09l-1.47-32.32S72.73,305.67,71.87,425l-.21-.79c.44,17.7.89,28.84,2.37,41-1,2,.59,14.53.45,18.69l-.11-.39c1.36,10.75.39,22.25,1.65,32.62a7.12,7.12,0,0,1-.55-3c.5,7.57,1.25,17.92.65,18.52,1,18.08,2,43.36,3.56,54.9l-.21-.78c1,6.57.52,8.55,1.22,15.92a4.3,4.3,0,0,1-.12.85c1,7.16,1.13,21,1.7,26.8l-.4.4.8,14.33-.17-5.36c1.24,1.8-.19,10.88,1.06,21.24.33,9.73,3.35,19.61,3.28,29.74.78,4.79-1.08-4.2-.31,3-.59.27-.54-3.34-.93-1.46.63,7,0,11.62.78,20.33l-.45.38a144.86,144.86,0,0,1,.9,15.94c0,2.45.07,4.78.17,7l.08,1.62.13,1.65c.11,1.57.25,3.07.42,4.43.07,1.17.14,2.23.21,3.19,3.42-.3,5.68-.4,7.55-.44H96l.42,0,.78,0,1.44.09a44.33,44.33,0,0,0,9.8-.79l4.79.26c5.23-.31,3.68-1.07,9.49-1.22-.32.42,7.34-.26,4,.38,13.15-.41,26.52-3,43.85-3.28,3.69-1.07,12.41-1.29,15.16-2.09.49.3,17.4-1.32,7.71.18a6.49,6.49,0,0,1-2.23.09l-1.13.55c9.91.09,17.84-1.88,27.59-2.51-2.9.07-6.74.42-4.19-.1l9-.65-1.85.53,13.5-.83-1.9-.33c6.62-.28,9,.35,16.38-.91,3.34-.64-6.3-.15.65-.85l9.11-.39,5.23-.24,9.55-.58c-.77-6-1.57-12.19-2.31-17.95-.38,1.12-.8-1.89-1.36-5l.41-.43c-2.37-11.76.38-4.49-1.84-16.18l.47,1-1.42-3c-2.47-10.48.13-5.86-2.85-17.47.76,4.65-.7,2.34-1.33-3.43l.66,1.39c-.56-3.16-.9-4.19-1.12-6.32.52,1.86.8.9,0-3.75l1,3-2.11-8.7c-.51-6.89-2.69-17.61-2.47-20.5,0,0-1.83-14.7-3-18,.86,2.88-.15-5.23.69-3-1-3.72-3.08-14.89-3.21-19.45l.18.84c-1.9-16.69-4.87-28.3-6.4-43.3-.44.76-1.3-7.15-1.7-5.11-2.93-15.32-2.7-28.32-5.64-33.58-1.14-7-.71-8.39-1.13-12l.35,1.66c-2.09-13.12-2.66-16.93-4-26.7-.92-4.84-2-5.47-3.05-14.24.8,2.77.21-.79-.27-4.05.37,2.08.61,2.7.24-1.63a22.48,22.48,0,0,1-.6-2.37s0-.21.07-.13c-.93-5.44-.91-4.47-.6-1.93-.08-.12-.12.11-.12.9-.31-5.73-2.33-15.76-1.76-16.55-2.55-16.37-5-28-7.2-41.59.12-1.59.89,1.56,1.61,5.5l-1.54-9.66c.51,0,1.1,5.52,1.63,8.48-.87-11.64-4.27-23.64-5.5-37.26l-.8-2.74-.06-.82c-.2.08-.92-2.91-1.28-4.91.08-.91.3-1.11.38-1.93s0-2.64-.78-7.6l-.51.12c-2,.35-4.49.9-7.27,1.55l-3,.73-2.85.75-11.3,3.12c3.69-.78,2.56-.27,1,.25-3.29.78-5.28.8-7.78,1.57l-.45-.5c1.42.24-8.47,2.59-9.63,3.11-2,0,5-1.56,5.77-2.07l-19.78,4.69c-6.94,2.08,1.41.25-1.85,1.54-6.19,1.56-12.16,3.38-19.38,4.69h2.38a251.74,251.74,0,0,1-26.59,6c-86.06,24.45-17,10-17,10C131.64,372.93,149,367.32,189.67,357.41Z"/><path class="cls-2" d="M204.32,394l.13,2.31A6.86,6.86,0,0,0,204.32,394Z"/><path class="cls-2" d="M101,589.45l-.07-.54A5,5,0,0,0,101,589.45Z"/><path class="cls-2" d="M210.54,483.65v-.12l-.13-.59Z"/><path class="cls-2" d="M191.17,381.61l4.76-1.17.85-.17.05.82c.15,1.23.29,2.42.43,3.58l.85,7.25c.54,4.62,1,8.88,1.55,13.3,1.06,8.83,2.27,18.26,4.34,32.31,2,15.12,4.4,31.23,6.53,46,1.6,6.92,2.66,19.4,4.34,27.63l.07,3.27a72.56,72.56,0,0,1,1.36,9.08l-.13-.17c.86,4.23,1.36,9.08,1.79,11.18l-.14-.16.76,5.18-.27-.87c1.31,7.41,2.38,15.09,3.18,21.87l.36-.62c1.49,14.54,3.12,19.7,4.33,32.84l-.13-.16c3.42,16.35,2.78,26.2,6.21,43.06-.42-2.1-.1.94-.23.79,1.2,7.82,2.41,16.18,3.29,16.18.77,5.71.37,4.69.14,5.48.37-.09,1.21,4.85,1.84,9.3l-.43-2,1.88,12.76.37-2.61c.72,6.81-.63,1.84.43,8.31l.58-.17c.58,4.7.84,8.45,1.05,12.17.1,1.86.21,3.71.32,5.66.06,1,.13,2,.2,3,0,.23.05.64,0,.63v.24l0,.43.05.44-.94.06-2.88.22-7.1.57-14.29,1.23-28.67,2.59c-19,1.71-37.74,3.29-55.16,4.14l-1.6-.33c-.73-.6-9.66,1.74-11,1.24l-4.08.62h-1.78l-.07,0c-.08,0-.13-.05-.11-.09l.06-.06a.91.91,0,0,1,.33-.08l-.61,0-.33,0-.58.14a5.3,5.3,0,0,1-.2-.55c.06-.27.11-.51.17-.72l.1-2c-.48-15-1.93-27.73-2.61-43.53-.17-19-2.82-54.66-4.35-75.21-2.5-28.85-1.67-62.62-4.35-92.16a17.63,17.63,0,0,0-.37-3.43L99.93,471.9s-6.68-131.37-6.84-31.29l-.17-.66c.43,14.84.85,24.18,2.11,34.37-.8,1.66.55,12.18.45,15.67l-.09-.33c1.15,9,.42,18.66,1.49,27.35a6.2,6.2,0,0,1-.46-2.51c.44,6.34,1.1,15,.61,15.52.93,15.17,1.82,36.35,3.15,46l-.18-.66c.84,5.51.46,7.17,1.07,13.35,0,.34-.06.78-.1.71.87,6,1,17.61,1.51,22.48l-.33.33.72,12-.17-4.49c1,1.51-.1,9.12,1,17.8.32,8.16,2.82,16.44,2.81,24.94.65,4-.9-3.52-.25,2.5-.47.22-.45-2.81-.76-1.23.55,5.92,0,9.75.73,17l-.36.32c1.2,9.5.45,18,1.45,24.34a41.3,41.3,0,0,1,.12,7.81l-.09,1.18,0,.63c0,.24,0,.38,0,.85,0,1.62.13,3.72.37,6.6l4.17-.49h3l2,.1c4.38-.26,3.09-.87,8-1-.27.35,6.15-.22,3.33.31,11-.36,22.24-2.47,36.77-2.76,3.1-.87,10.41-1.07,12.71-1.73.41.24,14.6-1.1,6.47.13a5.4,5.4,0,0,1-1.87.08l-1,.45c8.31.06,15-1.56,23.14-2.1-2.43.07-5.65.35-3.52-.07l7.59-.55-1.55.44,11.31-.71-1.59-.26c5.55-.24,7.54.27,13.73-.77,2.8-.53-5.27-.11.55-.69l6.76-.3,4.13-.2,7-.43c-.67-5.58-1.36-11.39-2-16.77-.31.94-.64-1.59-1.09-4.17l.34-.35c-1.89-9.88.33-3.77-1.44-13.59l.38.84-1.14-2.5c-2-8.81.12-4.91-2.25-14.68.6,3.91-.58,2-1.08-2.88l.53,1.17c-.44-2.66-.71-3.52-.88-5.31.41,1.56.64.77,0-3.15l.82,2.57-1.69-7.32c-.39-5.78-2.12-14.78-1.93-17.2,0,0-1.43-12.34-2.38-15.09.68,2.43-.11-4.38.56-2.5a110,110,0,0,1-2.54-16.34l.15.71c-1.48-14-3.86-23.77-5.05-36.35-.36.63-1-6-1.36-4.3-2.33-12.87-2.1-23.77-4.46-28.2-.9-5.88-.56-7-.88-10.1l.28,1.4c-1.65-11-2.11-14.22-3.19-22.42-.73-4.07-1.62-4.61-2.43-12,.64,2.32.17-.66-.2-3.41.29,1.75.48,2.27.2-1.36a18.12,18.12,0,0,1-.49-2s0-.18.07-.11c-.74-4.56-.73-3.75-.48-1.62-.07-.1-.1.09-.1.75-.24-4.8-1.85-13.24-1.38-13.88-2-13.75-3.92-23.51-5.7-34.94.1-1.32.72,1.32,1.28,4.63l-1.21-8.11c.41,0,.87,4.63,1.3,7.13-.67-9.77-3.39-19.86-4.34-31.29l-.65-2.31,0-.68a18.84,18.84,0,0,1-1-4.13c.14-1.65.84,0,0-5.61-.08-1.37-.28-3.06-.56-4.93l-1.34-8.52-6,1.7L191.7,376c3.08-.73,2.14-.28.86.18-2.75.71-4.42.77-6.5,1.47l-.38-.4c1.19.16-7.05,2.31-8,2.76-1.65.06,4.19-1.39,4.8-1.82L166,382.49c-5.79,1.86,1.18.17-1.53,1.3-5.16,1.42-10.13,3-16.16,4.3l2-.07a217.9,217.9,0,0,1-22.17,5.53c-71.72,22-14.11,8.54-14.11,8.54C142.8,395.67,157.24,390.67,191.17,381.61Z"/><path class="cls-2" d="M381.53,345l2.59-.29C384.06,344.65,383.4,344.69,381.53,345Z"/><path class="cls-2" d="M270,583.62l-.14-.6A5.43,5.43,0,0,0,270,583.62Z"/><path class="cls-2" d="M400.81,435.63l0-.14-.15-.65Z"/><path class="cls-2" d="M352,357.86c9.19-1.77,16.58-3.12,23.16-4.29l9.39-1.67,2.25-.39,1.11-.2.25,0h.07l.31,0,0,.29v.08l.06.48.27,2c.36,2.7.74,5.53,1.15,8.54.84,6,1.84,12.84,3.12,21,2.38,17,5.23,35.12,7.75,51.72,1.92,7.78,3.16,21.82,5.16,31.06l.08,3.69a74.41,74.41,0,0,1,1.61,10.2l-.15-.18c1,4.75,1.61,10.2,2.12,12.56l-.16-.18.9,5.83-.33-1c1.57,8.33,2.84,17,3.77,24.59l.45-.7c1.75,16.35,3.73,22.14,5.13,36.93l-.16-.18c4.1,18.35,3.26,29.48,7.38,48.42-.52-2.36-.13,1.06-.29.88,1.42,8.79,2.86,18.19,3.94,18.18.92,6.42.43,5.27.14,6.17.46-.11,1.46,5.45,2.21,10.45l-.51-2.28,2.23,14.34.47-2.94c.84,7.65-.79,2.09.47,9.35l.71-.2c1.38,10.56,1.17,16.9,2.11,27.17q.75,5.31,1.5,10.68c.25,1.68.5,3.37.74,5l.24,1.45-50.35.65c-18.06.19-35.73.21-52.33-.32l-1.76-.55c-.77-.8-11,1.2-12.51.46l-4.64.37c-1.3-.14-4-.3-1.74-.48a55,55,0,0,0-7.48.35l-4.6-.5c-2.22-.05-4.4-.07-6.56-.08h-2.26l-.74,0-.21-1-.75-4.31c-.51-2.87-1-5.75-1.53-8.67-1-5.84-2-11.84-3-18.33-2.26-21.28-9.34-60.9-13.42-83.73-6.18-32-8.8-70-15.27-102.73a17.27,17.27,0,0,0-.82-3.79L256.05,452s-22.34-146.36-11.73-34.18l-.29-.72c2.13,16.58,3.65,27,6.29,38.25-.79,2,2,13.58,2.24,17.5l-.15-.35c2.39,9.95,2.53,20.86,4.77,30.46a6.65,6.65,0,0,1-.83-2.76c1.23,7.06,3,16.7,2.42,17.32,2.78,16.87,6.14,40.51,8.81,51.18l-.28-.71c1.62,6.06,1.33,8,2.74,14.82,0,.38,0,.88,0,.81,1.71,6.62,3.14,19.6,4.27,25l-.36.42,2.17,13.37-.69-5c1.41,1.56.85,10.24,3.09,19.83,1.27,9.11,5.22,18.06,6.12,27.58,1.23,4.42-1.48-3.82,0,2.84-.55.31-.85-3.09-1.06-1.28,1.3,6.56,1.07,10.92,2.73,19l-.41.4A114.51,114.51,0,0,1,288,698.29l.69,5.69.22,1.63q.15,1,.3,2c.2,1.34.4,2.64.61,3.89,2.1,0,4.11-.11,5.93-.24l2.22,0h1.61c1,0,1.79,0,2.49.09,1.4.1,2.34.26,3.3.39,1.92.28,3.89.5,9.67,0l4.49.63c4.94.09,3.54-.78,9-.48-.33.4,6.93.31,3.72.69,12.4.62,25.17-.9,41.5.14,3.55-.77,11.77-.32,14.42-.9.44.34,16.48,0,7.24.78a5.91,5.91,0,0,1-2.09-.08l-1.11.46c9.32.86,16.93-.49,26.14-.36-2.73-.15-6.36-.11-3.93-.43l8.56.06-1.78.39,12.75.22-1.75-.48c2.67.1,4.6.31,6.48.46l.39,0,.65,0L441,713l2.75.06c1.89,0,3.93,0,6.18,0-.27-1.55-.58-3.28-.95-5.15-.62-2.92-.4-.31-.29,1.37s.13,2.58-.73-2.85c-.1-.86-.21-1.74-.32-2.65,0-.46-.11-.92-.17-1.39l-.09-.88c-.12-1.15-.25-2.36-.38-3.61-.27-2.5-.56-5.17-.86-7.9-.6-5.47-1.27-11.23-2-16.51-.4,1.07-.78-1.78-1.31-4.68l.41-.4c-2.26-11.1.43-4.25-1.69-15.28l.47.93-1.4-2.8c-2.36-9.88.19-5.54-2.68-16.49.72,4.39-.72,2.22-1.3-3.23l.65,1.31c-.53-3-.86-4-1.06-6,.5,1.75.79.85.08-3.55l1,2.88-2-8.22c-.45-6.5-2.53-16.62-2.28-19.35,0,0-1.69-13.88-2.83-17,.83,2.72-.11-4.93.7-2.83-1-3.52-2.92-14-3-18.37l.18.8c-1.74-15.76-4.6-26.71-6-40.88-.44.72-1.22-6.75-1.64-4.82-2.79-14.46-2.44-26.74-5.32-31.69-1.07-6.61-.64-7.92-1-11.36l.34,1.56c-2-12.38-2.51-16-3.79-25.21-.87-4.57-2-5.15-2.91-13.43.78,2.61.22-.75-.23-3.83.35,2,.58,2.55.26-1.54a18.19,18.19,0,0,1-.59-2.24s0-.2.08-.12c-.88-5.13-.87-4.22-.58-1.82-.08-.11-.13.1-.13.86-.26-5.42-2.18-14.89-1.6-15.63-2.39-15.46-4.68-26.42-6.81-39.26.14-1.5.88,1.46,1.56,5.18l-1.45-9.12c.51,0,1.05,5.21,1.55,8a137.62,137.62,0,0,0-2.07-14.8l-1.38-7.74-.33-2c-.13-.88-.27-1.77-.41-2.66-.3-2-.59-4.1-.87-6.21-2.24.41-4.5.81-6.87,1.19l-1,.3-.4.13-.31.12-1.28.45-.76.09c.08.2-2.7,1.05-4.56,1.49-1.87-.07-.07-1-6.33.26-5,.57-14,3-20.45,4.55,3.51-.63,2.43-.17,1,.29-3.13.64-5,.57-7.39,1.24l-.42-.53c1.34.31-8.06,2.23-9.17,2.7-1.86-.08,4.79-1.34,5.5-1.82l-18.8,3.84c-6.61,1.78,1.33.31-1.77,1.46-5.89,1.29-11.57,2.85-18.43,3.86l2.25.08A227.52,227.52,0,0,1,280.25,367c-81.88,20.74-16.28,9.22-16.28,9.22C296.76,370.87,313.27,366,352,357.86Z"/><path class="cls-2" d="M381,369.65l.14,1.67.05.75,0,.55s.06-.18,0-.52c0-.12,0-.51-.08-.92Z"/><path class="cls-2" d="M286.48,566.7l-.11-.5A2.11,2.11,0,0,0,286.48,566.7Z"/><path class="cls-2" d="M386.48,454.87v-.12l-.12-.55Z"/><path class="cls-2" d="M356.33,375.94l12.6-2.6,5.37-1.07.32-.07.16,0h.6v.56s0,0,0,.07l0,.3c.18,1.58.36,3.13.54,4.68.36,3.11.73,6.23,1.13,9.56.82,6.66,1.82,14.16,3.29,24.13,1.87,14.24,4.12,29.41,6.11,43.31,1.53,6.52,2.49,18.28,4.08,26l.05,3.08a64.69,64.69,0,0,1,1.28,8.54l-.13-.15c.82,4,1.27,8.55,1.68,10.53l-.13-.16.71,4.88-.26-.82c1.24,7,2.24,14.21,3,20.6l.36-.59c1.36,13.69,3,18.55,4,30.93l-.13-.16c3.27,15.39,2.54,24.68,5.82,40.55-.41-2-.11.89-.24.74,1.13,7.36,2.26,15.23,3.14,15.23.72,5.38.33,4.42.09,5.16.37-.08,1.16,4.57,1.76,8.76l-.41-1.91,1.76,12,.39-2.46c.66,6.41-.65,1.74.35,7.83l.59-.16c1.08,8.84.88,14.13,1.61,22.73q.6,4.58,1.22,9.21l.63,4.54.19,1.25L376,681c-15,0-29.7-.18-43.5-.76l-1.47-.47c-.63-.66-9.2.87-10.46.25l-3.88.26c-1.09-.13-3.39-.28-1.46-.41-1.79,0-2.71,0-3.5,0l-1.19.08-.7,0-.4,0-.21,0-.08,0a3.55,3.55,0,0,1-.83-.36l0-.19-.05-.66-.3-2.26c-.25-1.7-.5-3.37-.74-5-.5-3.31-1-6.57-1.58-9.84-1.09-6.55-2.21-13.18-3.2-20.56-1.74-17.81-7.32-51-10.54-70.14-4.87-26.83-6.84-58.58-11.94-86a14.52,14.52,0,0,0-.66-3.17l-3.56-25.29s-17.51-122.6-9.39-28.71l-.23-.6c1.66,13.88,2.85,22.6,4.94,32-.65,1.63,1.56,11.37,1.74,14.65l-.11-.29c1.89,8.34,2,17.46,3.74,25.51a5.63,5.63,0,0,1-.67-2.32c1,5.92,2.34,14,1.89,14.51,2.19,14.13,4.82,33.93,6.94,42.88l-.23-.6c1.29,5.09,1,6.68,2.16,12.42,0,.32,0,.73,0,.67,1.35,5.56,2.46,16.42,3.35,20.94l-.29.35,1.7,11.2-.53-4.2c1.13,1.32.64,8.56,2.42,16.61,1,7.62,4.16,15.15,4.85,23.12,1,3.71-1.18-3.22,0,2.37-.45.25-.68-2.59-.85-1.08,1,5.5.82,9.14,2.13,15.92l-.33.33c2,8.8,1.93,16.87,3.45,22.7.22,1.23.38,2.25.49,3.1l.13,1.18.14,1.33c.17,1.84.22,3.16.32,4.68,1.11.11,2.41.21,4.35.24h1.5l1.12,0c.82,0,1.76-.07,2.87-.15l3.75.56c4.13.13,3-.6,7.55-.3-.29.32,5.78.32,3.1.6,10.36.62,21.06-.49,34.71.51,3-.59,9.84-.14,12.06-.59.37.27,13.78.19,6.05.7a5.35,5.35,0,0,1-1.75-.08l-.93.36c7.78.79,14.16-.24,21.87,0-2.29-.15-5.33-.15-3.29-.39l7.16.13-1.5.3,10.67.3-1.46-.4c2.13.1,3.7.28,5.21.41,2.63.15,5.56.27,9,.24-.24-1.54-.55-3.32-.91-5.29-.49-2.42-.32-.21-.24,1.21s.11,2.19-.57-2.35c-.08-.72-.17-1.46-.25-2.23,0-.47-.1-1-.15-1.46l-.29-3c-.22-2.09-.44-4.32-.67-6.61-.47-4.58-1-9.39-1.54-13.81-.32.88-.63-1.5-1.05-3.93l.34-.33c-1.8-9.3.36-3.55-1.32-12.8l.38.79-1.12-2.35c-1.89-8.29.16-4.63-2.12-13.82.56,3.68-.6,1.85-1.05-2.71l.52,1.1c-.42-2.5-.68-3.32-.83-5,.39,1.47.63.72.07-3l.79,2.41-1.62-6.89c-.34-5.44-2-13.92-1.78-16.2,0,0-1.32-11.62-2.24-14.2.66,2.28-.07-4.13.59-2.36a97.24,97.24,0,0,1-2.4-15.38l.14.66c-1.35-13.19-3.63-22.37-4.71-34.23-.37.6-1-5.66-1.32-4-2.21-12.12-1.89-22.39-4.21-26.55-.85-5.54-.49-6.63-.79-9.51l.27,1.31c-1.55-10.37-2-13.38-3-21.11-.7-3.83-1.58-4.33-2.32-11.26.62,2.19.18-.62-.17-3.2.27,1.64.46,2.14.21-1.28-.16-.47-.32-1.2-.47-1.88,0,0,0-.17.07-.11-.7-4.29-.7-3.53-.47-1.52-.06-.09-.1.08-.11.71-.19-4.52-1.72-12.46-1.24-13.08-1.89-12.94-3.71-22.13-5.39-32.89.12-1.25.71,1.24,1.24,4.36l-1.14-7.64c.41,0,.83,4.36,1.23,6.71-.58-9.2-3.2-18.69-4.05-29.46l-.62-2.17,0-.64c-.09,0-.24-.4-.49-1.63s-.49-2.44-.67-3.51c0-1.23.2-1.42.24-2.3-.52-.05-1.9.14-6,1l-2,.35c-.62.11-1.28.25-2,.4-1.37.3-2.87.67-4.4,1.06L357,370.37c2.92-.57,2-.17.8.22-2.61.58-4.19.56-6.17,1.15l-.35-.41c1.12.22-6.71,2-7.63,2.36-1.56,0,4-1.18,4.58-1.58l-15.67,3.48c-5.5,1.58,1.11.23-1.47,1.22-4.9,1.17-9.64,2.55-15.35,3.5l1.88,0a191,191,0,0,1-21,4.44c-68.19,18.45-13.52,7.82-13.52,7.82C310.36,387.59,324.1,383.31,356.33,375.94Z"/><rect class="cls-1" x="62.97" y="364.99" width="41.64" height="107.34" rx="2.31" transform="translate(-32.59 7.87) rotate(-4.5)"/><path class="cls-3" d="M64.93,470.51c0-.44.06-.63.09-.9,0,0-.06.07-.08.19A3.28,3.28,0,0,0,64.93,470.51Z"/><path class="cls-3" d="M106.18,410.89c0,.06,0,.13,0,.18C106.21,410.94,106.2,410.9,106.18,410.89Z"/><path class="cls-3" d="M68.13,440.69v0l.06.2Z"/><path class="cls-3" d="M73.56,470.26l-1.82.1-.85,0h-.2a.39.39,0,0,1-.38-.57l0-.07v0s0,0,0-.11l0-1.08-.06-2.13c-.08-2.87-.26-6-.75-10.51-.33-5-.93-10.28-1.4-15.15-.78-2.26-.51-6.39-1.23-9.08l.26-1.09a8.4,8.4,0,0,1-.34-3l.1.06c-.37-1.39-.34-3-.52-3.68l.1.05-.18-1.71.17.29a44,44,0,0,1-.73-7.2l-.4.21c.08-4.8-.9-6.47-.7-10.82l.11.05c-1.51-5.35,0-8.65-1.41-14.17.18.69.19-.32.29-.27-.32-2.57-.6-5.32-1.4-5.3-.14-1.88.13-1.55.42-1.82-.35,0-.63-1.59-.76-3.05l.19.66-.46-4.2-.59.88c0-2.24.76-.63.43-2.75l-.54.07a18.51,18.51,0,0,1,.08-2.74c0-.42.1-.82.15-1.23l0-.3,0-.15,0-.07.12-.25a1,1,0,0,1,.69-.62.84.84,0,0,1,.59-.17l1.75-.15,4.75-.46,9.51-1.05c3.16-.35,6.29-.68,9.36-.91,1.53-.12,3-.21,4.55-.27l2.24-.07,1.1,0h.79l.09,0a2,2,0,0,1,.11.4c0,.32.1,0,.45-.13s.75,0,.5.21a.81.81,0,0,1,.33.31c-.09.19-.19.43-.34.25v.14l0,.33a4.13,4.13,0,0,0,.08.47c.07.27.16.5.29.94L98,370.71c.09,4.93,1.14,9,1.4,14.21-.27,6.26,1.35,17.87,2.28,24.56,1.65,9.37.11,20.55,1.9,30.14a2.09,2.09,0,0,0,.27,1.11l.61,8.86s.79,10.74,1.88,17.35l.21,1.18,0,.26,0,0a.93.93,0,0,1,.05.1.7.7,0,0,1,0,.51,3.09,3.09,0,0,1-.25.48c-.09.16-.18.32,0,.48a1,1,0,0,0,.92.29,2.19,2.19,0,0,0,1.75-1.62,3.11,3.11,0,0,0,.1-.46l.06-.41.12-.88.23-2.05c.16-1.5.31-3.27.46-5.33l.15.21c-.06-4.87-.23-7.93-1.16-11.22.77-.59-.22-4,0-5.14l.07.1c-.85-2.9,0-6.13-.74-8.93a1,1,0,0,1,.36.8c-.26-2.07-.67-4.89-.21-5.08-.51-4.95-.84-11.89-1.84-15l.15.21c-.65-1.77-.26-2.34-.68-4.34,0-.11.07-.26.1-.24-.65-1.93-.53-5.75-.87-7.33l.31-.12-.39-3.93,0,1.48c-.9-.44.31-3-.47-5.82-.1-2.67-2.22-5.26-2-8.07-.51-1.28.74,1.11.28-.83.44-.1.35.9.67.36-.37-1.92.21-3.21-.28-5.58l.34-.13c-.89-3.06,0-5.91-.78-7.94-.54-3.19.87-2.24-.08-5.53a2.23,2.23,0,0,0,.09-.37l.08-.55c0-.38.1-.77.13-1.16a2.46,2.46,0,0,0-.84-1.77c-.33-.28-.59-.66-1.5-1.48.16-.07-.46-.58-1-.82s-1-.38-.25-.35a5.6,5.6,0,0,0-2.27-.25l-1.16.08-.69.06c-.93.1-1.87.25-2.85.39a27.31,27.31,0,0,1-6.46.32c-1,.66-3.39.51-4.12,1-.15-.24-4.78.34-2.15-.42.23-.06.63-.09.61,0l.3-.36c-2.75-.44-4.88.74-7.56.85.8.05,1.85-.06,1.16.23l-2.48.15.49-.33-3.71.12.54.32c-1.83,0-2.51-.6-4.51.07-.9.35,1.75.34-.15.61l-1.78,0h-.57l-.87,0a6.62,6.62,0,0,0-1.73.22,5.14,5.14,0,0,0-2.86,2,5.55,5.55,0,0,0-1,3.47l.09,1.73c.38-.32.43.51.58,1.36l-.34.12c.74,3.24-.68,1.27,0,4.49l-.27-.27.8.8c.92,2.88-.6,1.64.6,4.83-.16-1.28.72-.67.7.93l-.37-.37a9,9,0,0,1,.28,1.74c-.22-.51-.51-.24-.35,1.05l-.5-.83.82,2.39c-.22,1.91.47,4.87.06,5.68,0,0,.08,4.07.68,5-.39-.79-.34,1.45-.77.85a12.74,12.74,0,0,1,.7,5.37l-.06-.23c0,4.62,1.17,7.81,1,12,.39-.22.34,2,.81,1.4.85,4.22-.44,7.85,1.29,9.27.23,1.93-.2,2.33-.2,3.34l-.12-.46c.41,3.63.51,4.68.69,7.38.26,1.34,1,1.49,1,3.92-.36-.76-.22.22-.15,1.13-.09-.58-.22-.75-.32.46a2.45,2.45,0,0,1,.24.65s0,.06-.07,0c.23,1.5.3,1.23.28.52,0,0,.11,0,.17-.25-.26,1.59.37,4.36-.12,4.59.47,4.52,1.25,7.72,1.75,11.48-.23.44-.53-.42-.72-1.51l.31,2.67c-.38,0-.34-1.52-.48-2.34-.36,3.24,1.12,6.52.86,10.31l.36.75,0,.22c.08,0,.19.19.29.46a11.41,11.41,0,0,1,.28,1.23c-.13.41-.3.47-.4.75s-.2.85.6,2a3.41,3.41,0,0,0,1.62,1.44,4.83,4.83,0,0,0,2.65.29l1.15-.18.74-.14,1.37-.26c-1,0-.72-.18-.28-.33.92-.09,1.48.2,2.19,0l.12.44c-.4-.39,2.38-.64,2.71-.85.55.28-1.41.39-1.63.66l5.56-.5c2-.49-.39-.39.53-.85A27.21,27.21,0,0,1,88,473.2l-.66-.34a25.16,25.16,0,0,1,7.47-.45c24.2-5.13,4.81-4.78,4.81-4.78C89.88,467.52,85,469.05,73.56,470.26Z"/><ellipse class="cls-1" cx="83.51" cy="415.09" rx="29.15" ry="22.55" transform="translate(-32.31 7.83) rotate(-4.5)"/><path class="cls-3" d="M102.85,433.82l-.46.12C102.44,434,102.57,434,102.85,433.82Z"/><path class="cls-3" d="M88.9,390.63l.11,0C88.93,390.61,88.91,390.62,88.9,390.63Z"/><polygon class="cls-3" points="86.13 433.97 86.14 433.97 86.24 433.92 86.13 433.97"/><path class="cls-3" d="M103.63,426.77a18.7,18.7,0,0,1-4.82,3c-.75.3-1.44.69-2.31,1-.43.18-.88.38-1.36.62l-1.64.69A42.65,42.65,0,0,1,86.15,434a3,3,0,0,1-1,.38,9.16,9.16,0,0,1-1.21.09,10.19,10.19,0,0,0-2.41.25l-.53-.36a2.16,2.16,0,0,1-1.52,0l0-.1a15,15,0,0,1-1.89,0l.05-.1a8.28,8.28,0,0,1-.87-.07L77,434a8.69,8.69,0,0,1-3.58-.65l0,.42a9.62,9.62,0,0,0-1.47-.58,11.66,11.66,0,0,0-1.22-.36,5.16,5.16,0,0,1-2.37-1.16l.07-.08a3.77,3.77,0,0,1-1.81-.59,5.35,5.35,0,0,1-1.3-1.05,9.39,9.39,0,0,0-1.22-1.13,4.87,4.87,0,0,0-1.62-1c.35.14,0-.25.12-.3-.94-.82-1.88-1.77-2.49-1.32-.56-.77-.26-.77-.08-1.05-.27.21-.91-.34-1.26-1l.28.22-.57-.87a5.48,5.48,0,0,1-.52-.91l-.44.67c-.27-1.13.63-.6.07-1.52L57,422A3.87,3.87,0,0,1,57,419.9c.06-.64.32-1.28.42-2a18.35,18.35,0,0,1,1.1-8.85,14.17,14.17,0,0,1,5.78-6.95l.46.15c.23.2.39-.22.57-.67s.42-.86.67-.7l.4-.61c.22,0,.62-.15.41.15.53-.34.49-.43.79-.81h.79a30.15,30.15,0,0,0,3.14-1.67c.51-.29,1.06-.54,1.61-.8.28-.13.57-.25.87-.37s.62-.17.94-.24c.83,0,1.77-.23,2.83-.37.52-.08,1.06-.2,1.62-.3l1.71-.27.86-.16.87-.1,1.69-.23c1.11-.1,2.15-.16,3-.23a15,15,0,0,1,7.53,1.8c2.39,1.2,4.49,2.63,6.76,3.56a.6.6,0,0,0,.55.18c.3.23.6.44.89.68l.81.74c.26.25.55.49.8.75l.72.82.59.64c.33.42.78,1,1.3,1.7a29.86,29.86,0,0,1,2.56,4.79,9.73,9.73,0,0,1,.45,1.05,6.62,6.62,0,0,0,.43.81c.31.43.61.65.94.47s.64-.74.94-1.92a13.4,13.4,0,0,0-.09-5.55l.17.07a19.41,19.41,0,0,0-.84-1.91,7.21,7.21,0,0,0-1-1.51,9.45,9.45,0,0,0-1.06-1.19,9,9,0,0,0-1.3-.88c.18-.38-.19-.89-.72-1.28a5.44,5.44,0,0,1-1.29-1.11h.09c-1.74-.66-2.67-2.66-4.48-3a.52.52,0,0,1,.58,0c-1.12-.61-2.77-1.1-2.65-1.59-2.76-1.19-6.78-2.52-8.78-2l.15-.11c-1.13.27-1.38-.13-2.6,0-.06-.07-.14-.11-.12-.14a3.42,3.42,0,0,1-1.05.11c-.38,0-.79,0-1.2,0a9.63,9.63,0,0,0-2.06,0l-.06-.31-2.3.16.86,0c-.13.43-.57.31-1.18.17a3.29,3.29,0,0,0-2.21.13,2.58,2.58,0,0,0-1.14.36,11.08,11.08,0,0,0-1,.79,3.69,3.69,0,0,1-2.18,1.05c-.62.59.48-.82-.53-.21-.15-.42.44-.42.07-.68a3.86,3.86,0,0,1-1.5.3,3,3,0,0,0-1.64.5l-.18-.31c-1.49,1.18-3.39.91-4.25,2-1.5,1.19-1.64-.3-3,1.33l-.91,0c-.76.43-.18.83-1.1,1.18-.14-.29-1.09.59-.83,0a8.07,8.07,0,0,0-2.54,2.32c-.37.48-.81.93-1.24,1.43a8.73,8.73,0,0,1-1.56,1.44c.07.85-1,1.91-.91,2.53-.3-.1-1.43,2.62-1.15.86,0-.15.16-.37.24-.31l-.21-.35a4,4,0,0,0-1.18,2.15,9.78,9.78,0,0,1-.55,2.41c.29-.44.49-1.08.56-.58-.1.24-.2.48-.29.73l-.22.76-.2-.4c-.24.76-.52,1.52-.71,2.31l.41-.27c-.33,1.11-1,1.5-.61,2.87.14.3.26,0,.36-.16s.18-.3.24.31a21.41,21.41,0,0,0-.32,2.78,13.64,13.64,0,0,0,.25,3.14c.34-.28.47.25.7.75l-.32.17c.51,1,.46,1.17.33,1.43s-.25.52.35,1.44l-.29-.08.88.21c.73.69.72,1,.73,1.29s0,.68,1,1.29c-.49-.65.42-.72.88.14h-.43c.39.41.61.47.77.8-.34-.15-.5.16,0,.78l-.66-.18a10.29,10.29,0,0,0,1.46.79,6.44,6.44,0,0,0,1.26,1.59c.51.44.94.82,1,1.16a8.19,8.19,0,0,0,1,.91,3.17,3.17,0,0,0,1.62.76c-.6,0,.46.89-.07,1a5.7,5.7,0,0,1,3,1.48l-.15,0a10.72,10.72,0,0,0,3.49,1.51c.57.14,1.12.29,1.67.48a10.19,10.19,0,0,1,1.7.65c0-.43,1.21.15,1-.45a11.51,11.51,0,0,1,3.3.84c.93.25,1.7.32,2.23-.42,1.13.06,1.31.49,1.9.61l-.28.07,2.41,0c.62,0,1.17-.05,2-.07.79-.19.86-.9,2.27-.9-.42.35.14.23.67.16-.33.09-.43.21.29.33a1,1,0,0,1,.37-.24s0,0,0,.07c.86-.21.69-.29.28-.28,0-.05,0-.1-.17-.17,1,.28,2.5-.49,2.71,0a10.15,10.15,0,0,0,1.79-.59c.55-.23,1.06-.46,1.55-.69,1-.49,1.87-1.05,2.85-1.51.33.16-.06.55-.62.87a15.39,15.39,0,0,0,1.42-.68c.14.36-.74.58-1.18.8A5.22,5.22,0,0,0,99.25,436a9.71,9.71,0,0,1,2.77-1.56c.08-.17.17-.32.24-.49l.13,0c-.09-.13.2-.59.44-.82.44.1.41.65,1.3,0a2.89,2.89,0,0,0,1.37-1c.44-.51.88-1,1.23-1.51-.48.38-.46.1-.34-.15.37-.39.82-.38,1-.78l.35.28c-.46-.15.71-1.31.67-1.62.46,0-.34.83-.28,1.08a15,15,0,0,0,1.08-1.27c.17-.22.36-.43,1-1.32.39-1.19-.46-.07-.46-.77a17.32,17.32,0,0,1,1.54-2.79l-.52.15c.3-.91.6-1.59.83-2.22a11.24,11.24,0,0,1,1-1.69c.21-3.64-.77-5.45-1.3-6.26s-1.06-.74-1.35-.21a5,5,0,0,0-.73,1.84c-.22.63-.37,1.15-.37,1.15-.74,2-1.17,3.53-1.84,5.19a21,21,0,0,1-1.19,2.64l-.94,1.43A17.67,17.67,0,0,1,103.63,426.77Z"/></svg>