<svg id="Layer_1" data-name="Layer 1" xmlns="http://www.w3.org/2000/svg" viewBox="0 0 805.72 281.3"><defs><style>.cls-1{fill:#319940;}.cls-1,.cls-2{stroke:#75c967;stroke-miterlimit:10;stroke-width:5.77px;}.cls-2{fill:none;opacity:0.5;}.cls-3{fill:#fff;}</style></defs><path class="cls-1" d="M799.37,83c-49.47,76.48-88.06,95.52-114.71,98.12-38.79,3.77-55.23-27-92.07-8.36-39.46,20-38.14,64.2-73.91,84.43-50.62,28.62-70.57-50.13-136.55-33.11-47.16,12.16-52.79,56.49-89.76,54.26-47.52-2.88-45.57-76.55-99.89-96.95-46.3-17.38-68.71,28.26-115.79,10.19-35.88-13.77-58.31-53.87-71.27-83.92,30.33,12.09,69.87,18.28,112.84-4.35,50.62-26.67,62.85-70.62,103-74.25C269.37,24.71,273,86.49,321.54,81.11c45.49-5,55.13-60.76,100-58.42,33,1.72,40.15,32.52,73.43,24.33,27-6.64,30.95-29.52,55.35-40.1C593.23-11.7,618.33,38.59,669,68,696.09,83.7,738.12,97.83,799.37,83Z"/><path class="cls-2" d="M5.42,107.66c15.68,20,41.19,45.09,75.4,45.53,48.9.63,67.27-49.77,113.47-44.82,39.21,4.2,34.69,41.44,88.81,53.89,12.79,2.94,41.78,9.12,77.6-6.5,30.58-13.34,30-26.81,50.24-31.14,43.13-9.23,54.37,50,90.72,39.75,29.64-8.38,30.43-50.11,64.19-68.5C603.26,75.5,624.22,114.78,670,125.68c27.09,6.44,69.29,4.49,129.34-42.68"/><path class="cls-3" d="M391,159.75A14.85,14.85,0,0,1,386.69,170q-4.28,4.65-9.73,4.65h-56.1v-35.5l4-9.3h-6.7V117h15.24a4.36,4.36,0,0,1,3.37,1.5,5.08,5.08,0,0,1,1.36,3.5v7.9h-3.3v31.9h13.9v-29.1a2.57,2.57,0,0,0-2.3-2.7c-.4-.06-1.74-.1-4-.1V117H359c2.58,0,3.88,1.6,3.88,4.8v40H373q3.93,0,3.93-3.7v-25.3a2.63,2.63,0,0,0-2.32-2.8c-.34-.06-1.74-.1-4.23-.1V117h16.46c2.72,0,4.09,2.47,4.09,7.4Z"/><path class="cls-3" d="M434.26,174.65H422.83l-3.77-11-3.9,11h-15l5-12.9h13.9l-2.4-28.9c0-.53,0-1.1-.1-1.7-.27-.86-1.8-1.3-4.6-1.3h-3.9V117h15.55a5.62,5.62,0,0,1,4.83,3,13.68,13.68,0,0,1,1.72,5.7Z"/><path class="cls-3" d="M492.76,174.65h-14v-41.6c0-1.4-.29-2.28-.86-2.65a6.31,6.31,0,0,0-3.14-.55h-33.3V117h44.1c4.79,0,7.2,2.57,7.2,7.7Zm-37,0h-14.2v-33.1h14.2Z"/></svg>